SplineFontDB: 3.0
FontName: HammersmithOne-Regular
FullName: HammersmithOne Regular
FamilyName: HammersmithOne
Weight: Book
Copyright: Copyright (c) 2011, Sorkin Type Co. (www.sorkintype.com)\nwith Reserved Font Name "Hammersmith".\n\nThis Font Software is licensed under the SIL Open Font License,\nVersion 1.1. This license is available with a FAQ at:\nhttp://scripts.sil.org/OFL
Version: 1.003
ItalicAngle: 0
UnderlinePosition: -50
UnderlineWidth: 50
Ascent: 1638
Descent: 410
LayerCount: 2
Layer: 0 1 "Back"  1
Layer: 1 1 "Fore"  0
XUID: [1021 631 1661839179 8882700]
FSType: 0
OS2Version: 3
OS2_WeightWidthSlopeOnly: 0
OS2_UseTypoMetrics: 1
CreationTime: 1312230960
ModificationTime: 1333854457
PfmFamily: 17
TTFWeight: 400
TTFWidth: 5
LineGap: 0
VLineGap: 0
Panose: 2 1 7 3 3 5 1 6 5 4
OS2TypoAscent: 206
OS2TypoAOffset: 1
OS2TypoDescent: -306
OS2TypoDOffset: 1
OS2TypoLinegap: 0
OS2WinAscent: 1
OS2WinAOffset: 1
OS2WinDescent: 0
OS2WinDOffset: 1
HheadAscent: 1
HheadAOffset: 1
HheadDescent: 0
HheadDOffset: 1
OS2SubXSize: 1434
OS2SubYSize: 1331
OS2SubXOff: 0
OS2SubYOff: 287
OS2SupXSize: 1434
OS2SupYSize: 1331
OS2SupXOff: 0
OS2SupYOff: 977
OS2StrikeYSize: 180
OS2StrikeYPos: 674
OS2Vendor: 'STC '
OS2CodePages: 20000093.00000000
OS2UnicodeRanges: a00000af.4000204a.00000000.00000000
DEI: 91125
TtTable: prep
MPPEM
PUSHW_1
 122
GT
IF
PUSHB_2
 1
 1
INSTCTRL
EIF
PUSHW_2
 2048
 2048
MUL
DUP
PUSHB_1
 1
SWAP
WCVTP
DUP
PUSHB_1
 3
SWAP
WCVTF
PUSHB_1
 21
RCVT
DUP
DUP
PUSHB_1
 40
ADD
FLOOR
DUP
ROLL
NEQ
IF
PUSHB_1
 2
CINDEX
SUB
PUSHB_1
 1
RCVT
MUL
SWAP
DIV
PUSHB_1
 2
SWAP
WCVTP
PUSHB_4
 10
 11
 3
 2
CALL
PUSHB_4
 12
 17
 3
 2
CALL
PUSHB_4
 18
 23
 3
 2
CALL
EIF
PUSHB_3
 4
 40
 7
RCVT
GT
WCVTP
PUSHB_4
 12
 17
 4
 2
CALL
PUSHW_1
 511
SCANCTRL
PUSHB_1
 4
SCANTYPE
PUSHB_2
 5
 0
WCVTP
EndTTInstrs
TtTable: fpgm
PUSHB_1
 0
FDEF
DUP
ABS
PUSHB_1
 32
ADD
FLOOR
SWAP
PUSHB_1
 0
LT
IF
NEG
EIF
ENDF
PUSHB_1
 1
FDEF
DUP
ABS
DUP
PUSHB_1
 192
LT
PUSHB_1
 4
MINDEX
AND
PUSHB_1
 4
RCVT
OR
IF
POP
SWAP
POP
ELSE

StartChar: exclam
Encoding: 33 33 23
Width: 684
GlyphClass: 2
Flags: W
LayerCount: 2
Fore
SplineSet
468 374 m 1,0,1
 417 380 417 380 293 380 c 2,2,-1
 213 380 l 1,3,-1
 211 1358 l 1,4,-1
 302 1354 l 1,5,-1
 324 1354 l 2,6,7
 440 1354 440 1354 472 1362 c 1,8,-1
 468 374 l 1,0,1
474 240 m 1,9,10
 470 190 470 190 470 112.5 c 128,-1,11
 470 35 470 35 474 0 c 1,12,-1
 209 0 l 1,13,14
 217 62 217 62 217 122.5 c 128,-1,15
 217 183 217 183 211 240 c 1,16,-1
 474 240 l 1,9,10
EndSplineSet
EndChar

StartChar: quotedbl
Encoding: 34 34 24
Width: 1026
GlyphClass: 2
Flags: W
LayerCount: 2
Fore
SplineSet
203 1110 m 2,0,1
 196 1340 196 1340 187 1430 c 1,2,-1
 438 1430 l 1,3,4
 426 1319 426 1319 421 1109 c 2,5,-1
 418 977 l 1,6,-1
 207 977 l 1,7,-1
 203 1110 l 2,0,1
604 1110 m 2,8,9
 597 1340 597 1340 588 1430 c 1,10,-1
 839 1430 l 1,11,12
 827 1319 827 1319 822 1109 c 2,13,-1
 819 977 l 1,14,-1
 608 977 l 1,15,-1
 604 1110 l 2,8,9
EndSplineSet
EndChar

StartChar: numbersign
Encoding: 35 35 25
Width: 1535
GlyphClass: 2
Flags: W
LayerCount: 2
Fore
SplineSet
1253 491 m 1,0,1
 1205 496 1205 496 1129 496 c 2,2,-1
 1035 496 l 1,3,-1
 991 177 l 1,4,-1
 765 177 l 1,5,-1
 809 496 l 1,6,-1
 625 496 l 1,7,-1
 581 177 l 1,8,-1
 355 177 l 1,9,-1
 399 496 l 1,10,-1
 358 496 l 2,11,12
 282 496 282 496 234 491 c 1,13,-1
 237 698 l 1,14,15
 260 692 260 692 369 692 c 2,16,-1
 427 692 l 1,17,-1
 455 893 l 1,18,-1
 385 893 l 2,19,20
 309 893 309 893 261 888 c 1,21,-1
 264 1095 l 1,22,23
 286 1089 286 1089 396 1089 c 2,24,-1
 482 1089 l 1,25,-1
 527 1410 l 1,26,-1
 753 1410 l 1,27,-1
 708 1089 l 1,28,-1
 892 1089 l 1,29,-1
 937 1410 l 1,30,-1
 1163 1410 l 1,31,-1
 1118 1089 l 1,32,-1
 1165 1089 l 2,33,34
 1274 1089 1274 1089 1297 1095 c 1,35,-1
 1300 888 l 1,36,37
 1252 893 1252 893 1176 893 c 2,38,-1
 1091 893 l 1,39,-1
 1063 692 l 1,40,-1
 1118 692 l 2,41,42
 1228 692 1228 692 1250 698 c 1,43,-1
 1253 491 l 1,0,1
837 692 m 1,44,-1
 865 893 l 1,45,-1
 681 893 l 1,46,-1
 653 692 l 1,47,-1
 837 692 l 1,44,-1
EndSplineSet
EndChar

StartChar: dollar
Encoding: 36 36 26
Width: 1193
GlyphClass: 2
Flags: W
LayerCount: 2
Fore
SplineSet
412 -195 m 1,0,1
 421 -161 421 -161 421 -60 c 2,2,-1
 421 -13 l 1,3,4
 329 3 329 3 255 36.5 c 128,-1,5
 181 70 181 70 144 110 c 1,6,-1
 173 362 l 1,7,-1
 180 368 l 1,8,9
 218 311 218 311 330 264 c 0,10,11
 447 215 447 215 562 215 c 0,12,13
 717 215 717 215 774 309 c 0,14,15
 791 337 791 337 791 366 c 128,-1,16
 791 395 791 395 780.5 417 c 128,-1,17
 770 439 770 439 744 460 c 0,18,19
 694 500 694 500 576.5 546.5 c 128,-1,20
 459 593 459 593 388.5 636 c 128,-1,21
 318 679 318 679 276 727 c 0,22,23
 198 815 198 815 198 950 c 0,24,25
 198 1070 198 1070 285 1176 c 0,26,27
 376 1287 376 1287 521 1331 c 1,28,-1
 521 1411 l 2,29,30
 521 1512 521 1512 512 1546 c 1,31,-1
 781 1546 l 1,32,33
 777 1488 777 1488 777 1422 c 2,34,-1
 777 1348 l 1,35,36
 879 1333 879 1333 974 1284 c 1,37,-1
 943 1037 l 1,38,-1
 936 1035 l 1,39,40
 787 1116 787 1116 661 1116 c 0,41,42
 571 1116 571 1116 509 1072 c 0,43,44
 454 1032 454 1032 454 977 c 0,45,46
 454 928 454 928 492 896 c 0,47,48
 562 838 562 838 676.5 800.5 c 128,-1,49
 791 763 791 763 860 723.5 c 128,-1,50
 929 684 929 684 971 638 c 0,51,52
 1049 551 1049 551 1049 418 c 0,53,54
 1049 275 1049 275 958 158 c 0,55,56
 854 23 854 23 677 -12 c 1,57,-1
 677 -71 l 1,58,59
 681 -192 681 -192 681 -195 c 1,60,-1
 412 -195 l 1,0,1
EndSplineSet
EndChar

StartChar: percent
Encoding: 37 37 27
Width: 2214
GlyphClass: 2
Flags: W
LayerCount: 2
Fore
SplineSet
551 612 m 0,0,1
 461 612 461 612 388 639 c 128,-1,2
 315 666 315 666 262 714 c 0,3,4
 148 819 148 819 148 977 c 0,5,6
 148 1127 148 1127 251 1234 c 0,7,8
 368 1355 368 1355 567 1355 c 0,9,10
 749 1355 749 1355 861 1242 c 0,11,12
 965 1136 965 1136 965 985 c 0,13,14
 965 831 965 831 850 724 c 0,15,16
 731 612 731 612 551 612 c 0,0,1
1346 1330 m 1,17,-1
 1591 1330 l 1,18,-1
 841 0 l 1,19,-1
 596 0 l 1,20,-1
 1346 1330 l 1,17,-1
562 816 m 0,21,22
 609 816 609 816 645 830 c 128,-1,23
 681 844 681 844 706 868 c 1,24,25
 759 916 759 916 759 988 c 0,26,27
 759 1055 759 1055 706 1104 c 0,28,29
 650 1157 650 1157 557 1157 c 0,30,31
 466 1157 466 1157 410 1105 c 0,32,33
 359 1057 359 1057 359 985 c 0,34,35
 359 915 359 915 412 868 c 0,36,37
 469 816 469 816 562 816 c 0,21,22
1249 334 m 0,38,39
 1249 408 1249 408 1274.5 475.5 c 128,-1,40
 1300 543 1300 543 1352 597 c 0,41,42
 1469 718 1469 718 1668 718 c 0,43,44
 1850 718 1850 718 1962 604 c 0,45,46
 2066 499 2066 499 2066 348 c 0,47,48
 2066 194 2066 194 1952 87 c 0,49,50
 1832 -25 1832 -25 1646 -25 c 0,51,52
 1475 -25 1475 -25 1363 78 c 0,53,54
 1249 182 1249 182 1249 334 c 0,38,39
1461 348 m 0,55,56
 1461 314 1461 314 1474.5 283.5 c 128,-1,57
 1488 253 1488 253 1514 230 c 0,58,59
 1571 178 1571 178 1666 178 c 0,60,61
 1753 178 1753 178 1808 230 c 1,62,63
 1861 278 1861 278 1861 350 c 0,64,65
 1861 417 1861 417 1808 466 c 0,66,67
 1752 519 1752 519 1659 519 c 0,68,69
 1568 519 1568 519 1512 467 c 0,70,71
 1461 419 1461 419 1461 348 c 0,55,56
EndSplineSet
EndChar

StartChar: ampersand
Encoding: 38 38 28
Width: 1364
GlyphClass: 2
Flags: W
LayerCount: 2
Fore
SplineSet
988 118 m 1,0,1
 823 -25 823 -25 589 -25 c 0,2,3
 359 -25 359 -25 209 112 c 0,4,5
 62 245 62 245 62 442 c 0,6,7
 62 620 62 620 216 738 c 0,8,9
 262 774 262 774 315 798 c 1,10,11
 258 894 258 894 258 986 c 128,-1,12
 258 1078 258 1078 288 1143 c 128,-1,13
 318 1208 318 1208 371 1255 c 0,14,15
 484 1355 484 1355 661 1355 c 0,16,17
 787 1355 787 1355 892 1295 c 1,18,19
 887 1210 887 1210 887 1164 c 0,20,21
 887 1101 887 1101 888.5 1085 c 128,-1,22
 890 1069 890 1069 889.5 1062.5 c 128,-1,23
 889 1056 889 1056 888 1052 c 1,24,25
 884 1046 884 1046 886 1038 c 1,26,-1
 881 1031 l 1,27,28
 841 1091 841 1091 726 1117 c 0,29,30
 691 1125 691 1125 636 1125 c 128,-1,31
 581 1125 581 1125 545.5 1092 c 128,-1,32
 510 1059 510 1059 510 1009 c 0,33,34
 510 923 510 923 632 790 c 0,35,36
 670 748 670 748 724 695 c 1,37,-1
 959 480 l 1,38,39
 991 567 991 567 991 663 c 0,40,41
 991 722 991 722 961 761 c 0,42,43
 954 770 954 770 950 773 c 1,44,-1
 950 785 l 1,45,-1
 1095 727 l 2,46,47
 1137 710 1137 710 1163 701 c 128,-1,48
 1189 692 1189 692 1202 686 c 0,49,50
 1225 676 1225 676 1225 664 c 0,51,52
 1225 484 1225 484 1144 322 c 1,53,54
 1246 238 1246 238 1275 227 c 128,-1,55
 1304 216 1304 216 1319 214 c 0,56,57
 1367 208 1367 208 1375 218 c 1,58,-1
 1380 212 l 1,59,-1
 1277 -13 l 1,60,61
 1260 -25 1260 -25 1219 -25 c 0,62,63
 1156 -25 1156 -25 988 118 c 1,0,1
595.5 215 m 128,-1,65
 712 215 712 215 805 279 c 1,66,-1
 697 378 l 1,67,68
 524 535 524 535 422 652 c 1,69,70
 313 573 313 573 313 466 c 128,-1,71
 313 359 313 359 396 287 c 128,-1,64
 479 215 479 215 595.5 215 c 128,-1,65
EndSplineSet
EndChar

StartChar: quotesingle
Encoding: 39 39 29
Width: 684
GlyphClass: 2
Flags: W
LayerCount: 2
Fore
SplineSet
232 1110 m 2,0,1
 225 1340 225 1340 216 1430 c 1,2,-1
 467 1430 l 1,3,4
 455 1319 455 1319 450 1109 c 2,5,-1
 447 977 l 1,6,-1
 236 977 l 1,7,-1
 232 1110 l 2,0,1
EndSplineSet
EndChar

StartChar: parenleft
Encoding: 40 40 30
Width: 929
GlyphClass: 2
Flags: W
LayerCount: 2
Fore
SplineSet
500 -100 m 1,0,1
 182 174 182 174 182 680 c 0,2,3
 182 1017 182 1017 362 1276 c 0,4,5
 421 1362 421 1362 500 1430 c 1,6,-1
 756 1430 l 1,7,-1
 756 1424 l 1,8,9
 507 1198 507 1198 454 896 c 0,10,11
 436 794 436 794 436 675 c 0,12,13
 436 240 436 240 746 -94 c 1,14,-1
 746 -100 l 1,15,-1
 500 -100 l 1,0,1
EndSplineSet
EndChar

StartChar: parenright
Encoding: 41 41 31
Width: 929
GlyphClass: 2
Flags: W
LayerCount: 2
Fore
SplineSet
428 -100 m 1,0,1
 746 174 746 174 746 680 c 0,2,3
 746 1017 746 1017 566 1276 c 0,4,5
 507 1362 507 1362 428 1430 c 1,6,-1
 172 1430 l 1,7,-1
 172 1424 l 1,8,9
 421 1198 421 1198 474 896 c 0,10,11
 492 794 492 794 492 675 c 0,12,13
 492 240 492 240 182 -94 c 1,14,-1
 182 -100 l 1,15,-1
 428 -100 l 1,0,1
EndSplineSet
EndChar

StartChar: asterisk
Encoding: 42 42 32
Width: 1193
GlyphClass: 2
Flags: W
LayerCount: 2
Fore
SplineSet
483 759 m 2,0,-1
 515 1041 l 1,1,-1
 257 842 l 1,2,-1
 129 1033 l 1,3,-1
 418 1166 l 1,4,-1
 130 1336 l 1,5,-1
 287 1516 l 1,6,-1
 512 1299 l 1,7,-1
 472 1605 l 1,8,-1
 716 1605 l 1,9,-1
 674 1287 l 1,10,-1
 902 1488 l 1,11,-1
 1053 1307 l 1,12,-1
 750 1161 l 1,13,-1
 1063 1011 l 1,14,-1
 929 825 l 1,15,-1
 675 1031 l 1,16,-1
 712 724 l 1,17,-1
 479 724 l 1,18,19
 479 725 479 725 483 759 c 2,0,-1
EndSplineSet
EndChar

StartChar: plus
Encoding: 43 43 33
Width: 1364
GlyphClass: 2
Flags: W
LayerCount: 2
Fore
SplineSet
351 500 m 2,0,1
 275 500 275 500 227 495 c 1,2,-1
 230 742 l 1,3,4
 252 736 252 736 362 736 c 2,5,-1
 564 736 l 1,6,-1
 564 928 l 2,7,8
 564 1038 564 1038 558 1060 c 1,9,-1
 805 1063 l 1,10,11
 800 1015 800 1015 800 939 c 2,12,-1
 800 736 l 1,13,-1
 1001 736 l 2,14,15
 1110 736 1110 736 1133 742 c 1,16,-1
 1136 495 l 1,17,18
 1088 500 1088 500 1012 500 c 2,19,-1
 800 500 l 1,20,-1
 800 278 l 2,21,22
 800 202 800 202 805 154 c 1,23,-1
 558 157 l 1,24,25
 564 180 564 180 564 289 c 2,26,-1
 564 500 l 1,27,-1
 351 500 l 2,0,1
EndSplineSet
EndChar

StartChar: comma
Encoding: 44 44 34
Width: 510
GlyphClass: 2
Flags: W
LayerCount: 2
Fore
SplineSet
158 66.5 m 128,-1,1
 158 140 158 140 147 220 c 1,2,-1
 396 260 l 1,3,-1
 404 209 l 2,4,5
 412 153 412 153 412 93.5 c 128,-1,6
 412 34 412 34 406 -16.5 c 128,-1,7
 400 -67 400 -67 390 -110 c 0,8,9
 367 -204 367 -204 338 -222 c 0,10,11
 289 -253 289 -253 103 -292 c 1,12,-1
 97 -286 l 1,13,14
 131 -226 131 -226 144.5 -116.5 c 128,-1,0
 158 -7 158 -7 158 66.5 c 128,-1,1
EndSplineSet
EndChar

StartChar: hyphen
Encoding: 45 45 35
Width: 1016
GlyphClass: 2
Flags: W
LayerCount: 2
Fore
SplineSet
302 500 m 2,0,1
 226 500 226 500 178 495 c 1,2,-1
 181 742 l 1,3,4
 204 736 204 736 313 736 c 2,5,-1
 702 736 l 2,6,7
 812 736 812 736 834 742 c 1,8,-1
 837 495 l 1,9,10
 789 500 789 500 713 500 c 2,11,-1
 302 500 l 2,0,1
EndSplineSet
EndChar

StartChar: period
Encoding: 46 46 36
Width: 510
GlyphClass: 2
Flags: W
LayerCount: 2
Fore
SplineSet
109 0 m 1,0,1
 118 61 118 61 118 108 c 128,-1,2
 118 155 118 155 117.5 172.5 c 128,-1,3
 117 190 117 190 116 207 c 128,-1,4
 115 224 115 224 114 239 c 2,5,-1
 111 264 l 1,6,-1
 401 264 l 1,7,8
 398 226 398 226 398 202 c 1,9,-1
 396 160 l 2,10,11
 396 141 396 141 396 88.5 c 128,-1,12
 396 36 396 36 401 0 c 1,13,-1
 109 0 l 1,0,1
EndSplineSet
EndChar

StartChar: slash
Encoding: 47 47 37
Width: 855
GlyphClass: 2
Flags: W
LayerCount: 2
Fore
SplineSet
599 1530 m 1,0,-1
 855 1530 l 1,1,-1
 256 -170 l 1,2,-1
 0 -170 l 1,3,-1
 599 1530 l 1,0,-1
EndSplineSet
EndChar

StartChar: zero
Encoding: 48 48 38
Width: 1364
GlyphClass: 2
Flags: W
LayerCount: 2
Fore
SplineSet
106 646 m 0,0,1
 106 797 106 797 150.5 928 c 128,-1,2
 195 1059 195 1059 275 1154 c 0,3,4
 446 1355 446 1355 708 1355 c 0,5,6
 959 1355 959 1355 1110 1166 c 0,7,8
 1257 982 1257 982 1257 679 c 0,9,10
 1257 337 1257 337 1079 146 c 0,11,12
 920 -25 920 -25 671 -25 c 0,13,14
 430 -25 430 -25 269 161 c 0,15,16
 106 350 106 350 106 646 c 0,0,1
561 241.5 m 128,-1,18
 622 210 622 210 685.5 210 c 128,-1,19
 749 210 749 210 804 238 c 128,-1,20
 859 266 859 266 903 322 c 0,21,22
 1002 450 1002 450 1002 657 c 0,23,24
 1002 869 1002 869 918 996 c 1,25,26
 833 1121 833 1121 688 1121 c 0,27,28
 542 1121 542 1121 452 991 c 0,29,30
 361 860 361 860 361 652 c 0,31,32
 361 453 361 453 456 330 c 0,33,17
 500 273 500 273 561 241.5 c 128,-1,18
EndSplineSet
EndChar

StartChar: one
Encoding: 49 49 39
Width: 689
GlyphClass: 2
Flags: W
LayerCount: 2
Fore
SplineSet
217 1330 m 1,0,-1
 472 1330 l 1,1,-1
 472 0 l 1,2,-1
 217 0 l 1,3,-1
 217 1330 l 1,0,-1
EndSplineSet
EndChar

StartChar: two
Encoding: 50 50 40
Width: 1193
GlyphClass: 2
Flags: W
LayerCount: 2
Fore
SplineSet
553 600 m 1,0,1
 701 788 701 788 723 897 c 0,2,3
 730 931 730 931 730 962 c 0,4,5
 730 1035 730 1035 675 1079 c 128,-1,6
 620 1123 620 1123 517 1123 c 0,7,8
 420 1123 420 1123 316 1072 c 0,9,10
 221 1025 221 1025 181 965 c 1,11,-1
 168 963 l 1,12,-1
 176 1263 l 1,13,14
 264 1320 264 1320 422 1346 c 0,15,16
 471 1355 471 1355 516 1355 c 0,17,18
 768 1355 768 1355 892 1234 c 1,19,20
 998 1133 998 1133 998 964 c 0,21,22
 998 848 998 848 926 714 c 1,23,24
 864 602 864 602 763 472 c 1,25,-1
 567 230 l 1,26,-1
 891 230 l 2,27,28
 957 230 957 230 994.5 235.5 c 128,-1,29
 1032 241 1032 241 1058 261 c 1,30,-1
 1065 258 l 1,31,-1
 992 -15 l 1,32,-1
 883 -9 l 2,33,34
 600 7 600 7 83 -7 c 1,35,-1
 553 600 l 1,0,1
EndSplineSet
EndChar

StartChar: three
Encoding: 51 51 41
Width: 1193
GlyphClass: 2
Flags: W
LayerCount: 2
Fore
SplineSet
872 778 m 1,0,1
 1113 676 1113 676 1113 432 c 0,2,3
 1113 238 1113 238 954 110 c 0,4,5
 787 -25 787 -25 512 -25 c 0,6,7
 247 -25 247 -25 86 98 c 1,8,-1
 82 365 l 1,9,-1
 92 377 l 1,10,11
 212 214 212 214 510 214 c 0,12,13
 858 214 858 214 858 445 c 0,14,15
 858 528 858 528 756 575 c 0,16,17
 664 617 664 617 542 617 c 0,18,19
 374 617 374 617 284 560 c 1,20,-1
 278 567 l 1,21,-1
 288 803 l 1,22,23
 409 836 409 836 542 836 c 2,24,-1
 594 836 l 2,25,26
 622 836 622 836 649 834 c 1,27,28
 713 872 713 872 732 948 c 0,29,30
 738 969 738 969 738 990.5 c 128,-1,31
 738 1012 738 1012 725 1034.5 c 128,-1,32
 712 1057 712 1057 686 1074 c 0,33,34
 629 1113 629 1113 557.5 1113 c 128,-1,35
 486 1113 486 1113 437 1105 c 128,-1,36
 388 1097 388 1097 342 1082 c 0,37,38
 243 1049 243 1049 194 1000 c 1,39,-1
 189 1005 l 1,40,-1
 177 1261 l 1,41,42
 338 1355 338 1355 568 1355 c 0,43,44
 749 1355 749 1355 870 1272 c 0,45,46
 1000 1182 1000 1182 1000 1032 c 0,47,48
 1000 950 1000 950 964 884.5 c 128,-1,49
 928 819 928 819 872 778 c 1,0,1
556 809 m 1,50,51
 581 809 581 809 598 813 c 1,52,-1
 556 809 l 1,50,51
EndSplineSet
EndChar

StartChar: four
Encoding: 52 52 42
Width: 1193
GlyphClass: 2
Flags: W
LayerCount: 2
Fore
SplineSet
922 563 m 1,0,1
 1074 563 1074 563 1174 589 c 1,2,-1
 1179 582 l 1,3,-1
 1106 350 l 1,4,-1
 922 350 l 1,5,-1
 922 0 l 1,6,-1
 667 0 l 1,7,-1
 667 350 l 1,8,-1
 51 350 l 1,9,-1
 47 424 l 1,10,-1
 600 1328 l 1,11,-1
 922 1330 l 1,12,-1
 922 563 l 1,0,1
667 563 m 1,13,-1
 667 1037 l 1,14,-1
 394 563 l 1,15,-1
 667 563 l 1,13,-1
EndSplineSet
EndChar

StartChar: five
Encoding: 53 53 43
Width: 1364
GlyphClass: 2
Flags: W
LayerCount: 2
Fore
SplineSet
483 875 m 1,0,1
 582 896 582 896 701 896 c 128,-1,2
 820 896 820 896 920.5 863 c 128,-1,3
 1021 830 1021 830 1088 774 c 0,4,5
 1224 662 1224 662 1224 486 c 0,6,7
 1224 262 1224 262 1058 118 c 1,8,9
 891 -25 891 -25 637 -25 c 0,10,11
 352 -25 352 -25 186 113 c 1,12,-1
 175 396 l 1,13,-1
 185 403 l 1,14,15
 327 208 327 208 641 208 c 0,16,17
 783 208 783 208 868 274 c 256,18,19
 953 340 953 340 953 442 c 0,20,21
 953 609 953 609 780 666 c 0,22,23
 722 685 722 685 658 685 c 128,-1,24
 594 685 594 685 538.5 679.5 c 128,-1,25
 483 674 483 674 430 664 c 0,26,27
 320 643 320 643 248 604 c 1,28,-1
 248 1330 l 1,29,-1
 875 1330 l 2,30,31
 1067 1330 1067 1330 1102 1362 c 1,32,-1
 1106 1359 l 1,33,-1
 1082 1115 l 1,34,35
 1038 1094 1038 1094 879 1094 c 2,36,-1
 483 1094 l 1,37,-1
 483 875 l 1,0,1
EndSplineSet
EndChar

StartChar: six
Encoding: 54 54 44
Width: 1364
GlyphClass: 2
Flags: W
LayerCount: 2
Fore
SplineSet
155 358 m 128,-1,1
 119 472 119 472 119 584 c 128,-1,2
 119 696 119 696 137 789 c 128,-1,3
 155 882 155 882 192 966 c 128,-1,4
 229 1050 229 1050 286 1121 c 128,-1,5
 343 1192 343 1192 420 1244 c 0,6,7
 586 1355 586 1355 818 1355 c 0,8,9
 993 1355 993 1355 1119 1296 c 1,10,-1
 1128 1050 l 1,11,-1
 1124 1044 l 1,12,13
 1014 1125 1014 1125 800 1125 c 0,14,15
 639 1125 639 1125 522 1016 c 0,16,17
 410 911 410 911 375 748 c 1,18,19
 499 872 499 872 688 908 c 0,20,21
 744 918 744 918 820 918 c 128,-1,22
 896 918 896 918 981 888 c 128,-1,23
 1066 858 1066 858 1126 802 c 0,24,25
 1254 682 1254 682 1254 484 c 0,26,27
 1254 264 1254 264 1088 118 c 1,28,29
 927 -25 927 -25 694 -25 c 0,30,31
 419 -25 419 -25 263 159 c 0,32,0
 191 244 191 244 155 358 c 128,-1,1
384 444 m 1,33,34
 417 333 417 333 493 269.5 c 128,-1,35
 569 206 569 206 686 206 c 0,36,37
 820 206 820 206 907 278 c 0,38,39
 998 352 998 352 998 476 c 0,40,41
 998 569 998 569 938 629 c 0,42,43
 873 694 873 694 762 694 c 0,44,45
 621 694 621 694 516 620 c 1,46,47
 417 549 417 549 384 444 c 1,33,34
EndSplineSet
EndChar

StartChar: seven
Encoding: 55 55 45
Width: 1031
GlyphClass: 2
Flags: W
LayerCount: 2
Fore
SplineSet
582 128 m 0,0,1
 582 60 582 60 589 0 c 1,2,-1
 285 0 l 1,3,4
 285 148 285 148 388 478 c 1,5,6
 509 870 509 870 672 1105 c 1,7,-1
 180 1097 l 1,8,9
 71 1097 71 1097 42 1072 c 1,10,-1
 35 1077 l 1,11,-1
 27 1337 l 1,12,-1
 547 1334 l 2,13,14
 638 1334 638 1334 711.5 1334 c 128,-1,15
 785 1334 785 1334 842 1335 c 0,16,17
 972 1337 972 1337 1047 1341 c 1,18,-1
 875 991 l 2,19,20
 582 397 582 397 582 128 c 0,0,1
EndSplineSet
EndChar

StartChar: eight
Encoding: 56 56 46
Width: 1364
GlyphClass: 2
Flags: W
LayerCount: 2
Fore
SplineSet
1036 710 m 1,0,1
 1151 670 1151 670 1212 580 c 1,2,3
 1268 500 1268 500 1268 399.5 c 128,-1,4
 1268 299 1268 299 1228 220 c 128,-1,5
 1188 141 1188 141 1114 86 c 0,6,7
 963 -28 963 -28 695 -28 c 0,8,9
 453 -28 453 -28 282 77 c 0,10,11
 95 192 95 192 95 400 c 0,12,13
 95 546 95 546 220 659 c 0,14,15
 259 695 259 695 309 720 c 1,16,17
 186 818 186 818 186 974 c 0,18,19
 186 1138 186 1138 315 1244 c 0,20,21
 453 1357 453 1357 694 1357 c 0,22,23
 929 1357 929 1357 1069 1238 c 0,24,25
 1196 1131 1196 1131 1196 967.5 c 128,-1,26
 1196 804 1196 804 1036 710 c 1,0,1
458 1036 m 0,27,28
 441 1009 441 1009 441 977.5 c 128,-1,29
 441 946 441 946 460.5 916 c 128,-1,30
 480 886 480 886 522 859 c 0,31,32
 613 802 613 802 800 773 c 1,33,34
 895 821 895 821 929 910 c 0,35,36
 972 1024 972 1024 876 1084 c 0,37,38
 808 1127 808 1127 681 1127 c 0,39,40
 513 1127 513 1127 458 1036 c 0,27,28
485 604 m 1,41,42
 361 532 361 532 361 425 c 0,43,44
 361 206 361 206 706 202 c 0,45,46
 927 199 927 199 983 294 c 0,47,48
 1003 328 1003 328 1003 370.5 c 128,-1,49
 1003 413 1003 413 985 438 c 128,-1,50
 967 463 967 463 931 482 c 0,51,52
 874 511 874 511 774 530.5 c 128,-1,53
 674 550 674 550 639 558 c 128,-1,54
 604 566 604 566 576 574 c 0,55,56
 525 587 525 587 485 604 c 1,41,42
EndSplineSet
EndChar

StartChar: nine
Encoding: 57 57 47
Width: 1364
GlyphClass: 2
Flags: W
LayerCount: 2
Fore
SplineSet
244 286 m 1,0,1
 354 205 354 205 568 205 c 0,2,3
 723 205 723 205 836 305 c 0,4,5
 945 402 945 402 982 555 c 1,6,7
 867 448 867 448 677 420 c 0,8,9
 623 412 623 412 547.5 412 c 128,-1,10
 472 412 472 412 387 442 c 128,-1,11
 302 472 302 472 242 528 c 0,12,13
 114 648 114 648 114 846 c 0,14,15
 114 1066 114 1066 280 1212 c 1,16,17
 441 1355 441 1355 674 1355 c 0,18,19
 949 1355 949 1355 1105 1171 c 0,20,21
 1249 1001 1249 1001 1249 729 c 0,22,23
 1249 417 1249 417 1082 209 c 0,24,25
 894 -25 894 -25 550 -25 c 0,26,27
 375 -25 375 -25 249 34 c 1,28,-1
 240 280 l 1,29,-1
 244 286 l 1,0,1
614 636 m 0,30,31
 681 636 681 636 743.5 654 c 128,-1,32
 806 672 806 672 854 702 c 0,33,34
 952 765 952 765 981 865 c 1,35,36
 934 1051 934 1051 790 1106 c 0,37,38
 742 1124 742 1124 679.5 1124 c 128,-1,39
 617 1124 617 1124 560 1105.5 c 128,-1,40
 503 1087 503 1087 461 1052 c 0,41,42
 370 978 370 978 370 854 c 0,43,44
 370 761 370 761 430 701 c 0,45,46
 495 636 495 636 614 636 c 0,30,31
EndSplineSet
EndChar

StartChar: colon
Encoding: 58 58 48
Width: 510
GlyphClass: 2
Flags: W
LayerCount: 2
Fore
SplineSet
396 770 m 2,0,1
 396 751 396 751 396 698.5 c 128,-1,2
 396 646 396 646 401 610 c 1,3,-1
 109 610 l 1,4,5
 118 671 118 671 118 718 c 128,-1,6
 118 765 118 765 117.5 782.5 c 128,-1,7
 117 800 117 800 116 817 c 128,-1,8
 115 834 115 834 114 849 c 2,9,-1
 111 874 l 1,10,-1
 401 874 l 1,11,12
 398 836 398 836 398 812 c 1,13,-1
 396 770 l 2,0,1
396 160 m 2,14,15
 396 141 396 141 396 88.5 c 128,-1,16
 396 36 396 36 401 0 c 1,17,-1
 109 0 l 1,18,19
 118 61 118 61 118 108 c 128,-1,20
 118 155 118 155 117.5 172.5 c 128,-1,21
 117 190 117 190 116 207 c 128,-1,22
 115 224 115 224 114 239 c 2,23,-1
 111 264 l 1,24,-1
 401 264 l 1,25,26
 398 226 398 226 398 202 c 1,27,-1
 396 160 l 2,14,15
EndSplineSet
EndChar

StartChar: semicolon
Encoding: 59 59 49
Width: 518
GlyphClass: 2
Flags: W
LayerCount: 2
Fore
SplineSet
402 690 m 1,0,1
 398 640 398 640 398 562.5 c 128,-1,2
 398 485 398 485 402 450 c 1,3,-1
 137 450 l 1,4,5
 145 512 145 512 145 572.5 c 128,-1,6
 145 633 145 633 139 690 c 1,7,-1
 402 690 l 1,0,1
162 66.5 m 128,-1,9
 162 140 162 140 151 220 c 1,10,-1
 400 260 l 1,11,-1
 408 209 l 2,12,13
 416 153 416 153 416 93.5 c 128,-1,14
 416 34 416 34 410 -16.5 c 128,-1,15
 404 -67 404 -67 394 -110 c 0,16,17
 371 -204 371 -204 342 -222 c 0,18,19
 293 -253 293 -253 107 -292 c 1,20,-1
 101 -286 l 1,21,22
 135 -226 135 -226 148.5 -116.5 c 128,-1,8
 162 -7 162 -7 162 66.5 c 128,-1,9
EndSplineSet
EndChar

StartChar: less
Encoding: 60 60 50
Width: 1364
GlyphClass: 2
Flags: W
LayerCount: 2
Fore
SplineSet
344 648 m 1,0,-1
 1019 1065 l 1,1,-1
 1019 784 l 1,2,-1
 579 536 l 1,3,-1
 1019 265 l 1,4,-1
 1019 -15 l 1,5,-1
 344 434 l 1,6,-1
 344 648 l 1,0,-1
EndSplineSet
EndChar

StartChar: equal
Encoding: 61 61 51
Width: 1364
GlyphClass: 2
Flags: W
LayerCount: 2
Fore
SplineSet
351 720 m 2,0,1
 275 720 275 720 227 715 c 1,2,-1
 230 962 l 1,3,4
 252 956 252 956 362 956 c 2,5,-1
 1001 956 l 2,6,7
 1110 956 1110 956 1133 962 c 1,8,-1
 1136 715 l 1,9,10
 1088 720 1088 720 1012 720 c 2,11,-1
 351 720 l 2,0,1
351 300 m 2,12,13
 275 300 275 300 227 295 c 1,14,-1
 230 542 l 1,15,16
 252 536 252 536 362 536 c 2,17,-1
 1001 536 l 2,18,19
 1110 536 1110 536 1133 542 c 1,20,-1
 1136 295 l 1,21,22
 1088 300 1088 300 1012 300 c 2,23,-1
 351 300 l 2,12,13
EndSplineSet
EndChar

StartChar: greater
Encoding: 62 62 52
Width: 1359
GlyphClass: 2
Flags: W
LayerCount: 2
Fore
SplineSet
342 265 m 1,0,-1
 781 536 l 1,1,-1
 342 784 l 1,2,-1
 342 1065 l 1,3,-1
 1017 648 l 1,4,-1
 1017 434 l 1,5,-1
 342 -15 l 1,6,-1
 342 265 l 1,0,-1
EndSplineSet
EndChar

StartChar: question
Encoding: 63 63 53
Width: 1026
GlyphClass: 2
Flags: W
LayerCount: 2
Fore
SplineSet
610 456 m 1,0,1
 523 391 523 391 422 343 c 1,2,3
 297 391 297 391 297 521 c 0,4,5
 297 577 297 577 326 624 c 1,6,7
 384 714 384 714 495 807 c 0,8,9
 576 875 576 875 598 907 c 0,10,11
 631 955 631 955 631 996 c 128,-1,12
 631 1037 631 1037 614 1065.5 c 128,-1,13
 597 1094 597 1094 567 1114 c 0,14,15
 506 1155 506 1155 413 1155 c 0,16,17
 291 1155 291 1155 194 1072 c 0,18,19
 161 1044 161 1044 140 1004 c 1,20,-1
 133 1002 l 1,21,22
 136 1046 136 1046 124 1091 c 2,23,-1
 82 1241 l 1,24,25
 224 1375 224 1375 449 1375 c 0,26,27
 640 1375 640 1375 768 1266 c 1,28,29
 888 1162 888 1162 888 1017 c 0,30,31
 888 945 888 945 858 893 c 0,32,33
 809 807 809 807 730 737.5 c 128,-1,34
 651 668 651 668 621 637 c 128,-1,35
 591 606 591 606 576 585 c 0,36,37
 553 553 553 553 553 524 c 128,-1,38
 553 495 553 495 570.5 477.5 c 128,-1,39
 588 460 588 460 610 456 c 1,0,1
588 240 m 1,40,41
 584 190 584 190 584 112.5 c 128,-1,42
 584 35 584 35 588 0 c 1,43,-1
 323 0 l 1,44,45
 331 62 331 62 331 122.5 c 128,-1,46
 331 183 331 183 325 240 c 1,47,-1
 588 240 l 1,40,41
EndSplineSet
EndChar

StartChar: at
Encoding: 64 64 54
Width: 2385
GlyphClass: 2
Flags: W
LayerCount: 2
Fore
SplineSet
1021 840 m 128,-1,1
 1121 875 1121 875 1229.5 875 c 128,-1,2
 1338 875 1338 875 1434 836 c 1,3,-1
 1436 855 l 1,4,-1
 1689 855 l 1,5,-1
 1646 400 l 2,6,7
 1642 366 1642 366 1642 320 c 0,8,9
 1642 215 1642 215 1754 215 c 0,10,11
 1888 215 1888 215 1946 363 c 0,12,13
 1976 440 1976 440 1976 557.5 c 128,-1,14
 1976 675 1976 675 1927.5 783.5 c 128,-1,15
 1879 892 1879 892 1787 971 c 0,16,17
 1590 1140 1590 1140 1265 1140 c 0,18,19
 892 1140 892 1140 658 923 c 1,20,21
 407 692 407 692 407 353 c 0,22,23
 407 77 407 77 606 -94 c 0,24,25
 815 -273 815 -273 1177 -273 c 0,26,27
 1386 -273 1386 -273 1582 -222 c 1,28,29
 1765 -176 1765 -176 1827 -118 c 1,30,-1
 1833 -121 l 1,31,-1
 1738 -361 l 1,32,33
 1488 -487 1488 -487 1148 -487 c 0,34,35
 685 -487 685 -487 419 -276 c 1,36,37
 150 -61 150 -61 150 323 c 0,38,39
 150 360 150 360 158.5 454 c 128,-1,40
 167 548 167 548 213 663.5 c 128,-1,41
 259 779 259 779 334 881 c 128,-1,42
 409 983 409 983 509.5 1069 c 128,-1,43
 610 1155 610 1155 730 1218 c 0,44,45
 984 1349 984 1349 1274 1349 c 0,46,47
 1578 1349 1578 1349 1807 1240 c 0,48,49
 2014 1141 2014 1141 2128 962 c 0,50,51
 2235 793 2235 793 2235 591 c 0,52,53
 2235 425 2235 425 2178.5 308 c 128,-1,54
 2122 191 2122 191 2052 123 c 0,55,56
 1908 -15 1908 -15 1728 -15 c 128,-1,57
 1548 -15 1548 -15 1456 86 c 1,58,59
 1304 -15 1304 -15 1123 -15 c 0,60,61
 910 -15 910 -15 784 107 c 0,62,63
 666 221 666 221 666 391 c 0,64,65
 666 504 666 504 718 594 c 128,-1,66
 770 684 770 684 845.5 744.5 c 128,-1,0
 921 805 921 805 1021 840 c 128,-1,1
1411 598 m 1,67,68
 1336 645 1336 645 1217 645 c 0,69,70
 1096 645 1096 645 1016 584 c 0,71,72
 939 526 939 526 931 434 c 1,73,74
 915 286 915 286 1060 236 c 0,75,76
 1109 220 1109 220 1199 220 c 128,-1,77
 1289 220 1289 220 1384 276 c 1,78,79
 1382 304 1382 304 1386 332 c 1,80,-1
 1411 598 l 1,67,68
EndSplineSet
EndChar

StartChar: A
Encoding: 65 65 55
Width: 1197
GlyphClass: 2
Flags: W
LayerCount: 2
Fore
SplineSet
269 -8 m 1,0,1
 183 0 183 0 68 0 c 2,2,-1
 -11 0 l 1,3,-1
 424 1219 l 2,4,5
 453 1301 453 1301 453 1314.5 c 128,-1,6
 453 1328 453 1328 452 1331 c 1,7,-1
 453 1333 l 1,8,9
 518 1330 518 1330 591 1330 c 0,10,11
 651 1330 651 1330 735 1332 c 1,12,-1
 736 1330 l 1,13,14
 734 1326 734 1326 734 1319 c 0,15,16
 734 1300 734 1300 764 1218 c 2,17,-1
 1208 -3 l 1,18,19
 1188 -2 1188 -2 1161 -2 c 1,20,21
 1161 -2 1161 -2 1109 0 c 0,22,23
 1084 0 1084 0 1064 0 c 2,24,-1
 909 0 l 1,25,-1
 815 288 l 1,26,-1
 363 288 l 1,27,-1
 269 -8 l 1,0,1
737 528 m 1,28,-1
 586 993 l 1,29,-1
 439 528 l 1,30,-1
 737 528 l 1,28,-1
EndSplineSet
EndChar

StartChar: B
Encoding: 66 66 56
Width: 1197
GlyphClass: 2
Flags: W
LayerCount: 2
Fore
SplineSet
822 7 m 128,-1,1
 705 -25 705 -25 534.5 -25 c 128,-1,2
 364 -25 364 -25 172 6 c 1,3,-1
 172 1324 l 1,4,5
 366 1355 366 1355 508.5 1355 c 128,-1,6
 651 1355 651 1355 742.5 1328 c 128,-1,7
 834 1301 834 1301 892 1255 c 0,8,9
 1006 1166 1006 1166 1006 1024.5 c 128,-1,10
 1006 883 1006 883 903 790 c 1,11,12
 1025 752 1025 752 1092 646 c 0,13,14
 1153 551 1153 551 1153 435.5 c 128,-1,15
 1153 320 1153 320 1119.5 238 c 128,-1,16
 1086 156 1086 156 1012.5 97.5 c 128,-1,0
 939 39 939 39 822 7 c 128,-1,1
437 827 m 1,17,18
 479 820 479 820 542 820 c 128,-1,19
 605 820 605 820 645.5 836.5 c 128,-1,20
 686 853 686 853 708 878 c 0,21,22
 744 919 744 919 744 992 c 0,23,24
 744 1145 744 1145 564 1145 c 0,25,26
 488 1145 488 1145 437 1139 c 1,27,-1
 437 827 l 1,17,18
585 613 m 0,28,29
 501 613 501 613 437 602 c 1,30,-1
 437 209 l 1,31,32
 507 191 507 191 584 191 c 128,-1,33
 661 191 661 191 719.5 209.5 c 128,-1,34
 778 228 778 228 818 260 c 0,35,36
 899 326 899 326 899 428 c 0,37,38
 899 613 899 613 585 613 c 0,28,29
EndSplineSet
EndChar

StartChar: C
Encoding: 67 67 57
Width: 1188
GlyphClass: 2
Flags: W
LayerCount: 2
Fore
SplineSet
768 1355 m 0,0,1
 955 1355 955 1355 1087 1290 c 1,2,-1
 1087 984 l 1,3,-1
 1085 982 l 1,4,5
 1029 1068 1029 1068 849 1096 c 0,6,7
 796 1105 796 1105 715 1105 c 128,-1,8
 634 1105 634 1105 556 1074.5 c 128,-1,9
 478 1044 478 1044 428 988 c 0,10,11
 331 879 331 879 331 677 c 0,12,13
 331 442 331 442 454 327 c 0,14,15
 556 231 556 231 724 231 c 0,16,17
 914 231 914 231 1032 312 c 0,18,19
 1075 341 1075 341 1105 384 c 1,20,-1
 1108 382 l 1,21,-1
 1108 102 l 1,22,23
 955 -25 955 -25 696 -25 c 0,24,25
 391 -25 391 -25 218 169 c 0,26,27
 52 354 52 354 52 659 c 0,28,29
 52 982 52 982 234 1168 c 0,30,31
 418 1355 418 1355 768 1355 c 0,0,1
EndSplineSet
EndChar

StartChar: D
Encoding: 68 68 58
Width: 1364
GlyphClass: 2
Flags: W
LayerCount: 2
Fore
SplineSet
496 -25 m 0,0,1
 334 -25 334 -25 191 1 c 1,2,-1
 191 1339 l 1,3,4
 323 1355 323 1355 497.5 1355 c 128,-1,5
 672 1355 672 1355 813.5 1307.5 c 128,-1,6
 955 1260 955 1260 1050 1172 c 0,7,8
 1242 996 1242 996 1242 679 c 0,9,10
 1242 324 1242 324 1028 140 c 0,11,12
 836 -25 836 -25 496 -25 c 0,0,1
451 219 m 1,13,14
 516 207 516 207 581 207 c 128,-1,15
 646 207 646 207 721 232.5 c 128,-1,16
 796 258 796 258 851 312 c 0,17,18
 969 426 969 426 969 644 c 0,19,20
 969 1002 969 1002 708 1084 c 0,21,22
 622 1111 622 1111 509 1111 c 2,23,-1
 482 1111 l 2,24,25
 467 1111 467 1111 451 1110 c 1,26,-1
 451 219 l 1,13,14
EndSplineSet
EndChar

StartChar: E
Encoding: 69 69 59
Width: 1026
GlyphClass: 2
Flags: W
LayerCount: 2
Fore
SplineSet
841 240 m 2,0,1
 903 240 903 240 927 252 c 1,2,-1
 931 251 l 1,3,-1
 921 0 l 1,4,-1
 172 0 l 1,5,-1
 172 1337 l 1,6,7
 199 1335 199 1335 232 1334 c 2,8,-1
 302 1332 l 2,9,10
 372 1330 372 1330 454 1330 c 0,11,12
 683 1330 683 1330 907 1338 c 1,13,14
 896 1250 896 1250 896 1103 c 0,15,16
 896 1087 896 1087 898 1079 c 1,17,-1
 896 1076 l 1,18,19
 844 1091 844 1091 748 1091 c 2,20,-1
 433 1091 l 1,21,-1
 433 836 l 1,22,-1
 670 836 l 2,23,24
 780 836 780 836 802 842 c 1,25,-1
 805 595 l 1,26,27
 757 600 757 600 681 600 c 2,28,-1
 433 600 l 1,29,-1
 433 240 l 1,30,-1
 841 240 l 2,0,1
EndSplineSet
EndChar

StartChar: F
Encoding: 70 70 60
Width: 1022
GlyphClass: 2
Flags: W
LayerCount: 2
Fore
SplineSet
873 575 m 1,0,1
 825 580 825 580 749 580 c 2,2,-1
 446 580 l 1,3,-1
 446 0 l 1,4,-1
 172 0 l 1,5,-1
 172 1337 l 1,6,7
 199 1335 199 1335 234 1334 c 2,8,-1
 308 1332 l 2,9,10
 384 1330 384 1330 466 1330 c 0,11,12
 712 1330 712 1330 936 1338 c 1,13,14
 925 1250 925 1250 925 1103 c 0,15,16
 925 1087 925 1087 927 1079 c 1,17,-1
 925 1076 l 1,18,19
 872 1091 872 1091 777 1091 c 2,20,-1
 446 1091 l 1,21,-1
 446 816 l 1,22,-1
 738 816 l 2,23,24
 848 816 848 816 870 822 c 1,25,-1
 873 575 l 1,0,1
EndSplineSet
EndChar

StartChar: G
Encoding: 71 71 61
Width: 1364
GlyphClass: 2
Flags: W
LayerCount: 2
Fore
SplineSet
1268 802 m 1,0,1
 1249 768 1249 768 1249 639 c 2,2,-1
 1249 329 l 2,3,4
 1249 188 1249 188 1103 84 c 1,5,6
 952 -25 952 -25 733 -25 c 0,7,8
 429 -25 429 -25 248 166 c 1,9,10
 73 348 73 348 73 630 c 0,11,12
 73 930 73 930 251 1130 c 0,13,14
 450 1355 450 1355 799 1355 c 0,15,16
 1032 1355 1032 1355 1168 1265 c 1,17,-1
 1152 970 l 1,18,-1
 1144 968 l 1,19,20
 1109 1029 1109 1029 1006 1068 c 0,21,22
 908 1105 908 1105 800.5 1105 c 128,-1,23
 693 1105 693 1105 612.5 1071 c 128,-1,24
 532 1037 532 1037 476 974 c 1,25,26
 358 845 358 845 358 633 c 0,27,28
 358 448 358 448 462 336 c 0,29,30
 566 225 566 225 730 225 c 0,31,32
 911 225 911 225 974 319 c 0,33,34
 994 349 994 349 994 387 c 2,35,-1
 994 553 l 1,36,-1
 865 553 l 2,37,38
 761 553 761 553 752 535 c 1,39,-1
 749 536 l 1,40,-1
 740 797 l 1,41,42
 768 789 768 789 967 789 c 2,43,-1
 1085 789 l 2,44,45
 1195 789 1195 789 1265 804 c 1,46,-1
 1268 802 l 1,0,1
EndSplineSet
EndChar

StartChar: H
Encoding: 72 72 62
Width: 1364
GlyphClass: 2
Flags: W
LayerCount: 2
Fore
SplineSet
442 -6 m 1,0,1
 346 0 346 0 214 0 c 2,2,-1
 182 0 l 1,3,-1
 182 1335 l 1,4,5
 244 1330 244 1330 270 1330 c 2,6,-1
 311 1330 l 2,7,8
 390 1330 390 1330 442 1338 c 1,9,-1
 442 805 l 1,10,-1
 912 805 l 1,11,-1
 912 1335 l 1,12,13
 995 1330 995 1330 1073.5 1330 c 128,-1,14
 1152 1330 1152 1330 1172 1338 c 1,15,-1
 1172 -6 l 1,16,17
 1124 0 1124 0 982 0 c 2,18,-1
 912 0 l 1,19,-1
 912 565 l 1,20,-1
 442 565 l 1,21,-1
 442 -6 l 1,0,1
EndSplineSet
EndChar

StartChar: I
Encoding: 73 73 63
Width: 684
GlyphClass: 2
Flags: W
LayerCount: 2
Fore
SplineSet
203 1334 m 1,0,1
 303 1330 303 1330 324 1330 c 2,2,-1
 396 1330 l 2,3,4
 449 1330 449 1330 481 1338 c 1,5,-1
 480 0 l 1,6,-1
 203 0 l 1,7,-1
 203 1334 l 1,0,1
EndSplineSet
EndChar

StartChar: J
Encoding: 74 74 64
Width: 860
GlyphClass: 2
Flags: W
LayerCount: 2
Fore
SplineSet
448 1335 m 1,0,1
 510 1330 510 1330 538 1330 c 2,2,-1
 616 1330 l 2,3,4
 665 1330 665 1330 713 1338 c 1,5,-1
 713 442 l 2,6,7
 713 222 713 222 596 96 c 0,8,9
 485 -25 485 -25 296 -25 c 0,10,11
 166 -25 166 -25 78 27 c 0,12,13
 45 46 45 46 12 73 c 1,14,-1
 12 362 l 1,15,-1
 19 364 l 1,16,17
 61 298 61 298 117.5 256 c 128,-1,18
 174 214 174 214 258 214 c 0,19,20
 448 214 448 214 448 434 c 2,21,-1
 448 1335 l 1,0,1
EndSplineSet
EndChar

StartChar: K
Encoding: 75 75 65
Width: 1193
GlyphClass: 2
Flags: W
LayerCount: 2
Fore
SplineSet
427 -6 m 1,0,1
 358 0 358 0 251 0 c 2,2,-1
 172 0 l 1,3,-1
 172 1334 l 1,4,-1
 212 1332 l 2,5,6
 254 1330 254 1330 275 1330 c 2,7,-1
 304 1330 l 2,8,9
 392 1330 392 1330 427 1338 c 1,10,-1
 427 773 l 1,11,-1
 832 1334 l 1,12,13
 896 1330 896 1330 940 1330 c 2,14,-1
 995 1330 l 2,15,16
 1098 1330 1098 1330 1142 1338 c 1,17,-1
 756 834 l 1,18,-1
 1136 80 l 1,19,20
 1160 25 1160 25 1181 0 c 1,21,-1
 1120 0 l 2,22,23
 909 0 909 0 857 -8 c 1,24,25
 846 59 846 59 827 109 c 1,26,-1
 572 595 l 1,27,-1
 427 405 l 1,28,-1
 427 -6 l 1,0,1
EndSplineSet
EndChar

StartChar: L
Encoding: 76 76 66
Width: 855
GlyphClass: 2
Flags: W
LayerCount: 2
Fore
SplineSet
367 0 m 2,0,1
 220 0 220 0 172 -6 c 1,2,-1
 172 1336 l 1,3,4
 196 1330 196 1330 271.5 1330 c 128,-1,5
 347 1330 347 1330 447 1334 c 1,6,-1
 447 240 l 1,7,-1
 654 240 l 2,8,9
 744 240 744 240 798 246 c 1,10,11
 791 12 791 12 791 3 c 2,12,-1
 791 -7 l 1,13,14
 693 0 693 0 462 0 c 2,15,-1
 367 0 l 2,0,1
EndSplineSet
EndChar

StartChar: M
Encoding: 77 77 67
Width: 1539
GlyphClass: 2
Flags: W
LayerCount: 2
Fore
SplineSet
442 -6 m 1,0,1
 394 0 394 0 257 0 c 2,2,-1
 177 0 l 1,3,-1
 177 1334 l 1,4,5
 241 1330 241 1330 318 1330 c 128,-1,6
 395 1330 395 1330 427 1338 c 1,7,-1
 763 767 l 1,8,-1
 1086 1338 l 1,9,10
 1118 1330 1118 1330 1208 1330 c 128,-1,11
 1298 1330 1298 1330 1362 1334 c 1,12,-1
 1362 0 l 1,13,-1
 1282 0 l 2,14,15
 1145 0 1145 0 1097 -6 c 1,16,-1
 1097 890 l 1,17,-1
 770 305 l 1,18,-1
 442 843 l 1,19,-1
 442 -6 l 1,0,1
EndSplineSet
EndChar

StartChar: N
Encoding: 78 78 68
Width: 1359
GlyphClass: 2
Flags: W
LayerCount: 2
Fore
SplineSet
181 0 m 1,0,1
 187 34 187 34 187 74 c 2,2,-1
 187 1330 l 1,3,-1
 387 1330 l 1,4,-1
 917 496 l 1,5,-1
 917 1262 l 2,6,7
 917 1317 917 1317 907 1330 c 1,8,-1
 1177 1330 l 1,9,10
 1172 1290 1172 1290 1172 1242 c 2,11,-1
 1172 0 l 1,12,-1
 964 0 l 1,13,-1
 442 801 l 1,14,-1
 442 0 l 1,15,-1
 181 0 l 1,0,1
EndSplineSet
EndChar

StartChar: O
Encoding: 79 79 69
Width: 1535
GlyphClass: 2
Flags: W
LayerCount: 2
Fore
SplineSet
137.5 367 m 128,-1,1
 85 489 85 489 85 634.5 c 128,-1,2
 85 780 85 780 134 910 c 128,-1,3
 183 1040 183 1040 274 1139 c 128,-1,4
 365 1238 365 1238 494 1296.5 c 128,-1,5
 623 1355 623 1355 783 1355 c 0,6,7
 1059 1355 1059 1355 1248 1181 c 0,8,9
 1450 995 1450 995 1450 679 c 0,10,11
 1450 373 1450 373 1242 170 c 0,12,13
 1114 45 1114 45 937 -2 c 0,14,15
 850 -25 850 -25 733.5 -25 c 128,-1,16
 617 -25 617 -25 494.5 23 c 128,-1,17
 372 71 372 71 281 158 c 128,-1,0
 190 245 190 245 137.5 367 c 128,-1,1
363 648 m 0,18,19
 363 555 363 555 394 477 c 128,-1,20
 425 399 425 399 480 343 c 0,21,22
 597 225 597 225 781 225 c 0,23,24
 956 225 956 225 1062 338 c 1,25,26
 1170 455 1170 455 1170 657 c 0,27,28
 1170 847 1170 847 1067 974 c 0,29,30
 956 1110 956 1110 763 1110 c 0,31,32
 576 1110 576 1110 466 972 c 0,33,34
 363 843 363 843 363 648 c 0,18,19
EndSplineSet
EndChar

StartChar: P
Encoding: 80 80 70
Width: 1026
GlyphClass: 2
Flags: W
LayerCount: 2
Fore
SplineSet
153 1337 m 1,0,1
 292 1355 292 1355 438 1355 c 0,2,3
 710 1355 710 1355 851.5 1227.5 c 128,-1,4
 993 1100 993 1100 993 846 c 0,5,6
 993 619 993 619 838 487 c 0,7,8
 693 363 693 363 465 363 c 0,9,10
 439 363 439 363 408 366 c 1,11,-1
 408 0 l 1,12,-1
 153 0 l 1,13,-1
 153 1337 l 1,0,1
468 1114 m 0,14,15
 438 1114 438 1114 408 1112 c 1,16,-1
 408 586 l 1,17,18
 440 582 440 582 486 582 c 128,-1,19
 532 582 532 582 582 601.5 c 128,-1,20
 632 621 632 621 666 656 c 0,21,22
 737 729 737 729 737 848 c 0,23,24
 737 1114 737 1114 468 1114 c 0,14,15
EndSplineSet
EndChar

StartChar: Q
Encoding: 81 81 71
Width: 1535
GlyphClass: 2
Flags: W
LayerCount: 2
Fore
SplineSet
918 -6 m 1,0,1
 834 -25 834 -25 724 -25 c 128,-1,2
 614 -25 614 -25 491.5 23 c 128,-1,3
 369 71 369 71 278 158 c 0,4,5
 82 345 82 345 82 637 c 0,6,7
 82 933 82 933 272 1139 c 0,8,9
 472 1355 472 1355 782 1355 c 0,10,11
 1064 1355 1064 1355 1250 1177 c 1,12,13
 1447 987 1447 987 1447 679 c 0,14,15
 1447 432 1447 432 1307 247 c 0,16,17
 1263 189 1263 189 1209 143 c 1,18,19
 1245 133 1245 133 1296 110 c 0,20,21
 1405 59 1405 59 1502 57 c 1,22,-1
 1522 57 l 2,23,24
 1574 57 1574 57 1591 71 c 1,25,-1
 1595 68 l 1,26,-1
 1519 -123 l 1,27,28
 1505 -166 1505 -166 1466 -166 c 0,29,30
 1409 -166 1409 -166 1350 -142 c 128,-1,31
 1291 -118 1291 -118 1244.5 -97 c 128,-1,32
 1198 -76 1198 -76 1156 -60 c 128,-1,33
 1114 -44 1114 -44 1076 -33 c 0,34,35
 1011 -15 1011 -15 918 -6 c 1,0,1
350 648 m 0,36,37
 350 555 350 555 382.5 475.5 c 128,-1,38
 415 396 415 396 472 338 c 0,39,40
 594 215 594 215 778 215 c 0,41,42
 954 215 954 215 1065 334 c 0,43,44
 1180 456 1180 456 1180 657 c 0,45,46
 1180 847 1180 847 1072 974 c 0,47,48
 955 1110 955 1110 762 1110 c 0,49,50
 574 1110 574 1110 458 972 c 0,51,52
 350 842 350 842 350 648 c 0,36,37
EndSplineSet
EndChar

StartChar: R
Encoding: 82 82 72
Width: 1193
GlyphClass: 2
Flags: W
LayerCount: 2
Fore
SplineSet
602 517 m 1,0,1
 572 515 572 515 538 515 c 128,-1,2
 504 515 504 515 437 520 c 1,3,-1
 437 0 l 1,4,-1
 172 0 l 1,5,-1
 172 1337 l 1,6,7
 312 1355 312 1355 516 1355 c 0,8,9
 794 1355 794 1355 930.5 1252.5 c 128,-1,10
 1067 1150 1067 1150 1067 936 c 0,11,12
 1067 770 1067 770 942 652 c 0,13,14
 901 614 901 614 848 586 c 1,15,-1
 1052 156 l 1,16,17
 1112 23 1112 23 1144 -2 c 1,18,-1
 1139 -7 l 1,19,20
 1042 9 1042 9 834 -8 c 1,21,-1
 602 517 l 1,0,1
535 1119 m 0,22,23
 484 1119 484 1119 437 1114 c 1,24,-1
 437 732 l 1,25,26
 486 725 486 725 552 725 c 128,-1,27
 618 725 618 725 663 736.5 c 128,-1,28
 708 748 708 748 741 772 c 0,29,30
 812 825 812 825 812 931 c 128,-1,31
 812 1037 812 1037 738 1080 c 0,32,33
 669 1119 669 1119 535 1119 c 0,22,23
EndSplineSet
EndChar

StartChar: S
Encoding: 83 83 73
Width: 1193
GlyphClass: 2
Flags: W
LayerCount: 2
Fore
SplineSet
975 1256 m 1,0,-1
 956 962 l 1,1,-1
 949 960 l 1,2,3
 875 1071 875 1071 697 1104 c 0,4,5
 641 1115 641 1115 589.5 1115 c 128,-1,6
 538 1115 538 1115 501.5 1106 c 128,-1,7
 465 1097 465 1097 439 1080 c 0,8,9
 384 1044 384 1044 384 986 c 0,10,11
 384 910 384 910 432 872 c 0,12,13
 492 826 492 826 631 807.5 c 128,-1,14
 770 789 770 789 854 757 c 128,-1,15
 938 725 938 725 992 676 c 0,16,17
 1094 584 1094 584 1094 416 c 0,18,19
 1094 196 1094 196 928 77 c 0,20,21
 786 -25 786 -25 570 -25 c 0,22,23
 396 -25 396 -25 226 41 c 0,24,25
 170 63 170 63 128 92 c 1,26,-1
 139 426 l 1,27,-1
 143 429 l 1,28,29
 267 215 267 215 550 215 c 0,30,31
 751 215 751 215 816 312 c 0,32,33
 838 345 838 345 838 385.5 c 128,-1,34
 838 426 838 426 825 452.5 c 128,-1,35
 812 479 812 479 782 498 c 0,36,37
 724 536 724 536 587 549 c 128,-1,38
 450 562 450 562 363 598 c 128,-1,39
 276 634 276 634 224 687 c 0,40,41
 130 783 130 783 130 955 c 0,42,43
 130 1133 130 1133 255 1243 c 0,44,45
 382 1355 382 1355 597.5 1355 c 128,-1,46
 813 1355 813 1355 975 1256 c 1,0,-1
EndSplineSet
EndChar

StartChar: T
Encoding: 84 84 74
Width: 1026
GlyphClass: 2
Flags: W
LayerCount: 2
Fore
SplineSet
652 -6 m 1,0,1
 604 0 604 0 405 0 c 2,2,-1
 373 0 l 1,3,-1
 373 1106 l 1,4,-1
 175 1106 l 2,5,6
 87 1106 87 1106 71 1097 c 128,-1,7
 55 1088 55 1088 46 1081 c 1,8,-1
 43 1082 l 1,9,-1
 43 1338 l 1,10,-1
 46 1341 l 1,11,12
 79 1330 79 1330 224 1330 c 2,13,-1
 851 1330 l 2,14,15
 939 1330 939 1330 955 1339 c 128,-1,16
 971 1348 971 1348 980 1355 c 1,17,-1
 983 1354 l 1,18,-1
 983 1098 l 1,19,-1
 980 1095 l 1,20,21
 947 1106 947 1106 802 1106 c 2,22,-1
 652 1106 l 1,23,-1
 652 -6 l 1,0,1
EndSplineSet
EndChar

StartChar: U
Encoding: 85 85 75
Width: 1368
GlyphClass: 2
Flags: W
LayerCount: 2
Fore
SplineSet
930 1335 m 1,0,1
 992 1330 992 1330 1033 1330 c 2,2,-1
 1116 1330 l 2,3,4
 1158 1330 1158 1330 1204 1338 c 1,5,-1
 1204 511 l 2,6,7
 1204 265 1204 265 1055 116 c 0,8,9
 914 -25 914 -25 701 -25 c 0,10,11
 468 -25 468 -25 324 96 c 0,12,13
 163 232 163 232 163 488 c 2,14,-1
 163 1335 l 1,15,16
 246 1330 246 1330 319.5 1330 c 128,-1,17
 393 1330 393 1330 441 1338 c 1,18,-1
 441 475 l 2,19,20
 441 349 441 349 518 279 c 1,21,22
 590 215 590 215 698 215 c 0,23,24
 858 215 858 215 911 379 c 0,25,26
 930 438 930 438 930 525 c 2,27,-1
 930 1335 l 1,0,1
EndSplineSet
EndChar

StartChar: V
Encoding: 86 86 76
Width: 1193
GlyphClass: 2
Flags: W
LayerCount: 2
Fore
SplineSet
741 -4 m 1,0,1
 709 0 709 0 636 0 c 2,2,-1
 526 0 l 2,3,4
 499 0 499 0 477 -2 c 1,5,-1
 476 0 l 1,6,7
 480 7 480 7 480 16 c 128,-1,8
 480 25 480 25 478.5 35 c 128,-1,9
 477 45 477 45 470 71 c 128,-1,10
 463 97 463 97 448 146 c 2,11,-1
 406 280 l 1,12,-1
 34 1334 l 1,13,14
 96 1330 96 1330 192 1330 c 128,-1,15
 288 1330 288 1330 315 1338 c 1,16,-1
 616 429 l 1,17,-1
 880 1334 l 1,18,19
 940 1330 940 1330 1028 1330 c 0,20,21
 1148 1330 1148 1330 1168 1338 c 1,22,-1
 803 283 l 1,23,24
 803 283 803 283 768 166 c 0,25,26
 739 66 739 66 739 36.5 c 128,-1,27
 739 7 739 7 743 -1 c 1,28,-1
 741 -4 l 1,0,1
EndSplineSet
EndChar

StartChar: W
Encoding: 87 87 77
Width: 1710
GlyphClass: 2
Flags: W
LayerCount: 2
Fore
SplineSet
648 -4 m 1,0,1
 618 0 618 0 546 0 c 2,2,-1
 430 0 l 2,3,4
 396 0 396 0 374 -2 c 1,5,-1
 373 0 l 1,6,7
 377 7 377 7 377 16 c 128,-1,8
 377 25 377 25 375.5 35 c 128,-1,9
 374 45 374 45 367.5 71 c 128,-1,10
 361 97 361 97 348 146 c 2,11,-1
 8 1334 l 1,12,13
 72 1330 72 1330 163 1330 c 128,-1,14
 254 1330 254 1330 281 1338 c 1,15,-1
 517 433 l 1,16,-1
 747 1334 l 1,17,18
 762 1333 762 1333 774 1332 c 1,19,-1
 796 1332 l 1,20,21
 829 1330 829 1330 879 1330 c 128,-1,22
 929 1330 929 1330 982 1338 c 1,23,-1
 1216 433 l 1,24,-1
 1417 1334 l 1,25,26
 1477 1330 1477 1330 1574 1330 c 128,-1,27
 1671 1330 1671 1330 1692 1338 c 1,28,-1
 1404 283 l 1,29,30
 1349 101 1349 101 1346 67 c 128,-1,31
 1343 33 1343 33 1343 20 c 128,-1,32
 1343 7 1343 7 1347 -1 c 1,33,-1
 1345 -4 l 1,34,35
 1313 0 1313 0 1244 0 c 0,36,37
 1184 0 1184 0 1135 0 c 128,-1,38
 1086 0 1086 0 1064 -2 c 1,39,-1
 1063 0 l 1,40,41
 1067 7 1067 7 1067 16 c 128,-1,42
 1067 25 1067 25 1066 34 c 128,-1,43
 1065 43 1065 43 1060.5 68.5 c 128,-1,44
 1056 94 1056 94 1046 144 c 2,45,-1
 1019 280 l 1,46,-1
 855 903 l 1,47,-1
 699 283 l 2,48,49
 651 92 651 92 649 63 c 0,50,51
 645 8 645 8 650 -1 c 1,52,-1
 648 -4 l 1,0,1
EndSplineSet
EndChar

StartChar: X
Encoding: 88 88 78
Width: 1193
GlyphClass: 2
Flags: W
LayerCount: 2
Fore
SplineSet
779 1233 m 1,0,1
 800 1277 800 1277 800 1298.5 c 128,-1,2
 800 1320 800 1320 796 1330 c 1,3,-1
 1156 1330 l 1,4,5
 1145 1318 1145 1318 1128 1301.5 c 128,-1,6
 1111 1285 1111 1285 1090 1262 c 0,7,8
 1040 1206 1040 1206 998 1132 c 1,9,-1
 757 692 l 1,10,-1
 982 269 l 1,11,-1
 1009 214 l 1,12,13
 1085 56 1085 56 1138 0 c 1,14,-1
 812 0 l 1,15,16
 808 35 808 35 778 94 c 2,17,-1
 582 470 l 1,18,19
 375 51 375 51 370 38 c 1,20,21
 365 21 365 21 362 0 c 1,22,-1
 36 0 l 1,23,24
 73 38 73 38 112 107 c 2,25,-1
 232 320 l 1,26,-1
 445 681 l 1,27,-1
 165 1208 l 2,28,29
 120 1293 120 1293 86 1330 c 1,30,-1
 422 1330 l 1,31,32
 418 1320 418 1320 418 1308 c 0,33,34
 418 1281 418 1281 443 1233 c 2,35,-1
 610 899 l 1,36,-1
 779 1233 l 1,0,1
EndSplineSet
EndChar

StartChar: Y
Encoding: 89 89 79
Width: 1193
GlyphClass: 2
Flags: W
LayerCount: 2
Fore
SplineSet
451 0 m 1,0,1
 464 39 464 39 464 182 c 2,2,-1
 464 460 l 1,3,4
 291 841 291 841 243 935.5 c 128,-1,5
 195 1030 195 1030 162 1085 c 0,6,7
 58 1261 58 1261 36.5 1287 c 128,-1,8
 15 1313 15 1313 -7 1330 c 1,9,-1
 338 1330 l 1,10,11
 349 1310 349 1310 368 1271 c 2,12,-1
 610 760 l 1,13,14
 627 802 627 802 650 854 c 1,15,16
 868 1323 868 1323 871 1330 c 1,17,-1
 1201 1330 l 1,18,19
 1150 1289 1150 1289 1076 1158 c 0,20,21
 1053 1119 1053 1119 1030 1069 c 2,22,-1
 804 598 l 1,23,24
 766 513 766 513 739 445 c 1,25,-1
 739 158 l 2,26,27
 739 58 739 58 751 0 c 1,28,-1
 451 0 l 1,0,1
EndSplineSet
EndChar

StartChar: Z
Encoding: 90 90 80
Width: 1189
GlyphClass: 2
Flags: W
LayerCount: 2
Fore
SplineSet
143 1240 m 2,0,1
 143 1273 143 1273 140 1330 c 1,2,-1
 1088 1330 l 1,3,-1
 506 240 l 1,4,-1
 869 240 l 2,5,6
 1011 240 1011 240 1036.5 248.5 c 128,-1,7
 1062 257 1062 257 1077 264 c 1,8,-1
 1077 -15 l 1,9,10
 1034 -11 1034 -11 1006 -8 c 128,-1,11
 978 -5 978 -5 947 -3 c 0,12,13
 900 0 900 0 765 0 c 2,14,-1
 92 0 l 1,15,-1
 694 1090 l 1,16,-1
 379 1090 l 2,17,18
 184 1090 184 1090 131 1069 c 1,19,20
 143 1119 143 1119 143 1210 c 2,21,-1
 143 1240 l 2,0,1
EndSplineSet
EndChar

StartChar: bracketleft
Encoding: 91 91 81
Width: 929
GlyphClass: 2
Flags: W
LayerCount: 2
Fore
SplineSet
195 -110 m 1,0,1
 199 -46 199 -46 199 -34 c 2,2,-1
 199 1190 l 2,3,4
 199 1330 199 1330 194 1430 c 1,5,6
 358 1430 358 1430 514 1430 c 128,-1,7
 670 1430 670 1430 708 1435 c 1,8,-1
 705 1188 l 1,9,10
 681 1194 681 1194 583 1194 c 2,11,-1
 454 1194 l 1,12,-1
 463 126 l 1,13,-1
 530 126 l 2,14,15
 681 126 681 126 705 132 c 1,16,-1
 708 -115 l 1,17,18
 633 -110 633 -110 562 -110 c 2,19,-1
 195 -110 l 1,0,1
EndSplineSet
EndChar

StartChar: backslash
Encoding: 92 92 82
Width: 855
GlyphClass: 2
Flags: W
LayerCount: 2
Fore
SplineSet
256 1530 m 1,0,-1
 0 1530 l 1,1,-1
 599 -170 l 1,2,-1
 855 -170 l 1,3,-1
 256 1530 l 1,0,-1
EndSplineSet
EndChar

StartChar: bracketright
Encoding: 93 93 83
Width: 929
GlyphClass: 2
Flags: W
LayerCount: 2
Fore
SplineSet
707 -110 m 1,0,1
 703 -46 703 -46 703 -34 c 2,2,-1
 703 1190 l 2,3,4
 703 1330 703 1330 708 1430 c 1,5,6
 544 1430 544 1430 388 1430 c 128,-1,7
 232 1430 232 1430 194 1435 c 1,8,-1
 197 1188 l 1,9,10
 221 1194 221 1194 319 1194 c 2,11,-1
 448 1194 l 1,12,-1
 439 126 l 1,13,-1
 372 126 l 2,14,15
 221 126 221 126 197 132 c 1,16,-1
 194 -115 l 1,17,18
 269 -110 269 -110 340 -110 c 2,19,-1
 707 -110 l 1,0,1
EndSplineSet
EndChar

StartChar: asciicircum
Encoding: 94 94 84
Width: 1193
GlyphClass: 2
Flags: W
LayerCount: 2
Fore
SplineSet
480 1415 m 1,0,-1
 694 1415 l 1,1,-1
 1111 510 l 1,2,-1
 829 510 l 1,3,-1
 589 1121 l 1,4,-1
 362 510 l 1,5,-1
 81 510 l 1,6,-1
 480 1415 l 1,0,-1
EndSplineSet
EndChar

StartChar: underscore
Encoding: 95 95 85
Width: 1353
GlyphClass: 2
Flags: W
LayerCount: 2
Fore
SplineSet
1384 -174 m 1,0,-1
 1384 -334 l 1,1,-1
 -29 -334 l 1,2,-1
 -29 -174 l 1,3,-1
 1384 -174 l 1,0,-1
EndSplineSet
EndChar

StartChar: grave
Encoding: 96 96 86
Width: 803
GlyphClass: 2
Flags: W
LayerCount: 2
Fore
SplineSet
132 1520 m 1,0,1
 302 1503 302 1503 452 1503 c 1,2,-1
 621 1190 l 1,3,-1
 395 1190 l 1,4,-1
 133 1513 l 1,5,-1
 132 1520 l 1,0,1
EndSplineSet
EndChar

StartChar: a
Encoding: 97 97 87
Width: 1193
GlyphClass: 2
Flags: W
LayerCount: 2
Fore
SplineSet
837 62 m 1,0,1
 695 -15 695 -15 580 -15 c 128,-1,2
 465 -15 465 -15 383 6.5 c 128,-1,3
 301 28 301 28 244 70 c 0,4,5
 128 155 128 155 128 316 c 0,6,7
 128 460 128 460 270 556 c 0,8,9
 424 660 424 660 688 660 c 1,10,-1
 728 659 l 2,11,12
 740 658 740 658 755 657.5 c 128,-1,13
 770 657 770 657 782 655 c 1,14,15
 774 815 774 815 644 842 c 0,16,17
 601 851 601 851 552.5 851 c 128,-1,18
 504 851 504 851 457.5 842.5 c 128,-1,19
 411 834 411 834 367 820 c 0,20,21
 270 789 270 789 228 749 c 1,22,-1
 225 751 l 1,23,-1
 195 972 l 1,24,25
 372 1065 372 1065 582 1065 c 0,26,27
 908 1065 908 1065 999 830 c 0,28,29
 1028 755 1028 755 1028 661 c 2,30,-1
 1028 299 l 2,31,32
 1028 183 1028 183 1110 141 c 1,33,-1
 929 -25 l 1,34,35
 872 5 872 5 837 62 c 1,0,1
783 475 m 1,36,37
 756 480 756 480 727 480 c 2,38,-1
 687 480 l 2,39,40
 466 480 466 480 406 382 c 0,41,42
 388 353 388 353 388 321 c 128,-1,43
 388 289 388 289 399.5 264.5 c 128,-1,44
 411 240 411 240 438 224 c 0,45,46
 490 194 490 194 592.5 194 c 128,-1,47
 695 194 695 194 784 243 c 1,48,49
 783 254 783 254 783 266 c 2,50,-1
 783 475 l 1,36,37
EndSplineSet
EndChar

StartChar: b
Encoding: 98 98 88
Width: 1187
GlyphClass: 2
Flags: W
LayerCount: 2
Fore
SplineSet
397 1007 m 1,0,1
 509 1065 509 1065 626 1065 c 128,-1,2
 743 1065 743 1065 827.5 1028.5 c 128,-1,3
 912 992 912 992 976 924 c 1,4,5
 1115 773 1115 773 1115 542 c 0,6,7
 1115 289 1115 289 964 134 c 0,8,9
 819 -15 819 -15 603 -15 c 0,10,11
 413 -15 413 -15 290 84 c 0,12,13
 152 196 152 196 152 393 c 2,14,-1
 152 1488 l 1,15,-1
 397 1488 l 1,16,-1
 397 1007 l 1,0,1
397 396 m 2,17,18
 397 220 397 220 616 220 c 0,19,20
 723 220 723 220 796 314 c 0,21,22
 870 410 870 410 870 553 c 0,23,24
 870 697 870 697 792 770 c 0,25,26
 722 835 722 835 604 835 c 0,27,28
 533 835 533 835 447 787 c 0,29,30
 420 772 420 772 397 754 c 1,31,-1
 397 396 l 2,17,18
EndSplineSet
EndChar

StartChar: c
Encoding: 99 99 89
Width: 1026
GlyphClass: 2
Flags: W
LayerCount: 2
Fore
SplineSet
964 97 m 1,0,1
 852 -15 852 -15 613 -15 c 0,2,3
 381 -15 381 -15 234 126 c 0,4,5
 85 269 85 269 85 506 c 0,6,7
 85 747 85 747 232 902 c 0,8,9
 388 1065 388 1065 649 1065 c 0,10,11
 834 1065 834 1065 959 984 c 1,12,-1
 919 728 l 1,13,-1
 912 729 l 1,14,15
 864 787 864 787 811 805 c 0,16,17
 725 835 725 835 639 835 c 128,-1,18
 553 835 553 835 504 813 c 128,-1,19
 455 791 455 791 420 752 c 0,20,21
 350 672 350 672 350 540 c 0,22,23
 350 306 350 306 512 234 c 0,24,25
 568 210 568 210 630.5 210 c 128,-1,26
 693 210 693 210 739.5 221 c 128,-1,27
 786 232 786 232 824 251 c 0,28,29
 905 291 905 291 934 344 c 1,30,-1
 941 341 l 1,31,-1
 964 97 l 1,0,1
EndSplineSet
EndChar

StartChar: d
Encoding: 100 100 90
Width: 1197
GlyphClass: 2
Flags: W
LayerCount: 2
Fore
SplineSet
864 56 m 1,0,1
 737 -15 737 -15 610 -15 c 128,-1,2
 483 -15 483 -15 388 25 c 128,-1,3
 293 65 293 65 226 135 c 0,4,5
 88 279 88 279 88 509 c 0,6,7
 88 747 88 747 248 905 c 0,8,9
 409 1065 409 1065 660 1065 c 0,10,11
 737 1065 737 1065 811 1045 c 1,12,-1
 811 1490 l 1,13,-1
 1056 1490 l 1,14,-1
 1056 421 l 2,15,16
 1056 288 1056 288 1068.5 247 c 128,-1,17
 1081 206 1081 206 1096.5 187 c 128,-1,18
 1112 168 1112 168 1136 151 c 1,19,-1
 948 -15 l 1,20,21
 896 13 896 13 864 56 c 1,0,1
657 215 m 0,22,23
 741 215 741 215 811 247 c 1,24,-1
 811 801 l 1,25,26
 741 830 741 830 659 830 c 128,-1,27
 577 830 577 830 518.5 808 c 128,-1,28
 460 786 460 786 418 747 c 0,29,30
 330 665 330 665 330 534 c 0,31,32
 330 391 330 391 410 306 c 0,33,34
 496 215 496 215 657 215 c 0,22,23
EndSplineSet
EndChar

StartChar: e
Encoding: 101 101 91
Width: 1197
GlyphClass: 2
Flags: W
LayerCount: 2
Fore
SplineSet
97 514 m 0,0,1
 97 631 97 631 137 731 c 128,-1,2
 177 831 177 831 250 906 c 0,3,4
 406 1065 406 1065 658 1065 c 0,5,6
 871 1065 871 1065 1000 924 c 1,7,8
 1127 788 1127 788 1127 582 c 0,9,10
 1127 503 1127 503 1115 474 c 1,11,12
 1015 446 1015 446 708 446 c 2,13,-1
 356 446 l 1,14,15
 382 339 382 339 477 279.5 c 128,-1,16
 572 220 572 220 724 220 c 0,17,18
 883 220 883 220 997 277 c 0,19,20
 1027 292 1027 292 1042 305 c 1,21,22
 1040 263 1040 263 1037 219 c 2,23,-1
 1026 63 l 1,24,25
 950 11 950 11 780 -9 c 0,26,27
 730 -15 730 -15 684 -15 c 0,28,29
 430 -15 430 -15 264 133 c 0,30,31
 97 282 97 282 97 514 c 0,0,1
861 640 m 1,32,33
 820 855 820 855 627 855 c 0,34,35
 475 855 475 855 396 724 c 0,36,37
 372 684 372 684 359 636 c 1,38,39
 383 635 383 635 418 634 c 1,40,-1
 492 634 l 1,41,42
 529 633 529 633 563 633 c 2,43,-1
 620 633 l 2,44,45
 671 633 671 633 720 634 c 2,46,-1
 802 637 l 2,47,48
 835 638 835 638 861 640 c 1,32,33
EndSplineSet
EndChar

StartChar: f
Encoding: 102 102 92
Width: 684
GlyphClass: 2
Flags: W
LayerCount: 2
Fore
SplineSet
646 930 m 1,0,1
 638 901 638 901 638 784 c 2,2,-1
 638 696 l 1,3,-1
 397 696 l 1,4,-1
 397 0 l 1,5,-1
 152 0 l 1,6,-1
 152 696 l 1,7,-1
 5 696 l 1,8,9
 6 762 6 762 7 813 c 2,10,-1
 9 920 l 1,11,-1
 9 930 l 1,12,-1
 152 930 l 1,13,-1
 152 992 l 2,14,15
 152 1232 152 1232 264 1378 c 0,16,17
 381 1529 381 1529 586 1529 c 0,18,19
 673 1529 673 1529 701 1517 c 1,20,-1
 702 1266 l 1,21,-1
 700 1261 l 1,22,23
 662 1299 662 1299 603.5 1299 c 128,-1,24
 545 1299 545 1299 509 1279.5 c 128,-1,25
 473 1260 473 1260 448 1224 c 0,26,27
 397 1152 397 1152 397 1027 c 2,28,-1
 397 930 l 1,29,-1
 646 930 l 1,0,1
EndSplineSet
EndChar

StartChar: g
Encoding: 103 103 93
Width: 1193
GlyphClass: 2
Flags: W
LayerCount: 2
Fore
SplineSet
416 278 m 1,0,1
 379 229 379 229 379 200.5 c 128,-1,2
 379 172 379 172 388 156.5 c 128,-1,3
 397 141 397 141 427 127 c 0,4,5
 493 96 493 96 644 72.5 c 128,-1,6
 795 49 795 49 880.5 14 c 128,-1,7
 966 -21 966 -21 1019 -72 c 0,8,9
 1118 -169 1118 -169 1118 -347 c 128,-1,10
 1118 -525 1118 -525 993 -620.5 c 128,-1,11
 868 -716 868 -716 622 -716 c 0,12,13
 374 -716 374 -716 222 -608 c 256,14,15
 70 -500 70 -500 66 -321 c 1,16,17
 60 -113 60 -113 229 -20 c 1,18,19
 183 18 183 18 167.5 69.5 c 128,-1,20
 152 121 152 121 152 187 c 0,21,22
 152 298 152 298 249 375 c 1,23,24
 136 482 136 482 136 641 c 0,25,26
 136 819 136 819 264 939 c 0,27,28
 399 1065 399 1065 614 1065 c 0,29,30
 727 1065 727 1065 826 1023 c 1,31,32
 956 1078 956 1078 1017 1119.5 c 128,-1,33
 1078 1161 1078 1161 1095 1180 c 1,34,-1
 1101 1179 l 1,35,36
 1110 1155 1110 1155 1122 1111 c 2,37,-1
 1140 1039 l 1,38,39
 1164 950 1164 950 1169 917 c 1,40,41
 1125 869 1125 869 1014 849 c 1,42,43
 1057 766 1057 766 1057 673 c 128,-1,44
 1057 580 1057 580 1025 504.5 c 128,-1,45
 993 429 993 429 934 372 c 1,46,47
 803 249 803 249 600 249 c 0,48,49
 501 249 501 249 416 278 c 1,0,1
390 728 m 0,50,51
 376 692 376 692 376 655 c 128,-1,52
 376 618 376 618 391.5 584 c 128,-1,53
 407 550 407 550 437 523 c 0,54,55
 504 463 504 463 612 463 c 0,56,57
 694 463 694 463 754 518 c 1,58,59
 817 578 817 578 817 662.5 c 128,-1,60
 817 747 817 747 760 799 c 128,-1,61
 703 851 703 851 603 851 c 0,62,63
 438 851 438 851 390 728 c 0,50,51
635 -504 m 0,64,65
 881 -504 881 -504 881 -332 c 0,66,67
 881 -250 881 -250 801 -200 c 0,68,69
 711 -143 711 -143 492 -111 c 1,70,-1
 440 -102 l 1,71,72
 374 -137 374 -137 343 -192 c 128,-1,73
 312 -247 312 -247 312.5 -296.5 c 128,-1,74
 313 -346 313 -346 336 -382 c 128,-1,75
 359 -418 359 -418 400 -445 c 0,76,77
 491 -504 491 -504 635 -504 c 0,64,65
EndSplineSet
EndChar

StartChar: h
Encoding: 104 104 94
Width: 1193
GlyphClass: 2
Flags: W
LayerCount: 2
Fore
SplineSet
418 112 m 2,0,1
 418 26 418 26 422 0 c 1,2,-1
 173 0 l 1,3,-1
 173 1430 l 1,4,-1
 418 1430 l 1,5,-1
 418 967 l 1,6,7
 547 1065 547 1065 684 1065 c 0,8,9
 852 1065 852 1065 954 954 c 1,10,11
 1054 843 1054 843 1054 660 c 2,12,-1
 1054 262 l 2,13,14
 1054 93 1054 93 1059 59 c 128,-1,15
 1064 25 1064 25 1072.5 15 c 128,-1,16
 1081 5 1081 5 1087 -3 c 1,17,-1
 1085 -7 l 1,18,19
 1004 0 1004 0 967 0 c 2,20,-1
 896 0 l 2,21,22
 863 0 863 0 809 -3 c 1,23,-1
 809 576 l 2,24,25
 809 714 809 714 748 780 c 0,26,27
 702 830 702 830 623 830 c 0,28,29
 506 830 506 830 418 695 c 1,30,-1
 418 112 l 2,0,1
EndSplineSet
EndChar

StartChar: i
Encoding: 105 105 95
Width: 513
GlyphClass: 2
Flags: W
LayerCount: 2
Fore
SplineSet
115 1343 m 1,0,1
 195 1468 195 1468 282 1563 c 1,2,-1
 497 1394 l 1,3,4
 454 1341 454 1341 417 1290 c 2,5,6
 417 1290 417 1290 340 1181 c 1,7,-1
 115 1343 l 1,0,1
378 112 m 2,8,9
 378 26 378 26 382 0 c 1,10,-1
 128 0 l 1,11,-1
 128 1045 l 1,12,-1
 378 1045 l 1,13,-1
 378 112 l 2,8,9
EndSplineSet
EndChar

StartChar: j
Encoding: 106 106 96
Width: 513
GlyphClass: 2
Flags: W
LayerCount: 2
Fore
SplineSet
95 1336 m 1,0,1
 160 1440 160 1440 244 1532 c 1,2,-1
 435 1381 l 1,3,4
 385 1317 385 1317 367 1293 c 2,5,-1
 332 1244 l 2,6,7
 315 1221 315 1221 296 1192 c 1,8,-1
 95 1336 l 1,0,1
-16 -155 m 0,9,10
 132 -155 132 -155 132 65 c 2,11,-1
 132 1045 l 1,12,-1
 375 1045 l 1,13,-1
 375 137 l 2,14,15
 375 -283 375 -283 136 -360 c 0,16,17
 58 -385 58 -385 -41 -385 c 1,18,-1
 -145 -122 l 1,19,-1
 -143 -117 l 1,20,21
 -86 -155 -86 -155 -16 -155 c 0,9,10
EndSplineSet
EndChar

StartChar: k
Encoding: 107 107 97
Width: 1193
GlyphClass: 2
Flags: W
LayerCount: 2
Fore
SplineSet
407 132 m 2,0,1
 407 46 407 46 414 0 c 1,2,-1
 162 0 l 1,3,-1
 162 1430 l 1,4,-1
 407 1430 l 1,5,-1
 407 554 l 1,6,-1
 864 1045 l 1,7,-1
 1161 1045 l 1,8,-1
 767 630 l 1,9,-1
 992 323 l 1,10,11
 1065 207 1065 207 1102 153 c 1,12,-1
 1168 60 l 1,13,14
 1198 21 1198 21 1218 0 c 1,15,-1
 1060 0 l 2,16,17
 972 0 972 0 909 -15 c 1,18,-1
 597 441 l 1,19,-1
 407 239 l 1,20,-1
 407 132 l 2,0,1
EndSplineSet
EndChar

StartChar: l
Encoding: 108 108 98
Width: 513
GlyphClass: 2
Flags: W
LayerCount: 2
Fore
SplineSet
379 112 m 2,0,1
 379 26 379 26 383 0 c 1,2,-1
 129 0 l 1,3,-1
 129 1490 l 1,4,-1
 379 1490 l 1,5,-1
 379 112 l 2,0,1
EndSplineSet
EndChar

StartChar: m
Encoding: 109 109 99
Width: 1710
GlyphClass: 2
Flags: W
LayerCount: 2
Fore
SplineSet
417 289 m 2,0,1
 417 64 417 64 425 0 c 1,2,-1
 164 0 l 1,3,-1
 164 1045 l 1,4,-1
 417 1045 l 1,5,-1
 417 955 l 1,6,7
 554 1065 554 1065 698 1065 c 0,8,9
 868 1065 868 1065 945 918 c 1,10,11
 1022 997 1022 997 1073 1022 c 0,12,13
 1158 1065 1158 1065 1243.5 1065 c 128,-1,14
 1329 1065 1329 1065 1389 1036 c 128,-1,15
 1449 1007 1449 1007 1488 954 c 0,16,17
 1567 847 1567 847 1567 660 c 2,18,-1
 1567 262 l 2,19,20
 1567 93 1567 93 1572 59 c 128,-1,21
 1577 25 1577 25 1585.5 15 c 128,-1,22
 1594 5 1594 5 1600 -3 c 1,23,-1
 1598 -7 l 1,24,25
 1518 0 1518 0 1480 0 c 2,26,-1
 1405 0 l 2,27,28
 1368 0 1368 0 1314 -3 c 1,29,-1
 1314 538 l 2,30,31
 1314 772 1314 772 1242 816 c 0,32,33
 1218 830 1218 830 1185.5 830 c 128,-1,34
 1153 830 1153 830 1128 822.5 c 128,-1,35
 1103 815 1103 815 1081 798 c 0,36,37
 1044 771 1044 771 997 692 c 1,38,39
 998 684 998 684 998 676 c 128,-1,40
 998 668 998 668 998 412 c 128,-1,41
 998 156 998 156 1010 0 c 1,42,43
 925 0 925 0 865.5 0 c 128,-1,44
 806 0 806 0 752 -3 c 1,45,-1
 752 539 l 2,46,47
 752 702 752 702 732.5 751 c 128,-1,48
 713 800 713 800 691 815 c 128,-1,49
 669 830 669 830 637 830 c 0,50,51
 505 830 505 830 417 703 c 1,52,-1
 417 289 l 2,0,1
EndSplineSet
EndChar

StartChar: n
Encoding: 110 110 100
Width: 1197
GlyphClass: 2
Flags: W
LayerCount: 2
Fore
SplineSet
410 128 m 2,0,1
 410 40 410 40 418 0 c 1,2,-1
 167 0 l 1,3,-1
 167 1045 l 1,4,-1
 410 1045 l 1,5,-1
 410 956 l 1,6,7
 542 1065 542 1065 692 1065 c 0,8,9
 856 1065 856 1065 954 953.5 c 128,-1,10
 1052 842 1052 842 1052 660 c 2,11,-1
 1052 262 l 2,12,13
 1052 93 1052 93 1057 59 c 128,-1,14
 1062 25 1062 25 1070.5 15 c 128,-1,15
 1079 5 1079 5 1085 -3 c 1,16,-1
 1083 -7 l 1,17,18
 1002 0 1002 0 965 0 c 2,19,-1
 895 0 l 2,20,21
 863 0 863 0 809 -3 c 1,22,-1
 809 542 l 2,23,24
 809 835 809 835 631 835 c 0,25,26
 499 835 499 835 410 699 c 1,27,-1
 410 128 l 2,0,1
EndSplineSet
EndChar

StartChar: o
Encoding: 111 111 101
Width: 1197
GlyphClass: 2
Flags: W
LayerCount: 2
Fore
SplineSet
71 517 m 0,0,1
 71 627 71 627 108.5 727.5 c 128,-1,2
 146 828 146 828 216 903 c 0,3,4
 369 1065 369 1065 613 1065 c 0,5,6
 856 1065 856 1065 999 912 c 0,7,8
 1136 766 1136 766 1136 533 c 256,9,10
 1136 300 1136 300 995 147 c 0,11,12
 846 -15 846 -15 600 -15 c 0,13,14
 346 -15 346 -15 202 144 c 0,15,16
 71 289 71 289 71 517 c 0,0,1
314 523 m 0,17,18
 314 460 314 460 335 401 c 128,-1,19
 356 342 356 342 395 300 c 0,20,21
 478 209 478 209 613 209 c 0,22,23
 738 209 738 209 810 298 c 0,24,25
 880 384 880 384 880 522 c 0,26,27
 880 662 880 662 808 748 c 0,28,29
 731 840 731 840 597 840 c 0,30,31
 461 840 461 840 384 742 c 0,32,33
 314 652 314 652 314 523 c 0,17,18
EndSplineSet
EndChar

StartChar: p
Encoding: 112 112 102
Width: 1193
GlyphClass: 2
Flags: W
LayerCount: 2
Fore
SplineSet
407 21 m 1,0,-1
 407 -273 l 2,1,2
 407 -359 407 -359 411 -385 c 1,3,-1
 162 -385 l 1,4,-1
 162 1045 l 1,5,-1
 407 1045 l 1,6,-1
 407 980 l 1,7,8
 528 1065 528 1065 639 1065 c 128,-1,9
 750 1065 750 1065 836 1034 c 128,-1,10
 922 1003 922 1003 987 938 c 0,11,12
 1130 797 1130 797 1130 536 c 0,13,14
 1130 363 1130 363 1049 227 c 0,15,16
 980 112 980 112 858 43 c 0,17,18
 750 -18 750 -18 624 -18 c 128,-1,19
 498 -18 498 -18 407 21 c 1,0,-1
407 273 m 1,20,21
 483 209 483 209 604 209 c 0,22,23
 802 209 802 209 860 400 c 0,24,25
 880 465 880 465 880 539.5 c 128,-1,26
 880 614 880 614 866 658.5 c 128,-1,27
 852 703 852 703 829.5 735.5 c 128,-1,28
 807 768 807 768 779 789.5 c 128,-1,29
 751 811 751 811 722 824 c 0,30,31
 671 847 671 847 617 847 c 128,-1,32
 563 847 563 847 505 822 c 128,-1,33
 447 797 447 797 407 755 c 1,34,-1
 407 273 l 1,20,21
EndSplineSet
EndChar

StartChar: q
Encoding: 113 113 103
Width: 1193
GlyphClass: 2
Flags: W
LayerCount: 2
Fore
SplineSet
844 -385 m 1,0,1
 848 -359 848 -359 848 -273 c 2,2,-1
 848 92 l 1,3,4
 724 -15 724 -15 573 -15 c 0,5,6
 366 -15 366 -15 237 118 c 0,7,8
 102 256 102 256 102 486 c 0,9,10
 102 746 102 746 246 904 c 1,11,12
 386 1055 386 1055 601 1055 c 0,13,14
 765 1055 765 1055 859 1003 c 1,15,-1
 1093 1045 l 1,16,-1
 1093 -385 l 1,17,-1
 844 -385 l 1,0,1
848 769 m 1,18,19
 776 838 776 838 618 838 c 0,20,21
 494 838 494 838 420 744 c 0,22,23
 347 651 347 651 347 511 c 0,24,25
 347 303 347 303 495 234 c 0,26,27
 545 210 545 210 613 210 c 0,28,29
 754 210 754 210 848 340 c 1,30,-1
 848 769 l 1,18,19
EndSplineSet
EndChar

StartChar: r
Encoding: 114 114 104
Width: 684
GlyphClass: 2
Flags: W
LayerCount: 2
Fore
SplineSet
383 112 m 2,0,1
 383 26 383 26 387 0 c 1,2,-1
 138 0 l 1,3,-1
 138 1045 l 1,4,-1
 383 1045 l 1,5,-1
 383 968 l 1,6,7
 468 1065 468 1065 561.5 1065 c 128,-1,8
 655 1065 655 1065 709 1042 c 1,9,-1
 691 773 l 1,10,-1
 687 770 l 1,11,12
 652 832 652 832 542 832 c 0,13,14
 500 832 500 832 456.5 803.5 c 128,-1,15
 413 775 413 775 383 728 c 1,16,-1
 383 112 l 2,0,1
EndSplineSet
EndChar

StartChar: s
Encoding: 115 115 105
Width: 1026
GlyphClass: 2
Flags: W
LayerCount: 2
Fore
SplineSet
499 -15 m 0,0,1
 217 -15 217 -15 74 88 c 1,2,3
 76 118 76 118 80 156 c 2,4,-1
 89 228 l 2,5,6
 97 299 97 299 99 316.5 c 128,-1,7
 101 334 101 334 102 335.5 c 128,-1,8
 103 337 103 337 118 319.5 c 128,-1,9
 133 302 133 302 175 277 c 128,-1,10
 217 252 217 252 272 233 c 0,11,12
 391 192 391 192 520 192 c 0,13,14
 693 192 693 192 693 307 c 0,15,16
 693 344 693 344 660 362 c 1,17,18
 601 392 601 392 486.5 407.5 c 128,-1,19
 372 423 372 423 299 453 c 128,-1,20
 226 483 226 483 180 525 c 0,21,22
 95 604 95 604 95 732 c 0,23,24
 95 888 95 888 215 977 c 0,25,26
 334 1065 334 1065 544 1065 c 0,27,28
 752 1065 752 1065 899 947 c 1,29,30
 892 921 892 921 884 897 c 0,31,32
 861 831 861 831 850 802 c 2,33,-1
 827 743 l 1,34,35
 825 735 825 735 824 735 c 0,36,37
 822 735 822 735 808 756 c 1,38,39
 745 829 745 829 612 852 c 0,40,41
 571 860 571 860 528 860 c 0,42,43
 346 860 346 860 346 750 c 0,44,45
 346 712 346 712 384 692 c 0,46,47
 455 654 455 654 578.5 636 c 128,-1,48
 702 618 702 618 766 587.5 c 128,-1,49
 830 557 830 557 869 514 c 0,50,51
 941 436 941 436 941 307 c 0,52,53
 941 166 941 166 828 78 c 0,54,55
 710 -15 710 -15 499 -15 c 0,0,1
EndSplineSet
EndChar

StartChar: t
Encoding: 116 116 106
Width: 855
GlyphClass: 2
Flags: W
LayerCount: 2
Fore
SplineSet
611 220 m 0,0,1
 740 220 740 220 788 287 c 1,2,-1
 796 287 l 1,3,-1
 799 55 l 1,4,5
 750 6 750 6 617 -10 c 0,6,7
 581 -15 581 -15 527.5 -15 c 128,-1,8
 474 -15 474 -15 411.5 5 c 128,-1,9
 349 25 349 25 305 70 c 0,10,11
 214 163 214 163 214 361 c 2,12,-1
 214 815 l 1,13,-1
 63 815 l 1,14,15
 62 844 62 844 62 874 c 2,16,-1
 62 1028 l 2,17,18
 62 1045 62 1045 63 1045 c 2,19,-1
 214 1045 l 1,20,-1
 214 1330 l 1,21,-1
 459 1330 l 1,22,-1
 459 1045 l 1,23,-1
 734 1045 l 1,24,-1
 734 815 l 1,25,-1
 459 815 l 1,26,-1
 459 407 l 2,27,28
 459 250 459 250 546 228 c 0,29,30
 574 220 574 220 611 220 c 0,0,1
EndSplineSet
EndChar

StartChar: u
Encoding: 117 117 107
Width: 1193
GlyphClass: 2
Flags: W
LayerCount: 2
Fore
SplineSet
773 91 m 1,0,1
 645 -15 645 -15 494 -15 c 0,2,3
 332 -15 332 -15 240 94 c 1,4,5
 152 200 152 200 152 385 c 2,6,-1
 152 782 l 2,7,8
 152 982 152 982 143.5 1011.5 c 128,-1,9
 135 1041 135 1041 131 1049 c 1,10,11
 177 1045 177 1045 227 1045 c 2,12,-1
 310 1045 l 2,13,14
 343 1045 343 1045 397 1048 c 1,15,-1
 397 469 l 2,16,17
 397 263 397 263 509 230 c 0,18,19
 543 220 543 220 583 220 c 0,20,21
 701 220 701 220 773 306 c 1,22,-1
 773 1045 l 1,23,-1
 1021 1045 l 1,24,-1
 1021 128 l 2,25,26
 1021 40 1021 40 1029 0 c 1,27,-1
 773 0 l 1,28,-1
 773 91 l 1,0,1
EndSplineSet
EndChar

StartChar: v
Encoding: 118 118 108
Width: 1031
GlyphClass: 2
Flags: W
LayerCount: 2
Fore
SplineSet
-4 1045 m 1,0,-1
 279 1045 l 1,1,-1
 523 357 l 1,2,-1
 759 1045 l 1,3,-1
 1036 1045 l 1,4,-1
 623 0 l 1,5,-1
 417 0 l 1,6,-1
 -4 1045 l 1,0,-1
EndSplineSet
EndChar

StartChar: w
Encoding: 119 119 109
Width: 1535
GlyphClass: 2
Flags: W
LayerCount: 2
Fore
SplineSet
7 1045 m 1,0,-1
 276 1045 l 1,1,-1
 462 294 l 1,2,-1
 662 1045 l 1,3,-1
 892 1045 l 1,4,-1
 1099 278 l 1,5,-1
 1285 1045 l 1,6,-1
 1527 1045 l 1,7,-1
 1219 0 l 1,8,-1
 960 0 l 1,9,-1
 762 685 l 1,10,-1
 578 0 l 1,11,-1
 321 0 l 1,12,-1
 7 1045 l 1,0,-1
EndSplineSet
EndChar

StartChar: x
Encoding: 120 120 110
Width: 1031
GlyphClass: 2
Flags: W
LayerCount: 2
Fore
SplineSet
374 533 m 1,0,-1
 20 1045 l 1,1,-1
 333 1045 l 1,2,-1
 518 726 l 1,3,-1
 718 1045 l 1,4,-1
 1009 1045 l 2,5,6
 1008 1045 1008 1045 987 1016 c 2,7,-1
 661 551 l 1,8,-1
 1031 0 l 1,9,-1
 721 0 l 1,10,-1
 521 339 l 1,11,-1
 323 0 l 1,12,-1
 10 0 l 1,13,-1
 374 533 l 1,0,-1
EndSplineSet
EndChar

StartChar: y
Encoding: 121 121 111
Width: 1025
GlyphClass: 2
Flags: W
LayerCount: 2
Fore
SplineSet
51 -348 m 1,0,-1
 117 -295 l 1,1,2
 266 -174 266 -174 364 62 c 2,3,-1
 410 173 l 1,4,-1
 27 1045 l 1,5,-1
 307 1045 l 1,6,-1
 547 441 l 1,7,-1
 770 1045 l 1,8,-1
 1058 1045 l 1,9,10
 1006 973 1006 973 931 777 c 1,11,-1
 781 406 l 1,12,13
 480 -302 480 -302 309 -438 c 1,14,-1
 51 -348 l 1,0,-1
EndSplineSet
EndChar

StartChar: z
Encoding: 122 122 112
Width: 1024
GlyphClass: 2
Flags: W
LayerCount: 2
Fore
SplineSet
145 998 m 1,0,-1
 143 1045 l 1,1,-1
 988 1045 l 1,2,-1
 478 200 l 1,3,-1
 871 200 l 2,4,5
 959 200 959 200 990 225 c 1,6,-1
 924 -15 l 1,7,8
 880 -12 880 -12 818 -10 c 2,9,-1
 694 -4 l 1,10,11
 579 0 579 0 477 0 c 0,12,13
 251 0 251 0 56 -15 c 1,14,-1
 579 849 l 1,15,-1
 331 849 l 2,16,17
 215 849 215 849 141 823 c 1,18,19
 145 901 145 901 145 944 c 2,20,-1
 145 998 l 1,0,-1
EndSplineSet
EndChar

StartChar: braceleft
Encoding: 123 123 113
Width: 1026
GlyphClass: 2
Flags: W
LayerCount: 2
Fore
SplineSet
767 -93 m 1,0,1
 698 -105 698 -105 617 -105 c 128,-1,2
 536 -105 536 -105 467 -84 c 128,-1,3
 398 -63 398 -63 354 -27 c 0,4,5
 267 43 267 43 267 160 c 0,6,7
 267 274 267 274 353 363 c 1,8,9
 380 424 380 424 394.5 461.5 c 128,-1,10
 409 499 409 499 409 534 c 0,11,12
 409 615 409 615 222 648 c 1,13,-1
 222 703 l 1,14,15
 358 727 358 727 394 762 c 0,16,17
 409 776 409 776 409 794 c 128,-1,18
 409 812 409 812 406.5 827.5 c 128,-1,19
 404 843 404 843 398 861 c 0,20,21
 386 893 386 893 354 957 c 1,22,23
 267 1040 267 1040 267 1166 c 0,24,25
 267 1274 267 1274 351 1352 c 0,26,27
 451 1445 451 1445 631 1445 c 0,28,29
 690 1445 690 1445 767 1433 c 1,30,-1
 757 1230 l 1,31,-1
 753 1228 l 1,32,33
 725 1235 725 1235 704.5 1236.5 c 128,-1,34
 684 1238 684 1238 659 1240.5 c 128,-1,35
 634 1243 634 1243 608 1236.5 c 128,-1,36
 582 1230 582 1230 563 1218 c 0,37,38
 523 1191 523 1191 523 1153 c 0,39,40
 523 1074 523 1074 623 978 c 1,41,42
 681 856 681 856 681 793 c 0,43,44
 681 715 681 715 522 665 c 1,45,46
 681 614 681 614 681 546 c 0,47,48
 681 486 681 486 631 375 c 1,49,-1
 582 318 l 2,50,51
 523 249 523 249 523 203 c 256,52,53
 523 157 523 157 566 126 c 1,54,55
 611 92 611 92 674 100 c 0,56,57
 694 102 694 102 712.5 103.5 c 128,-1,58
 731 105 731 105 753 112 c 1,59,-1
 757 110 l 1,60,-1
 767 -93 l 1,0,1
EndSplineSet
EndChar

StartChar: bar
Encoding: 124 124 114
Width: 929
GlyphClass: 2
Flags: W
LayerCount: 2
Fore
SplineSet
333 -170 m 1,0,1
 337 -106 337 -106 337 -51 c 2,2,-1
 337 1408 l 2,3,4
 337 1430 337 1430 332 1530 c 1,5,-1
 597 1530 l 1,6,7
 592 1430 592 1430 592 1347 c 2,8,-1
 592 -58 l 2,9,10
 592 -144 592 -144 596 -170 c 1,11,-1
 333 -170 l 1,0,1
EndSplineSet
EndChar

StartChar: braceright
Encoding: 125 125 115
Width: 1026
GlyphClass: 2
Flags: W
LayerCount: 2
Fore
SplineSet
222 -93 m 1,0,1
 291 -105 291 -105 372 -105 c 128,-1,2
 453 -105 453 -105 522 -84 c 128,-1,3
 591 -63 591 -63 635 -27 c 0,4,5
 722 43 722 43 722 160 c 0,6,7
 722 274 722 274 636 363 c 1,8,9
 609 424 609 424 594.5 461.5 c 128,-1,10
 580 499 580 499 580 534 c 0,11,12
 580 615 580 615 767 648 c 1,13,-1
 767 703 l 1,14,15
 631 727 631 727 595 762 c 0,16,17
 580 776 580 776 580 794 c 128,-1,18
 580 812 580 812 582.5 827.5 c 128,-1,19
 585 843 585 843 591 861 c 0,20,21
 603 893 603 893 635 957 c 1,22,23
 722 1040 722 1040 722 1166 c 0,24,25
 722 1274 722 1274 638 1352 c 0,26,27
 538 1445 538 1445 358 1445 c 0,28,29
 299 1445 299 1445 222 1433 c 1,30,-1
 232 1230 l 1,31,-1
 236 1228 l 1,32,33
 264 1235 264 1235 284.5 1236.5 c 128,-1,34
 305 1238 305 1238 330 1240.5 c 128,-1,35
 355 1243 355 1243 381 1236.5 c 128,-1,36
 407 1230 407 1230 426 1218 c 0,37,38
 466 1191 466 1191 466 1153 c 0,39,40
 466 1074 466 1074 366 978 c 1,41,42
 308 856 308 856 308 793 c 0,43,44
 308 715 308 715 467 665 c 1,45,46
 308 614 308 614 308 546 c 0,47,48
 308 486 308 486 358 375 c 1,49,-1
 407 318 l 2,50,51
 466 249 466 249 466 203 c 256,52,53
 466 157 466 157 423 126 c 1,54,55
 378 92 378 92 315 100 c 0,56,57
 295 102 295 102 276.5 103.5 c 128,-1,58
 258 105 258 105 236 112 c 1,59,-1
 232 110 l 1,60,-1
 222 -93 l 1,0,1
EndSplineSet
EndChar

StartChar: asciitilde
Encoding: 126 126 116
Width: 1535
GlyphClass: 2
Flags: W
LayerCount: 2
Fore
SplineSet
1093 543 m 0,0,1
 1305 543 1305 543 1376 748 c 1,2,-1
 1382 745 l 1,3,-1
 1401 472 l 1,4,5
 1314 313 1314 313 1063 313 c 0,6,7
 927 313 927 313 744 446 c 0,8,9
 631 528 631 528 568 553 c 128,-1,10
 505 578 505 578 454 578 c 128,-1,11
 403 578 403 578 361 569 c 128,-1,12
 319 560 319 560 282 538 c 0,13,14
 208 495 208 495 148 393 c 1,15,-1
 142 396 l 1,16,-1
 134 672 l 1,17,18
 256 814 256 814 481 814 c 0,19,20
 602 814 602 814 800 678.5 c 128,-1,21
 998 543 998 543 1093 543 c 0,0,1
EndSplineSet
EndChar

StartChar: exclamdown
Encoding: 161 161 118
Width: 684
GlyphClass: 2
Flags: W
LayerCount: 2
Fore
SplineSet
215 988 m 1,0,1
 266 982 266 982 390 982 c 2,2,-1
 470 982 l 1,3,-1
 472 4 l 1,4,-1
 381 8 l 1,5,-1
 359 8 l 2,6,7
 243 8 243 8 211 0 c 1,8,-1
 215 988 l 1,0,1
209 1122 m 1,9,10
 213 1172 213 1172 213 1249.5 c 128,-1,11
 213 1327 213 1327 209 1362 c 1,12,-1
 474 1362 l 1,13,14
 466 1300 466 1300 466 1239.5 c 128,-1,15
 466 1179 466 1179 472 1122 c 1,16,-1
 209 1122 l 1,9,10
EndSplineSet
EndChar

StartChar: cent
Encoding: 162 162 119
Width: 1364
GlyphClass: 2
Flags: W
LayerCount: 2
Fore
SplineSet
650 -195 m 1,0,1
 659 -161 659 -161 659 -60 c 2,2,-1
 659 -23 l 1,3,4
 434 -5 434 -5 292 141 c 0,5,6
 151 286 151 286 151 496 c 0,7,8
 151 711 151 711 290 865 c 0,9,10
 426 1015 426 1015 652 1054 c 1,11,-1
 652 1121 l 2,12,13
 652 1222 652 1222 643 1256 c 1,14,-1
 912 1256 l 1,15,16
 908 1198 908 1198 908 1132 c 2,17,-1
 908 1060 l 1,18,19
 1075 1047 1075 1047 1172 1009 c 1,20,-1
 1144 737 l 1,21,-1
 1135 728 l 1,22,23
 1055 796 1055 796 874 818 c 0,24,25
 821 825 821 825 752 825 c 128,-1,26
 683 825 683 825 615 801.5 c 128,-1,27
 547 778 547 778 502 738 c 0,28,29
 413 659 413 659 413 532 c 0,30,31
 413 394 413 394 513 308 c 0,32,33
 620 215 620 215 791 215 c 0,34,35
 995 215 995 215 1121 328 c 0,36,37
 1160 363 1160 363 1180 407 c 1,38,-1
 1187 401 l 1,39,-1
 1173 106 l 1,40,41
 1088 27 1088 27 915 -5 c 1,42,-1
 915 -71 l 1,43,44
 919 -192 919 -192 919 -195 c 1,45,-1
 650 -195 l 1,0,1
EndSplineSet
EndChar

StartChar: sterling
Encoding: 163 163 120
Width: 1359
GlyphClass: 2
Flags: W
LayerCount: 2
Fore
SplineSet
656 576 m 1,0,1
 660 536 660 536 660 450.5 c 128,-1,2
 660 365 660 365 624 261 c 1,3,4
 683 250 683 250 710 246 c 128,-1,5
 737 242 737 242 759.5 237 c 128,-1,6
 782 232 782 232 808 227 c 0,7,8
 870 215 870 215 928.5 215 c 128,-1,9
 987 215 987 215 1023.5 218 c 128,-1,10
 1060 221 1060 221 1088 228 c 0,11,12
 1145 242 1145 242 1177 268 c 1,13,-1
 1183 269 l 1,14,-1
 1175 9 l 1,15,16
 1091 -25 1091 -25 973 -25 c 0,17,18
 930 -25 930 -25 850 -12 c 2,19,-1
 733 8 l 2,20,21
 679 17 679 17 647 23 c 2,22,-1
 592 33 l 2,23,24
 552 40 552 40 521 40 c 0,25,26
 476 40 476 40 444 33 c 1,27,28
 360 -10 360 -10 232 -26 c 1,29,-1
 182 228 l 1,30,31
 231 256 231 256 353 271 c 1,32,33
 405 388 405 388 405 461 c 128,-1,34
 405 534 405 534 401 576 c 1,35,-1
 226 576 l 1,36,-1
 213 816 l 1,37,-1
 358 816 l 1,38,39
 346 893 346 893 346 976 c 128,-1,40
 346 1059 346 1059 378 1131 c 128,-1,41
 410 1203 410 1203 468 1252 c 0,42,43
 590 1355 590 1355 792 1355 c 0,44,45
 980 1355 980 1355 1102 1312 c 1,46,-1
 1066 1062 l 1,47,-1
 1064 1057 l 1,48,49
 988 1090 988 1090 900.5 1102.5 c 128,-1,50
 813 1115 813 1115 785 1115 c 0,51,52
 601 1115 601 1115 601 952 c 0,53,54
 601 868 601 868 609 816 c 1,55,-1
 865 816 l 2,56,57
 974 816 974 816 997 822 c 1,58,-1
 1000 571 l 1,59,60
 952 576 952 576 876 576 c 2,61,-1
 656 576 l 1,0,1
EndSplineSet
EndChar

StartChar: currency
Encoding: 164 164 121
Width: 1535
GlyphClass: 2
Flags: W
LayerCount: 2
Fore
SplineSet
1167 865 m 1,0,1
 1227 767 1227 767 1227 651 c 128,-1,2
 1227 535 1227 535 1159 436 c 1,3,-1
 1236 360 l 1,4,5
 1282 313 1282 313 1327 275 c 1,6,-1
 1136 85 l 1,7,8
 1114 121 1114 121 1047 186 c 1,9,-1
 957 276 l 1,10,11
 866 239 866 239 764 239 c 128,-1,12
 662 239 662 239 577 273 c 1,13,-1
 489 185 l 2,14,15
 417 113 417 113 400 83 c 1,16,-1
 210 274 l 1,17,18
 233 293 233 293 256 314 c 1,19,-1
 378 436 l 1,20,21
 319 528 319 528 319 641.5 c 128,-1,22
 319 755 319 755 376 851 c 1,23,-1
 301 926 l 1,24,25
 236 993 236 993 200 1015 c 1,26,-1
 390 1206 l 1,27,28
 428 1161 428 1161 475 1115 c 1,29,-1
 567 1022 l 1,30,31
 666 1065 666 1065 776 1065 c 128,-1,32
 886 1065 886 1065 970 1030 c 1,33,34
 1107 1166 1107 1166 1143 1209 c 1,35,-1
 1334 1019 l 1,36,37
 1304 1002 1304 1002 1232 930 c 2,38,-1
 1167 865 l 1,0,1
569 652 m 0,39,40
 569 614 569 614 586 581 c 128,-1,41
 603 548 603 548 632 524 c 0,42,43
 692 475 692 475 779 475 c 0,44,45
 864 475 864 475 922 523 c 0,46,47
 983 573 983 573 983 656 c 0,48,49
 983 727 983 727 926 779 c 0,50,51
 864 835 864 835 773 835 c 0,52,53
 683 835 683 835 624 780 c 0,54,55
 569 728 569 728 569 652 c 0,39,40
EndSplineSet
EndChar

StartChar: yen
Encoding: 165 165 122
Width: 1535
GlyphClass: 2
Flags: W
LayerCount: 2
Fore
SplineSet
662 0 m 1,0,1
 675 39 675 39 675 182 c 2,2,-1
 675 370 l 1,3,-1
 324 370 l 1,4,-1
 324 566 l 1,5,-1
 675 566 l 1,6,-1
 675 660 l 1,7,-1
 324 660 l 1,8,-1
 324 856 l 1,9,-1
 541 856 l 1,10,-1
 373 1094 l 1,11,12
 257 1261 257 1261 168 1330 c 1,13,-1
 523 1330 l 1,14,15
 530 1299 530 1299 575 1230 c 1,16,-1
 796 862 l 1,17,-1
 1014 1230 l 1,18,19
 1059 1311 1059 1311 1056 1330 c 1,20,-1
 1366 1330 l 1,21,22
 1344 1318 1344 1318 1210 1100 c 1,23,-1
 1051 856 l 1,24,-1
 1134 856 l 2,25,26
 1244 856 1244 856 1266 862 c 1,27,-1
 1266 655 l 1,28,29
 1218 660 1218 660 1144 660 c 2,30,-1
 930 660 l 1,31,-1
 930 566 l 1,32,-1
 1132 566 l 2,33,34
 1242 566 1242 566 1264 572 c 1,35,-1
 1264 365 l 1,36,37
 1216 370 1216 370 1134 370 c 2,38,-1
 930 370 l 1,39,-1
 930 158 l 2,40,41
 930 58 930 58 942 0 c 1,42,-1
 662 0 l 1,0,1
EndSplineSet
EndChar

StartChar: brokenbar
Encoding: 166 166 123
Width: 929
GlyphClass: 2
Flags: W
LayerCount: 2
Fore
SplineSet
592 963 m 2,0,1
 592 877 592 877 596 851 c 1,2,-1
 333 851 l 1,3,4
 337 915 337 915 337 928 c 2,5,-1
 337 1408 l 2,6,7
 337 1430 337 1430 332 1530 c 1,8,-1
 597 1530 l 1,9,10
 592 1430 592 1430 592 1347 c 2,11,-1
 592 963 l 2,0,1
592 -58 m 2,12,13
 592 -144 592 -144 596 -170 c 1,14,-1
 333 -170 l 1,15,-1
 335 -137 l 2,16,17
 337 -103 337 -103 337 -64 c 2,18,-1
 337 385 l 2,19,20
 337 407 337 407 332 507 c 1,21,-1
 597 507 l 1,22,23
 592 407 592 407 592 324 c 2,24,-1
 592 -58 l 2,12,13
EndSplineSet
EndChar

StartChar: section
Encoding: 167 167 124
Width: 1364
GlyphClass: 2
Flags: W
LayerCount: 2
Fore
SplineSet
1020 175 m 1,0,1
 1155 69 1155 69 1155 -72 c 0,2,3
 1155 -258 1155 -258 992 -362 c 1,4,5
 847 -456 847 -456 646 -456 c 0,6,7
 483 -456 483 -456 328 -386 c 0,8,9
 283 -365 283 -365 253 -341 c 1,10,-1
 242 -35 l 1,11,-1
 245 -33 l 1,12,13
 292 -112 292 -112 420 -170 c 0,14,15
 546 -227 546 -227 675 -227 c 0,16,17
 770 -227 770 -227 820 -202.5 c 128,-1,18
 870 -178 870 -178 889 -157 c 128,-1,19
 908 -136 908 -136 908 -110 c 0,20,21
 908 -5 908 -5 600 51 c 0,22,23
 284 108 284 108 182 280 c 0,24,25
 148 336 148 336 148 400 c 0,26,27
 148 610 148 610 352 725 c 1,28,29
 207 841 207 841 207 983 c 0,30,31
 207 1143 207 1143 346 1246 c 0,32,33
 492 1355 492 1355 743 1355 c 0,34,35
 915 1355 915 1355 1048 1293 c 0,36,37
 1086 1275 1086 1275 1111 1256 c 1,38,-1
 1073 968 l 1,39,-1
 1068 965 l 1,40,41
 987 1073 987 1073 816 1110 c 0,42,43
 758 1122 758 1122 697.5 1122 c 128,-1,44
 637 1122 637 1122 594.5 1112.5 c 128,-1,45
 552 1103 552 1103 522 1087 c 0,46,47
 460 1054 460 1054 460 1005 c 0,48,49
 460 923 460 923 626 869 c 0,50,51
 678 852 678 852 772 836.5 c 128,-1,52
 866 821 866 821 955 785 c 128,-1,53
 1044 749 1044 749 1102 703 c 0,54,55
 1215 612 1215 612 1215 495 c 0,56,57
 1215 287 1215 287 1020 175 c 1,0,1
407 513 m 0,58,59
 392 490 392 490 392 462.5 c 128,-1,60
 392 435 392 435 419 410.5 c 128,-1,61
 446 386 446 386 488.5 366 c 128,-1,62
 531 346 531 346 583 331 c 128,-1,63
 635 316 635 316 684 305 c 0,64,65
 761 288 761 288 838 277 c 1,66,-1
 894 316 l 2,67,68
 946 352 946 352 959.5 378.5 c 128,-1,69
 973 405 973 405 973 433 c 128,-1,70
 973 461 973 461 936 489 c 128,-1,71
 899 517 899 517 840 540 c 0,72,73
 736 581 736 581 567 612 c 1,74,75
 453 583 453 583 407 513 c 0,58,59
EndSplineSet
EndChar

StartChar: dieresis
Encoding: 168 168 125
Width: 869
GlyphClass: 2
Flags: W
LayerCount: 2
Fore
SplineSet
787 1430 m 1,0,1
 783 1380 783 1380 783 1302.5 c 128,-1,2
 783 1225 783 1225 787 1190 c 1,3,-1
 522 1190 l 1,4,5
 530 1252 530 1252 530 1312.5 c 128,-1,6
 530 1373 530 1373 524 1430 c 1,7,-1
 787 1430 l 1,0,1
357 1430 m 1,8,9
 353 1380 353 1380 353 1302.5 c 128,-1,10
 353 1225 353 1225 357 1190 c 1,11,-1
 92 1190 l 1,12,13
 100 1252 100 1252 100 1312.5 c 128,-1,14
 100 1373 100 1373 94 1430 c 1,15,-1
 357 1430 l 1,8,9
EndSplineSet
EndChar

StartChar: copyright
Encoding: 169 169 126
Width: 1877
GlyphClass: 2
Flags: W
LayerCount: 2
Fore
SplineSet
230.5 519 m 128,-1,1
 173 646 173 646 173 783 c 128,-1,2
 173 920 173 920 204 1015.5 c 128,-1,3
 235 1111 235 1111 289 1186 c 128,-1,4
 343 1261 343 1261 416.5 1316 c 128,-1,5
 490 1371 490 1371 576 1406 c 0,6,7
 841 1516 841 1516 1134 1453 c 0,8,9
 1326 1412 1326 1412 1468 1302 c 0,10,11
 1615 1188 1615 1188 1674 1011 c 0,12,13
 1703 922 1703 922 1703 819.5 c 128,-1,14
 1703 717 1703 717 1675.5 626 c 128,-1,15
 1648 535 1648 535 1597.5 457 c 128,-1,16
 1547 379 1547 379 1477 315.5 c 128,-1,17
 1407 252 1407 252 1322 208 c 0,18,19
 1145 115 1145 115 958.5 115 c 128,-1,20
 772 115 772 115 632 163.5 c 128,-1,21
 492 212 492 212 390 302 c 128,-1,0
 288 392 288 392 230.5 519 c 128,-1,1
408 799 m 0,22,23
 408 701 408 701 446 618 c 128,-1,24
 484 535 484 535 553 472 c 0,25,26
 703 335 703 335 933 335 c 0,27,28
 1181 335 1181 335 1328 466 c 1,29,30
 1468 593 1468 593 1468 791 c 0,31,32
 1468 1005 1468 1005 1324 1140 c 1,33,34
 1176 1276 1176 1276 936 1276 c 0,35,36
 690 1276 690 1276 546 1138 c 0,37,38
 408 1006 408 1006 408 799 c 0,22,23
1198 545 m 1,39,40
 1122 481 1122 481 961 481 c 0,41,42
 790 481 790 481 684 574 c 0,43,44
 582 664 582 664 582 800 c 0,45,46
 582 941 582 941 692 1036 c 0,47,48
 806 1135 806 1135 984 1135 c 0,49,50
 1102 1135 1102 1135 1188 1095 c 1,51,-1
 1188 868 l 1,52,-1
 1187 868 l 1,53,54
 1143 909 1143 909 1040 924 c 0,55,56
 1011 929 1011 929 986 929 c 0,57,58
 896 929 896 929 850.5 895 c 128,-1,59
 805 861 805 861 805 807 c 128,-1,60
 805 753 805 753 857.5 720 c 128,-1,61
 910 687 910 687 998 687 c 0,62,63
 1083 687 1083 687 1160 726 c 0,64,65
 1183 738 1183 738 1196 751 c 1,66,-1
 1198 750 l 1,67,-1
 1198 545 l 1,39,40
EndSplineSet
EndChar

StartChar: ordfeminine
Encoding: 170 170 127
Width: 1193
GlyphClass: 2
Flags: W
LayerCount: 2
Fore
SplineSet
773 671 m 1,0,1
 672 577 672 577 543.5 577 c 128,-1,2
 415 577 415 577 337.5 609 c 128,-1,3
 260 641 260 641 212 694 c 0,4,5
 120 794 120 794 120 957 c 0,6,7
 120 1128 120 1128 232 1240 c 0,8,9
 347 1355 347 1355 536 1355 c 0,10,11
 643 1355 643 1355 736 1297 c 1,12,-1
 736 1361 l 1,13,-1
 991 1361 l 1,14,-1
 991 898 l 2,15,16
 991 729 991 729 1072 694 c 1,17,-1
 1070 689 l 1,18,-1
 872 560 l 1,19,20
 820 577 820 577 773 671 c 1,0,1
736 1093 m 1,21,22
 646 1135 646 1135 561.5 1135 c 128,-1,23
 477 1135 477 1135 426 1090 c 128,-1,24
 375 1045 375 1045 375 969 c 256,25,26
 375 893 375 893 433 845 c 0,27,28
 493 796 493 796 576.5 796 c 128,-1,29
 660 796 660 796 736 838 c 1,30,-1
 736 1093 l 1,21,22
EndSplineSet
EndChar

StartChar: guillemotleft
Encoding: 171 171 128
Width: 1364
GlyphClass: 2
Flags: W
LayerCount: 2
Fore
SplineSet
229 449 m 1,0,1
 201 498 201 498 201 517 c 0,2,3
 201 551 201 551 224 595 c 1,4,-1
 425 915 l 1,5,-1
 680 915 l 1,6,-1
 453 527 l 1,7,-1
 686 140 l 1,8,-1
 431 140 l 1,9,-1
 229 449 l 1,0,1
706 449 m 1,10,11
 678 498 678 498 678 517 c 0,12,13
 678 551 678 551 701 595 c 1,14,-1
 902 915 l 1,15,-1
 1157 915 l 1,16,-1
 930 527 l 1,17,-1
 1163 140 l 1,18,-1
 908 140 l 1,19,-1
 706 449 l 1,10,11
EndSplineSet
EndChar

StartChar: logicalnot
Encoding: 172 172 129
Width: 1535
GlyphClass: 2
Flags: W
LayerCount: 2
Fore
SplineSet
386 500 m 2,0,1
 310 500 310 500 262 495 c 1,2,-1
 265 742 l 1,3,4
 288 736 288 736 397 736 c 2,5,-1
 1136 736 l 2,6,7
 1246 736 1246 736 1268 742 c 1,8,-1
 1268 338 l 2,9,10
 1268 262 1268 262 1273 214 c 1,11,-1
 1026 217 l 1,12,13
 1032 240 1032 240 1032 349 c 2,14,-1
 1032 500 l 1,15,-1
 386 500 l 2,0,1
EndSplineSet
EndChar

StartChar: registered
Encoding: 174 174 131
Width: 1872
GlyphClass: 2
Flags: W
LayerCount: 2
Fore
SplineSet
228.5 519 m 128,-1,1
 171 646 171 646 171 783 c 128,-1,2
 171 920 171 920 202 1015.5 c 128,-1,3
 233 1111 233 1111 287 1186 c 128,-1,4
 341 1261 341 1261 414.5 1316 c 128,-1,5
 488 1371 488 1371 574 1406 c 0,6,7
 839 1516 839 1516 1132 1453 c 0,8,9
 1324 1412 1324 1412 1466 1302 c 0,10,11
 1613 1188 1613 1188 1672 1011 c 0,12,13
 1701 922 1701 922 1701 819.5 c 128,-1,14
 1701 717 1701 717 1673.5 626 c 128,-1,15
 1646 535 1646 535 1595.5 457 c 128,-1,16
 1545 379 1545 379 1475 315.5 c 128,-1,17
 1405 252 1405 252 1320 208 c 0,18,19
 1143 115 1143 115 956.5 115 c 128,-1,20
 770 115 770 115 630 163.5 c 128,-1,21
 490 212 490 212 388 302 c 128,-1,0
 286 392 286 392 228.5 519 c 128,-1,1
406 799 m 0,22,23
 406 701 406 701 444 618 c 128,-1,24
 482 535 482 535 551 472 c 0,25,26
 701 335 701 335 931 335 c 0,27,28
 1179 335 1179 335 1326 466 c 1,29,30
 1466 593 1466 593 1466 791 c 0,31,32
 1466 1005 1466 1005 1322 1140 c 1,33,34
 1174 1276 1174 1276 934 1276 c 0,35,36
 688 1276 688 1276 544 1138 c 0,37,38
 406 1006 406 1006 406 799 c 0,22,23
986 639 m 1,39,40
 954 635 954 635 933 635 c 2,41,-1
 903 635 l 2,42,43
 894 635 894 635 886 637 c 1,44,-1
 886 495 l 1,45,-1
 661 495 l 1,46,-1
 661 1105 l 1,47,48
 761 1132 761 1132 876 1132 c 128,-1,49
 991 1132 991 1132 1060 1112 c 128,-1,50
 1129 1092 1129 1092 1174 1058 c 0,51,52
 1261 991 1261 991 1261 889 c 128,-1,53
 1261 787 1261 787 1179 718 c 1,54,-1
 1233 614 l 2,55,56
 1241 599 1241 599 1252 580 c 0,57,58
 1300 500 1300 500 1308 494 c 1,59,-1
 1306 492 l 1,60,61
 1283 495 1283 495 1267 495 c 2,62,-1
 1224 495 l 2,63,64
 1116 495 1116 495 1060 491 c 1,65,-1
 986 639 l 1,39,40
932 804 m 2,66,67
 1045 804 1045 804 1045 893 c 0,68,69
 1045 926 1045 926 1009.5 946 c 128,-1,70
 974 966 974 966 938 966 c 2,71,-1
 896 966 l 2,72,73
 891 966 891 966 886 965 c 1,74,-1
 886 806 l 1,75,76
 899 804 899 804 910 804 c 2,77,-1
 932 804 l 2,66,67
EndSplineSet
EndChar

StartChar: macron
Encoding: 175 175 132
Width: 929
GlyphClass: 2
Flags: W
LayerCount: 2
Fore
SplineSet
802 1523 m 1,0,1
 798 1473 798 1473 798 1447 c 2,2,-1
 798 1413 l 2,3,4
 798 1405 798 1405 802 1353 c 1,5,-1
 127 1353 l 1,6,-1
 130 1379 l 1,7,8
 135 1412 135 1412 135 1439 c 128,-1,9
 135 1466 135 1466 129 1523 c 1,10,-1
 802 1523 l 1,0,1
EndSplineSet
EndChar

StartChar: degree
Encoding: 176 176 133
Width: 1026
GlyphClass: 2
Flags: W
LayerCount: 2
Fore
SplineSet
505 732 m 0,0,1
 426 732 426 732 362 758 c 128,-1,2
 298 784 298 784 252 830 c 1,3,4
 153 926 153 926 153 1073 c 0,5,6
 153 1219 153 1219 249 1319 c 0,7,8
 352 1426 352 1426 522 1426 c 0,9,10
 673 1426 673 1426 775 1318 c 0,11,12
 872 1216 872 1216 872 1080 c 0,13,14
 872 930 872 930 769 832 c 0,15,16
 663 732 663 732 505 732 c 0,0,1
451.5 936.5 m 128,-1,18
 482 925 482 925 517.5 925 c 128,-1,19
 553 925 553 925 581 936.5 c 128,-1,20
 609 948 609 948 630 969 c 0,21,22
 673 1014 673 1014 673 1083 c 0,23,24
 673 1188 673 1188 582 1226 c 0,25,26
 552 1239 552 1239 514.5 1239 c 128,-1,27
 477 1239 477 1239 448 1226 c 128,-1,28
 419 1213 419 1213 398 1192 c 1,29,30
 356 1147 356 1147 356 1097 c 128,-1,31
 356 1047 356 1047 367.5 1018.5 c 128,-1,32
 379 990 379 990 400 969 c 128,-1,17
 421 948 421 948 451.5 936.5 c 128,-1,18
EndSplineSet
EndChar

StartChar: plusminus
Encoding: 177 177 134
Width: 1364
GlyphClass: 2
Flags: W
LayerCount: 2
Fore
SplineSet
800 578 m 2,0,1
 800 502 800 502 805 454 c 1,2,-1
 558 457 l 1,3,4
 564 480 564 480 564 589 c 2,5,-1
 564 800 l 1,6,-1
 351 800 l 2,7,8
 275 800 275 800 227 795 c 1,9,-1
 230 1042 l 1,10,11
 252 1036 252 1036 362 1036 c 2,12,-1
 564 1036 l 1,13,-1
 564 1228 l 2,14,15
 564 1338 564 1338 558 1360 c 1,16,-1
 805 1363 l 1,17,18
 800 1315 800 1315 800 1239 c 2,19,-1
 800 1036 l 1,20,-1
 1001 1036 l 2,21,22
 1110 1036 1110 1036 1133 1042 c 1,23,-1
 1136 795 l 1,24,25
 1088 800 1088 800 1012 800 c 2,26,-1
 800 800 l 1,27,-1
 800 578 l 2,0,1
351 100 m 2,28,29
 275 100 275 100 227 95 c 1,30,-1
 230 322 l 1,31,32
 252 316 252 316 362 316 c 2,33,-1
 1001 316 l 2,34,35
 1110 316 1110 316 1133 322 c 1,36,-1
 1136 95 l 1,37,38
 1088 100 1088 100 1012 100 c 2,39,-1
 351 100 l 2,28,29
EndSplineSet
EndChar

StartChar: twosuperior
Encoding: 178 178 135
Width: 855
GlyphClass: 2
Flags: W
LayerCount: 2
Fore
SplineSet
657 603 m 1,0,1
 518 612 518 612 405 612 c 0,2,3
 217 612 217 612 99 604 c 1,4,-1
 190 749 l 2,5,6
 374 1043 374 1043 374 1118 c 0,7,8
 374 1147 374 1147 357 1170 c 128,-1,9
 340 1193 340 1193 320 1193 c 128,-1,10
 300 1193 300 1193 278.5 1189.5 c 128,-1,11
 257 1186 257 1186 236 1178 c 0,12,13
 188 1162 188 1162 159 1137 c 1,14,-1
 152 1136 l 1,15,-1
 157 1365 l 1,16,17
 215 1405 215 1405 365 1405 c 0,18,19
 482 1405 482 1405 562 1348 c 0,20,21
 644 1290 644 1290 644 1190 c 0,22,23
 644 1051 644 1051 504 812 c 1,24,-1
 660 812 l 2,25,26
 729 812 729 812 751 829 c 1,27,-1
 756 827 l 1,28,-1
 657 603 l 1,0,1
EndSplineSet
EndChar

StartChar: threesuperior
Encoding: 179 179 136
Width: 855
GlyphClass: 2
Flags: W
LayerCount: 2
Fore
SplineSet
593 1054 m 1,0,1
 654 1022 654 1022 691 967.5 c 128,-1,2
 728 913 728 913 728 852 c 128,-1,3
 728 791 728 791 704.5 744.5 c 128,-1,4
 681 698 681 698 637 666 c 0,5,6
 546 598 546 598 390 598 c 0,7,8
 211 598 211 598 114 671 c 1,9,-1
 112 870 l 1,10,-1
 117 876 l 1,11,12
 167 826 167 826 305 804 c 0,13,14
 345 797 345 797 383 797 c 0,15,16
 497 797 497 797 497 860 c 0,17,18
 497 885 497 885 477 900 c 0,19,20
 440 929 440 929 405.5 929 c 128,-1,21
 371 929 371 929 355 927 c 128,-1,22
 339 925 339 925 326 923 c 0,23,24
 298 919 298 919 295 916 c 1,25,-1
 292 921 l 1,26,-1
 297 1076 l 1,27,28
 327 1091 327 1091 388 1091 c 2,29,-1
 389 1091 l 1,30,31
 441 1111 441 1111 441 1146 c 0,32,33
 441 1212 441 1212 347.5 1212 c 128,-1,34
 254 1212 254 1212 183 1170 c 1,35,-1
 181 1173 l 1,36,-1
 174 1363 l 1,37,38
 252 1415 252 1415 408 1415 c 0,39,40
 531 1415 531 1415 608 1364 c 1,41,42
 684 1312 684 1312 684 1216 c 128,-1,43
 684 1120 684 1120 593 1054 c 1,0,1
EndSplineSet
EndChar

StartChar: acute
Encoding: 180 180 137
Width: 855
GlyphClass: 2
Flags: W
LayerCount: 2
Fore
SplineSet
412 1503 m 1,0,1
 562 1503 562 1503 732 1520 c 1,2,-1
 731 1513 l 1,3,-1
 469 1190 l 1,4,-1
 243 1190 l 1,5,-1
 412 1503 l 1,0,1
EndSplineSet
EndChar

StartChar: mu
Encoding: 181 181 138
AltUni2: 0003bc.ffffffff.0
Width: 1364
GlyphClass: 2
Flags: W
LayerCount: 2
Fore
SplineSet
356 -407 m 1,0,1
 243 -323 243 -323 243 -45 c 2,2,-1
 243 820 l 2,3,4
 243 962 243 962 230 1049 c 1,5,6
 276 1045 276 1045 322 1045 c 2,7,-1
 401 1045 l 2,8,9
 434 1045 434 1045 488 1048 c 1,10,-1
 488 302 l 1,11,12
 554 220 554 220 685 220 c 0,13,14
 771 220 771 220 834 281 c 1,15,-1
 834 1045 l 1,16,-1
 1079 1045 l 1,17,-1
 1079 374 l 2,18,19
 1079 220 1079 220 1185 220 c 0,20,21
 1238 220 1238 220 1266 252 c 1,22,-1
 1274 252 l 1,23,-1
 1217 4 l 1,24,25
 1184 -15 1184 -15 1111 -15 c 0,26,27
 974 -15 974 -15 896 85 c 1,28,29
 771 -15 771 -15 633 -15 c 0,30,31
 547 -15 547 -15 465 26 c 1,32,33
 471 -212 471 -212 557 -271 c 1,34,-1
 557 -276 l 1,35,-1
 356 -407 l 1,0,1
EndSplineSet
EndChar

StartChar: paragraph
Encoding: 182 182 139
Width: 1364
GlyphClass: 2
Flags: W
LayerCount: 2
Fore
SplineSet
538 22 m 0,0,1
 479 0 479 0 397 0 c 128,-1,2
 315 0 315 0 251 28 c 1,3,-1
 251 267 l 1,4,-1
 258 269 l 1,5,6
 312 239 312 239 355.5 239 c 128,-1,7
 399 239 399 239 416 245 c 128,-1,8
 433 251 433 251 444 266 c 0,9,10
 467 295 467 295 467 369 c 2,11,-1
 467 563 l 1,12,13
 299 569 299 569 202 687 c 0,14,15
 116 791 116 791 116 944 c 0,16,17
 116 1223 116 1223 402 1304 c 0,18,19
 496 1330 496 1330 621 1330 c 2,20,-1
 1190 1330 l 1,21,22
 1182 1248 1182 1248 1182 1091 c 2,23,-1
 1182 112 l 2,24,25
 1182 26 1182 26 1186 0 c 1,26,-1
 937 0 l 1,27,-1
 937 1092 l 1,28,29
 889 1095 889 1095 854 1095 c 2,30,-1
 787 1095 l 2,31,32
 755 1095 755 1095 722 1094 c 1,33,-1
 722 467 l 2,34,35
 722 93 722 93 538 22 c 0,0,1
EndSplineSet
EndChar

StartChar: periodcentered
Encoding: 183 183 140
Width: 510
GlyphClass: 2
Flags: W
LayerCount: 2
Fore
SplineSet
109 600 m 1,0,1
 118 661 118 661 118 708 c 128,-1,2
 118 755 118 755 117.5 772.5 c 128,-1,3
 117 790 117 790 116 807 c 128,-1,4
 115 824 115 824 114 839 c 2,5,-1
 111 864 l 1,6,-1
 401 864 l 1,7,8
 398 826 398 826 398 802 c 1,9,-1
 396 760 l 2,10,11
 396 741 396 741 396 688.5 c 128,-1,12
 396 636 396 636 401 600 c 1,13,-1
 109 600 l 1,0,1
EndSplineSet
EndChar

StartChar: cedilla
Encoding: 184 184 141
Width: 673
GlyphClass: 2
Flags: W
LayerCount: 2
Fore
SplineSet
449 40 m 1,0,1
 449 40 449 40 456 -11 c 1,2,3
 465 -67 465 -67 465 -151 c 128,-1,4
 465 -235 465 -235 442.5 -290 c 128,-1,5
 420 -345 420 -345 391 -362 c 1,6,7
 332 -400 332 -400 176 -432 c 1,8,-1
 170 -426 l 1,9,10
 240 -327 240 -327 240 0 c 1,11,-1
 449 40 l 1,0,1
EndSplineSet
EndChar

StartChar: onesuperior
Encoding: 185 185 142
Width: 684
GlyphClass: 2
Flags: W
LayerCount: 2
Fore
SplineSet
219 1390 m 1,0,-1
 464 1390 l 1,1,-1
 464 600 l 1,2,-1
 219 600 l 1,3,-1
 219 1390 l 1,0,-1
EndSplineSet
EndChar

StartChar: ordmasculine
Encoding: 186 186 143
Width: 1193
GlyphClass: 2
Flags: W
LayerCount: 2
Fore
SplineSet
584 577 m 0,0,1
 482 577 482 577 400.5 611 c 128,-1,2
 319 645 319 645 266 699 c 0,3,4
 160 805 160 805 160 957 c 0,5,6
 160 1126 160 1126 285 1240 c 0,7,8
 411 1355 411 1355 601 1355 c 0,9,10
 786 1355 786 1355 908 1248 c 0,11,12
 1032 1139 1032 1139 1032 972 c 0,13,14
 1032 809 1032 809 905 694 c 0,15,16
 777 577 777 577 584 577 c 0,0,1
522.5 806 m 128,-1,18
 560 793 560 793 601.5 793 c 128,-1,19
 643 793 643 793 676.5 806 c 128,-1,20
 710 819 710 819 734 842 c 0,21,22
 788 891 788 891 788 959 c 0,23,24
 788 1034 788 1034 730 1084 c 1,25,26
 674 1135 674 1135 608 1135 c 128,-1,27
 542 1135 542 1135 506.5 1119 c 128,-1,28
 471 1103 471 1103 447 1078 c 0,29,30
 400 1029 400 1029 400 978 c 128,-1,31
 400 927 400 927 415.5 896 c 128,-1,32
 431 865 431 865 458 842 c 128,-1,17
 485 819 485 819 522.5 806 c 128,-1,18
EndSplineSet
EndChar

StartChar: guillemotright
Encoding: 187 187 144
Width: 1364
GlyphClass: 2
Flags: W
LayerCount: 2
Fore
SplineSet
658 449 m 1,0,1
 686 498 686 498 686 517 c 0,2,3
 686 551 686 551 663 595 c 1,4,-1
 462 915 l 1,5,-1
 207 915 l 1,6,-1
 434 527 l 1,7,-1
 201 140 l 1,8,-1
 456 140 l 1,9,-1
 658 449 l 1,0,1
1135 449 m 1,10,11
 1163 498 1163 498 1163 517 c 0,12,13
 1163 551 1163 551 1140 595 c 1,14,-1
 939 915 l 1,15,-1
 684 915 l 1,16,-1
 911 527 l 1,17,-1
 678 140 l 1,18,-1
 933 140 l 1,19,-1
 1135 449 l 1,10,11
EndSplineSet
EndChar

StartChar: onequarter
Encoding: 188 188 145
Width: 2038
GlyphClass: 2
Flags: W
LayerCount: 2
Fore
SplineSet
250 1390 m 1,0,-1
 495 1390 l 1,1,-1
 495 600 l 1,2,-1
 250 600 l 1,3,-1
 250 1390 l 1,0,-1
1102 1330 m 1,4,-1
 1347 1330 l 1,5,-1
 597 0 l 1,6,-1
 352 0 l 1,7,-1
 1102 1330 l 1,4,-1
1636 363 m 2,8,9
 1730 363 1730 363 1784 377 c 1,10,-1
 1787 374 l 1,11,-1
 1725 143 l 1,12,-1
 1615 143 l 1,13,-1
 1615 0 l 1,14,-1
 1370 0 l 1,15,-1
 1370 143 l 1,16,-1
 984 143 l 1,17,-1
 964 187 l 1,18,-1
 1275 770 l 1,19,-1
 1615 769 l 1,20,-1
 1615 363 l 1,21,-1
 1636 363 l 2,8,9
1370 363 m 1,22,-1
 1370 600 l 1,23,-1
 1274 363 l 1,24,-1
 1370 363 l 1,22,-1
EndSplineSet
EndChar

StartChar: onehalf
Encoding: 189 189 146
Width: 2043
GlyphClass: 2
Flags: W
LayerCount: 2
Fore
SplineSet
277 1390 m 1,0,-1
 522 1390 l 1,1,-1
 522 600 l 1,2,-1
 277 600 l 1,3,-1
 277 1390 l 1,0,-1
1105 1330 m 1,4,-1
 1350 1330 l 1,5,-1
 600 0 l 1,6,-1
 355 0 l 1,7,-1
 1105 1330 l 1,4,-1
1666 -8 m 1,8,9
 1373 11 1373 11 1108 -7 c 1,10,-1
 1199 138 l 2,11,12
 1383 432 1383 432 1383 507 c 0,13,14
 1383 536 1383 536 1366 559 c 128,-1,15
 1349 582 1349 582 1329 582 c 128,-1,16
 1309 582 1309 582 1287.5 578.5 c 128,-1,17
 1266 575 1266 575 1244 568 c 0,18,19
 1197 551 1197 551 1168 526 c 1,20,-1
 1161 525 l 1,21,-1
 1166 754 l 1,22,23
 1224 794 1224 794 1374 794 c 0,24,25
 1491 794 1491 794 1570 738 c 0,26,27
 1653 679 1653 679 1653 579 c 0,28,29
 1653 440 1653 440 1513 201 c 1,30,-1
 1669 201 l 2,31,32
 1738 201 1738 201 1760 218 c 1,33,-1
 1765 216 l 1,34,-1
 1666 -8 l 1,8,9
EndSplineSet
EndChar

StartChar: threequarters
Encoding: 190 190 147
Width: 2214
GlyphClass: 2
Flags: W
LayerCount: 2
Fore
SplineSet
1314 1330 m 1,0,-1
 1559 1330 l 1,1,-1
 809 0 l 1,2,-1
 564 0 l 1,3,-1
 1314 1330 l 1,0,-1
1846 363 m 2,4,5
 1940 363 1940 363 1994 377 c 1,6,-1
 1997 374 l 1,7,-1
 1935 143 l 1,8,-1
 1825 143 l 1,9,-1
 1825 0 l 1,10,-1
 1580 0 l 1,11,-1
 1580 143 l 1,12,-1
 1194 143 l 1,13,-1
 1174 187 l 1,14,-1
 1485 770 l 1,15,-1
 1825 769 l 1,16,-1
 1825 363 l 1,17,-1
 1846 363 l 2,4,5
1580 363 m 1,18,-1
 1580 600 l 1,19,-1
 1484 363 l 1,20,-1
 1580 363 l 1,18,-1
697 1054 m 1,21,22
 758 1022 758 1022 795 967.5 c 128,-1,23
 832 913 832 913 832 852 c 128,-1,24
 832 791 832 791 808.5 744.5 c 128,-1,25
 785 698 785 698 741 666 c 0,26,27
 650 598 650 598 494 598 c 0,28,29
 315 598 315 598 218 671 c 1,30,-1
 216 870 l 1,31,-1
 221 876 l 1,32,33
 271 826 271 826 409 804 c 0,34,35
 449 797 449 797 487 797 c 0,36,37
 601 797 601 797 601 860 c 0,38,39
 601 885 601 885 581 900 c 0,40,41
 544 929 544 929 509.5 929 c 128,-1,42
 475 929 475 929 459 927 c 128,-1,43
 443 925 443 925 430 923 c 0,44,45
 402 919 402 919 399 916 c 1,46,-1
 396 921 l 1,47,-1
 401 1076 l 1,48,49
 431 1091 431 1091 492 1091 c 2,50,-1
 493 1091 l 1,51,52
 545 1111 545 1111 545 1146 c 0,53,54
 545 1212 545 1212 451.5 1212 c 128,-1,55
 358 1212 358 1212 287 1170 c 1,56,-1
 285 1173 l 1,57,-1
 278 1363 l 1,58,59
 356 1415 356 1415 512 1415 c 0,60,61
 635 1415 635 1415 712 1364 c 1,62,63
 788 1312 788 1312 788 1216 c 128,-1,64
 788 1120 788 1120 697 1054 c 1,21,22
EndSplineSet
EndChar

StartChar: questiondown
Encoding: 191 191 148
Width: 1026
GlyphClass: 2
Flags: W
LayerCount: 2
Fore
SplineSet
360 877 m 1,0,1
 447 942 447 942 548 990 c 1,2,3
 673 942 673 942 673 812 c 0,4,5
 673 756 673 756 644 709 c 1,6,7
 586 619 586 619 475 526 c 0,8,9
 394 458 394 458 372 426 c 0,10,11
 339 378 339 378 339 337 c 128,-1,12
 339 296 339 296 356 267.5 c 128,-1,13
 373 239 373 239 403 219 c 0,14,15
 464 178 464 178 557 178 c 0,16,17
 679 178 679 178 776 261 c 0,18,19
 809 289 809 289 830 329 c 1,20,-1
 837 331 l 1,21,22
 834 287 834 287 846 242 c 2,23,-1
 888 92 l 1,24,25
 746 -42 746 -42 521 -42 c 0,26,27
 330 -42 330 -42 202 67 c 1,28,29
 82 171 82 171 82 316 c 0,30,31
 82 388 82 388 112 440 c 0,32,33
 161 526 161 526 240 595.5 c 128,-1,34
 319 665 319 665 349 696 c 128,-1,35
 379 727 379 727 394 748 c 0,36,37
 417 780 417 780 417 809 c 128,-1,38
 417 838 417 838 399.5 855.5 c 128,-1,39
 382 873 382 873 360 877 c 1,0,1
382 1093 m 1,40,41
 386 1143 386 1143 386 1220.5 c 128,-1,42
 386 1298 386 1298 382 1333 c 1,43,-1
 647 1333 l 1,44,45
 639 1271 639 1271 639 1210.5 c 128,-1,46
 639 1150 639 1150 645 1093 c 1,47,-1
 382 1093 l 1,40,41
EndSplineSet
EndChar

StartChar: Agrave
Encoding: 192 192 149
Width: 1197
GlyphClass: 2
Flags: W
LayerCount: 2
Fore
SplineSet
269 -8 m 1,0,1
 183 0 183 0 68 0 c 2,2,-1
 -11 0 l 1,3,-1
 424 1219 l 2,4,5
 453 1301 453 1301 453 1314.5 c 128,-1,6
 453 1328 453 1328 452 1331 c 1,7,-1
 453 1333 l 1,8,9
 518 1330 518 1330 591 1330 c 0,10,11
 651 1330 651 1330 735 1332 c 1,12,-1
 736 1330 l 1,13,14
 734 1326 734 1326 734 1319 c 0,15,16
 734 1300 734 1300 764 1218 c 2,17,-1
 1208 -3 l 1,18,19
 1188 -2 1188 -2 1161 -2 c 1,20,21
 1161 -2 1161 -2 1109 0 c 0,22,23
 1084 0 1084 0 1064 0 c 2,24,-1
 909 0 l 1,25,-1
 815 288 l 1,26,-1
 363 288 l 1,27,-1
 269 -8 l 1,0,1
737 528 m 1,28,-1
 586 993 l 1,29,-1
 439 528 l 1,30,-1
 737 528 l 1,28,-1
354 1805 m 1,31,32
 524 1788 524 1788 674 1788 c 1,33,-1
 843 1475 l 1,34,-1
 617 1475 l 1,35,-1
 355 1798 l 1,36,-1
 354 1805 l 1,31,32
EndSplineSet
EndChar

StartChar: Aacute
Encoding: 193 193 150
Width: 1197
GlyphClass: 2
Flags: W
LayerCount: 2
Fore
SplineSet
269 -8 m 1,0,1
 183 0 183 0 68 0 c 2,2,-1
 -11 0 l 1,3,-1
 424 1219 l 2,4,5
 453 1301 453 1301 453 1314.5 c 128,-1,6
 453 1328 453 1328 452 1331 c 1,7,-1
 453 1333 l 1,8,9
 518 1330 518 1330 591 1330 c 0,10,11
 651 1330 651 1330 735 1332 c 1,12,-1
 736 1330 l 1,13,14
 734 1326 734 1326 734 1319 c 0,15,16
 734 1300 734 1300 764 1218 c 2,17,-1
 1208 -3 l 1,18,19
 1188 -2 1188 -2 1161 -2 c 1,20,21
 1161 -2 1161 -2 1109 0 c 0,22,23
 1084 0 1084 0 1064 0 c 2,24,-1
 909 0 l 1,25,-1
 815 288 l 1,26,-1
 363 288 l 1,27,-1
 269 -8 l 1,0,1
737 528 m 1,28,-1
 586 993 l 1,29,-1
 439 528 l 1,30,-1
 737 528 l 1,28,-1
523 1788 m 1,31,32
 673 1788 673 1788 843 1805 c 1,33,-1
 842 1798 l 1,34,-1
 580 1475 l 1,35,-1
 354 1475 l 1,36,-1
 523 1788 l 1,31,32
EndSplineSet
EndChar

StartChar: Acircumflex
Encoding: 194 194 151
Width: 1197
GlyphClass: 2
Flags: W
LayerCount: 2
Fore
SplineSet
269 -8 m 1,0,1
 183 0 183 0 68 0 c 2,2,-1
 -11 0 l 1,3,-1
 424 1219 l 2,4,5
 453 1301 453 1301 453 1314.5 c 128,-1,6
 453 1328 453 1328 452 1331 c 1,7,-1
 453 1333 l 1,8,9
 518 1330 518 1330 591 1330 c 0,10,11
 651 1330 651 1330 735 1332 c 1,12,-1
 736 1330 l 1,13,14
 734 1326 734 1326 734 1319 c 0,15,16
 734 1300 734 1300 764 1218 c 2,17,-1
 1208 -3 l 1,18,19
 1188 -2 1188 -2 1161 -2 c 1,20,21
 1161 -2 1161 -2 1109 0 c 0,22,23
 1084 0 1084 0 1064 0 c 2,24,-1
 909 0 l 1,25,-1
 815 288 l 1,26,-1
 363 288 l 1,27,-1
 269 -8 l 1,0,1
737 528 m 1,28,-1
 586 993 l 1,29,-1
 439 528 l 1,30,-1
 737 528 l 1,28,-1
497 1473 m 1,31,32
 282 1473 282 1473 234 1470 c 1,33,-1
 231 1473 l 1,34,-1
 473 1804 l 1,35,36
 497 1801 497 1801 539 1801 c 2,37,-1
 590 1801 l 1,38,-1
 711 1804 l 1,39,-1
 966 1473 l 1,40,-1
 962 1470 l 1,41,-1
 707 1473 l 1,42,-1
 594 1650 l 1,43,-1
 497 1473 l 1,31,32
EndSplineSet
EndChar

StartChar: Atilde
Encoding: 195 195 152
Width: 1197
GlyphClass: 2
Flags: W
LayerCount: 2
Fore
SplineSet
269 -8 m 1,0,1
 183 0 183 0 68 0 c 2,2,-1
 -11 0 l 1,3,-1
 424 1219 l 2,4,5
 453 1301 453 1301 453 1314.5 c 128,-1,6
 453 1328 453 1328 452 1331 c 1,7,-1
 453 1333 l 1,8,9
 518 1330 518 1330 591 1330 c 0,10,11
 651 1330 651 1330 735 1332 c 1,12,-1
 736 1330 l 1,13,14
 734 1326 734 1326 734 1319 c 0,15,16
 734 1300 734 1300 764 1218 c 2,17,-1
 1208 -3 l 1,18,19
 1188 -2 1188 -2 1161 -2 c 1,20,21
 1161 -2 1161 -2 1109 0 c 0,22,23
 1084 0 1084 0 1064 0 c 2,24,-1
 909 0 l 1,25,-1
 815 288 l 1,26,-1
 363 288 l 1,27,-1
 269 -8 l 1,0,1
737 528 m 1,28,-1
 586 993 l 1,29,-1
 439 528 l 1,30,-1
 737 528 l 1,28,-1
435 1565 m 0,31,32
 341 1565 341 1565 268 1490 c 1,33,-1
 264 1491 l 1,34,-1
 260 1690 l 1,35,36
 328 1770 328 1770 445 1770 c 0,37,38
 537 1770 537 1770 616 1715.5 c 128,-1,39
 695 1661 695 1661 779 1661 c 0,40,41
 898 1661 898 1661 935 1745 c 1,42,-1
 937 1743 l 1,43,-1
 927 1527 l 1,44,45
 910 1497 910 1497 866 1477.5 c 128,-1,46
 822 1458 822 1458 774 1458 c 128,-1,47
 726 1458 726 1458 696.5 1466 c 128,-1,48
 667 1474 667 1474 642 1486 c 128,-1,49
 617 1498 617 1498 595.5 1511.5 c 128,-1,50
 574 1525 574 1525 550 1537 c 0,51,52
 494 1565 494 1565 435 1565 c 0,31,32
EndSplineSet
EndChar

StartChar: Adieresis
Encoding: 196 196 153
Width: 1197
GlyphClass: 2
Flags: W
LayerCount: 2
Fore
SplineSet
269 -8 m 1,0,1
 183 0 183 0 68 0 c 2,2,-1
 -11 0 l 1,3,-1
 424 1219 l 2,4,5
 453 1301 453 1301 453 1314.5 c 128,-1,6
 453 1328 453 1328 452 1331 c 1,7,-1
 453 1333 l 1,8,9
 518 1330 518 1330 591 1330 c 0,10,11
 651 1330 651 1330 735 1332 c 1,12,-1
 736 1330 l 1,13,14
 734 1326 734 1326 734 1319 c 0,15,16
 734 1300 734 1300 764 1218 c 2,17,-1
 1208 -3 l 1,18,19
 1188 -2 1188 -2 1161 -2 c 1,20,21
 1161 -2 1161 -2 1109 0 c 0,22,23
 1084 0 1084 0 1064 0 c 2,24,-1
 909 0 l 1,25,-1
 815 288 l 1,26,-1
 363 288 l 1,27,-1
 269 -8 l 1,0,1
737 528 m 1,28,-1
 586 993 l 1,29,-1
 439 528 l 1,30,-1
 737 528 l 1,28,-1
946 1715 m 1,31,32
 942 1665 942 1665 942 1587.5 c 128,-1,33
 942 1510 942 1510 946 1475 c 1,34,-1
 681 1475 l 1,35,36
 689 1537 689 1537 689 1597.5 c 128,-1,37
 689 1658 689 1658 683 1715 c 1,38,-1
 946 1715 l 1,31,32
516 1715 m 1,39,40
 512 1665 512 1665 512 1587.5 c 128,-1,41
 512 1510 512 1510 516 1475 c 1,42,-1
 251 1475 l 1,43,44
 259 1537 259 1537 259 1597.5 c 128,-1,45
 259 1658 259 1658 253 1715 c 1,46,-1
 516 1715 l 1,39,40
EndSplineSet
EndChar

StartChar: Aring
Encoding: 197 197 154
Width: 1197
GlyphClass: 2
Flags: W
LayerCount: 2
Fore
SplineSet
269 -8 m 1,0,1
 183 0 183 0 68 0 c 2,2,-1
 -11 0 l 1,3,-1
 424 1219 l 2,4,5
 453 1301 453 1301 453 1314.5 c 128,-1,6
 453 1328 453 1328 452 1331 c 1,7,-1
 453 1333 l 1,8,9
 518 1330 518 1330 591 1330 c 0,10,11
 651 1330 651 1330 735 1332 c 1,12,-1
 736 1330 l 1,13,14
 734 1326 734 1326 734 1319 c 0,15,16
 734 1300 734 1300 764 1218 c 2,17,-1
 1208 -3 l 1,18,19
 1188 -2 1188 -2 1161 -2 c 1,20,21
 1161 -2 1161 -2 1109 0 c 0,22,23
 1084 0 1084 0 1064 0 c 2,24,-1
 909 0 l 1,25,-1
 815 288 l 1,26,-1
 363 288 l 1,27,-1
 269 -8 l 1,0,1
737 528 m 1,28,-1
 586 993 l 1,29,-1
 439 528 l 1,30,-1
 737 528 l 1,28,-1
592 1367 m 0,31,32
 531 1367 531 1367 481 1383 c 128,-1,33
 431 1399 431 1399 395 1429 c 0,34,35
 319 1492 319 1492 319 1601 c 0,36,37
 319 1708 319 1708 394 1774 c 1,38,39
 470 1843 470 1843 606 1843 c 0,40,41
 726 1843 726 1843 802 1774 c 0,42,43
 877 1707 877 1707 877 1606 c 0,44,45
 877 1496 877 1496 797 1431 c 0,46,47
 719 1367 719 1367 592 1367 c 0,31,32
546 1516 m 128,-1,49
 569 1508 569 1508 595.5 1508 c 128,-1,50
 622 1508 622 1508 643 1515.5 c 128,-1,51
 664 1523 664 1523 680 1536 c 0,52,53
 715 1566 715 1566 715 1595.5 c 128,-1,54
 715 1625 715 1625 707.5 1642.5 c 128,-1,55
 700 1660 700 1660 685 1674 c 0,56,57
 651 1707 651 1707 607.5 1707 c 128,-1,58
 564 1707 564 1707 542 1698 c 128,-1,59
 520 1689 520 1689 506 1674 c 1,60,61
 478 1647 478 1647 478 1617 c 128,-1,62
 478 1587 478 1587 485.5 1569 c 128,-1,63
 493 1551 493 1551 508 1537.5 c 128,-1,48
 523 1524 523 1524 546 1516 c 128,-1,49
EndSplineSet
EndChar

StartChar: AE
Encoding: 198 198 155
Width: 1706
GlyphClass: 2
Flags: W
LayerCount: 2
Fore
SplineSet
279 -8 m 1,0,1
 171 0 171 0 64 0 c 2,2,-1
 -15 0 l 1,3,-1
 687 1219 l 1,4,-1
 720 1274 l 1,5,6
 737 1300 737 1300 737 1312.5 c 128,-1,7
 737 1325 737 1325 735 1331 c 1,8,-1
 736 1333 l 1,9,10
 800 1330 800 1330 874 1330 c 2,11,-1
 1083 1330 l 2,12,13
 1144 1330 1144 1330 1202 1330 c 2,14,-1
 1321 1332 l 1,15,16
 1452 1333 1452 1333 1588 1338 c 1,17,18
 1577 1250 1577 1250 1577 1103 c 0,19,20
 1577 1087 1577 1087 1579 1079 c 1,21,-1
 1577 1076 l 1,22,23
 1524 1091 1524 1091 1429 1091 c 2,24,-1
 1098 1091 l 1,25,-1
 1098 836 l 1,26,-1
 1360 836 l 2,27,28
 1470 836 1470 836 1492 842 c 1,29,-1
 1495 595 l 1,30,31
 1447 600 1447 600 1371 600 c 2,32,-1
 1098 600 l 1,33,-1
 1098 240 l 1,34,-1
 1522 240 l 2,35,36
 1584 240 1584 240 1608 252 c 1,37,-1
 1612 251 l 1,38,-1
 1602 0 l 1,39,-1
 843 0 l 1,40,-1
 845 288 l 1,41,-1
 438 288 l 1,42,-1
 279 -8 l 1,0,1
847 528 m 1,43,-1
 851 1057 l 1,44,-1
 567 528 l 1,45,-1
 847 528 l 1,43,-1
EndSplineSet
EndChar

StartChar: Ccedilla
Encoding: 199 199 156
Width: 1188
GlyphClass: 2
Flags: W
LayerCount: 2
Fore
SplineSet
790 -20 m 1,0,1
 797 -76 797 -76 797 -155.5 c 128,-1,2
 797 -235 797 -235 774.5 -290 c 128,-1,3
 752 -345 752 -345 723 -362 c 1,4,5
 664 -400 664 -400 508 -432 c 1,6,-1
 502 -426 l 1,7,8
 551 -356 551 -356 568 -128 c 0,9,10
 572 -67 572 -67 572 -16 c 1,11,12
 325 21 325 21 185 208 c 0,13,14
 52 387 52 387 52 659 c 0,15,16
 52 982 52 982 234 1168 c 0,17,18
 418 1355 418 1355 749 1355 c 0,19,20
 955 1355 955 1355 1087 1290 c 1,21,-1
 1087 984 l 1,22,-1
 1085 982 l 1,23,24
 1029 1068 1029 1068 849 1096 c 0,25,26
 796 1105 796 1105 715 1105 c 128,-1,27
 634 1105 634 1105 556 1074.5 c 128,-1,28
 478 1044 478 1044 428 988 c 0,29,30
 331 879 331 879 331 677 c 0,31,32
 331 442 331 442 454 327 c 0,33,34
 556 231 556 231 724 231 c 0,35,36
 914 231 914 231 1032 312 c 0,37,38
 1075 341 1075 341 1105 384 c 1,39,-1
 1108 382 l 1,40,-1
 1108 102 l 1,41,42
 986 0 986 0 790 -20 c 1,0,1
EndSplineSet
EndChar

StartChar: Egrave
Encoding: 200 200 157
Width: 1026
GlyphClass: 2
Flags: W
LayerCount: 2
Fore
SplineSet
841 240 m 2,0,1
 903 240 903 240 927 252 c 1,2,-1
 931 251 l 1,3,-1
 921 0 l 1,4,-1
 172 0 l 1,5,-1
 172 1337 l 1,6,7
 199 1335 199 1335 232 1334 c 2,8,-1
 302 1332 l 2,9,10
 372 1330 372 1330 454 1330 c 0,11,12
 683 1330 683 1330 907 1338 c 1,13,14
 896 1250 896 1250 896 1103 c 0,15,16
 896 1087 896 1087 898 1079 c 1,17,-1
 896 1076 l 1,18,19
 844 1091 844 1091 748 1091 c 2,20,-1
 433 1091 l 1,21,-1
 433 836 l 1,22,-1
 670 836 l 2,23,24
 780 836 780 836 802 842 c 1,25,-1
 805 595 l 1,26,27
 757 600 757 600 681 600 c 2,28,-1
 433 600 l 1,29,-1
 433 240 l 1,30,-1
 841 240 l 2,0,1
292 1805 m 1,31,32
 462 1788 462 1788 612 1788 c 1,33,-1
 781 1475 l 1,34,-1
 555 1475 l 1,35,-1
 293 1798 l 1,36,-1
 292 1805 l 1,31,32
EndSplineSet
EndChar

StartChar: Eacute
Encoding: 201 201 158
Width: 1026
GlyphClass: 2
Flags: W
LayerCount: 2
Fore
SplineSet
841 240 m 2,0,1
 903 240 903 240 927 252 c 1,2,-1
 931 251 l 1,3,-1
 921 0 l 1,4,-1
 172 0 l 1,5,-1
 172 1337 l 1,6,7
 199 1335 199 1335 232 1334 c 2,8,-1
 302 1332 l 2,9,10
 372 1330 372 1330 454 1330 c 0,11,12
 683 1330 683 1330 907 1338 c 1,13,14
 896 1250 896 1250 896 1103 c 0,15,16
 896 1087 896 1087 898 1079 c 1,17,-1
 896 1076 l 1,18,19
 844 1091 844 1091 748 1091 c 2,20,-1
 433 1091 l 1,21,-1
 433 836 l 1,22,-1
 670 836 l 2,23,24
 780 836 780 836 802 842 c 1,25,-1
 805 595 l 1,26,27
 757 600 757 600 681 600 c 2,28,-1
 433 600 l 1,29,-1
 433 240 l 1,30,-1
 841 240 l 2,0,1
461 1788 m 1,31,32
 611 1788 611 1788 781 1805 c 1,33,-1
 780 1798 l 1,34,-1
 518 1475 l 1,35,-1
 292 1475 l 1,36,-1
 461 1788 l 1,31,32
EndSplineSet
EndChar

StartChar: Ecircumflex
Encoding: 202 202 159
Width: 1026
GlyphClass: 2
Flags: W
LayerCount: 2
Fore
SplineSet
841 240 m 2,0,1
 903 240 903 240 927 252 c 1,2,-1
 931 251 l 1,3,-1
 921 0 l 1,4,-1
 172 0 l 1,5,-1
 172 1337 l 1,6,7
 199 1335 199 1335 232 1334 c 2,8,-1
 302 1332 l 2,9,10
 372 1330 372 1330 454 1330 c 0,11,12
 683 1330 683 1330 907 1338 c 1,13,14
 896 1250 896 1250 896 1103 c 0,15,16
 896 1087 896 1087 898 1079 c 1,17,-1
 896 1076 l 1,18,19
 844 1091 844 1091 748 1091 c 2,20,-1
 433 1091 l 1,21,-1
 433 836 l 1,22,-1
 670 836 l 2,23,24
 780 836 780 836 802 842 c 1,25,-1
 805 595 l 1,26,27
 757 600 757 600 681 600 c 2,28,-1
 433 600 l 1,29,-1
 433 240 l 1,30,-1
 841 240 l 2,0,1
435 1473 m 1,31,32
 220 1473 220 1473 172 1470 c 1,33,-1
 169 1473 l 1,34,-1
 411 1804 l 1,35,36
 435 1801 435 1801 477 1801 c 2,37,-1
 528 1801 l 1,38,-1
 649 1804 l 1,39,-1
 904 1473 l 1,40,-1
 900 1470 l 1,41,-1
 645 1473 l 1,42,-1
 532 1650 l 1,43,-1
 435 1473 l 1,31,32
EndSplineSet
EndChar

StartChar: Edieresis
Encoding: 203 203 160
Width: 1026
GlyphClass: 2
Flags: W
LayerCount: 2
Fore
SplineSet
841 240 m 2,0,1
 903 240 903 240 927 252 c 1,2,-1
 931 251 l 1,3,-1
 921 0 l 1,4,-1
 172 0 l 1,5,-1
 172 1337 l 1,6,7
 199 1335 199 1335 232 1334 c 2,8,-1
 302 1332 l 2,9,10
 372 1330 372 1330 454 1330 c 0,11,12
 683 1330 683 1330 907 1338 c 1,13,14
 896 1250 896 1250 896 1103 c 0,15,16
 896 1087 896 1087 898 1079 c 1,17,-1
 896 1076 l 1,18,19
 844 1091 844 1091 748 1091 c 2,20,-1
 433 1091 l 1,21,-1
 433 836 l 1,22,-1
 670 836 l 2,23,24
 780 836 780 836 802 842 c 1,25,-1
 805 595 l 1,26,27
 757 600 757 600 681 600 c 2,28,-1
 433 600 l 1,29,-1
 433 240 l 1,30,-1
 841 240 l 2,0,1
884 1715 m 1,31,32
 880 1665 880 1665 880 1587.5 c 128,-1,33
 880 1510 880 1510 884 1475 c 1,34,-1
 619 1475 l 1,35,36
 627 1537 627 1537 627 1597.5 c 128,-1,37
 627 1658 627 1658 621 1715 c 1,38,-1
 884 1715 l 1,31,32
454 1715 m 1,39,40
 450 1665 450 1665 450 1587.5 c 128,-1,41
 450 1510 450 1510 454 1475 c 1,42,-1
 189 1475 l 1,43,44
 197 1537 197 1537 197 1597.5 c 128,-1,45
 197 1658 197 1658 191 1715 c 1,46,-1
 454 1715 l 1,39,40
EndSplineSet
EndChar

StartChar: Igrave
Encoding: 204 204 161
Width: 684
GlyphClass: 2
Flags: W
LayerCount: 2
Fore
SplineSet
203 1334 m 1,0,1
 303 1330 303 1330 324 1330 c 2,2,-1
 396 1330 l 2,3,4
 449 1330 449 1330 481 1338 c 1,5,-1
 480 0 l 1,6,-1
 203 0 l 1,7,-1
 203 1334 l 1,0,1
86 1805 m 1,8,9
 256 1788 256 1788 406 1788 c 1,10,-1
 575 1475 l 1,11,-1
 349 1475 l 1,12,-1
 87 1798 l 1,13,-1
 86 1805 l 1,8,9
EndSplineSet
EndChar

StartChar: Iacute
Encoding: 205 205 162
Width: 684
GlyphClass: 2
Flags: W
LayerCount: 2
Fore
SplineSet
203 1334 m 1,0,1
 303 1330 303 1330 324 1330 c 2,2,-1
 396 1330 l 2,3,4
 449 1330 449 1330 481 1338 c 1,5,-1
 480 0 l 1,6,-1
 203 0 l 1,7,-1
 203 1334 l 1,0,1
255 1788 m 1,8,9
 405 1788 405 1788 575 1805 c 1,10,-1
 574 1798 l 1,11,-1
 312 1475 l 1,12,-1
 86 1475 l 1,13,-1
 255 1788 l 1,8,9
EndSplineSet
EndChar

StartChar: Icircumflex
Encoding: 206 206 163
Width: 684
GlyphClass: 2
Flags: W
LayerCount: 2
Fore
SplineSet
203 1334 m 1,0,1
 303 1330 303 1330 324 1330 c 2,2,-1
 396 1330 l 2,3,4
 449 1330 449 1330 481 1338 c 1,5,-1
 480 0 l 1,6,-1
 203 0 l 1,7,-1
 203 1334 l 1,0,1
229 1473 m 1,8,9
 14 1473 14 1473 -34 1470 c 1,10,-1
 -37 1473 l 1,11,-1
 205 1804 l 1,12,13
 229 1801 229 1801 271 1801 c 2,14,-1
 322 1801 l 1,15,-1
 443 1804 l 1,16,-1
 698 1473 l 1,17,-1
 694 1470 l 1,18,-1
 439 1473 l 1,19,-1
 326 1650 l 1,20,-1
 229 1473 l 1,8,9
EndSplineSet
EndChar

StartChar: Idieresis
Encoding: 207 207 164
Width: 684
GlyphClass: 2
Flags: W
LayerCount: 2
Fore
SplineSet
203 1334 m 1,0,1
 303 1330 303 1330 324 1330 c 2,2,-1
 396 1330 l 2,3,4
 449 1330 449 1330 481 1338 c 1,5,-1
 480 0 l 1,6,-1
 203 0 l 1,7,-1
 203 1334 l 1,0,1
678 1715 m 1,8,9
 674 1665 674 1665 674 1587.5 c 128,-1,10
 674 1510 674 1510 678 1475 c 1,11,-1
 413 1475 l 1,12,13
 421 1537 421 1537 421 1597.5 c 128,-1,14
 421 1658 421 1658 415 1715 c 1,15,-1
 678 1715 l 1,8,9
248 1715 m 1,16,17
 244 1665 244 1665 244 1587.5 c 128,-1,18
 244 1510 244 1510 248 1475 c 1,19,-1
 -17 1475 l 1,20,21
 -9 1537 -9 1537 -9 1597.5 c 128,-1,22
 -9 1658 -9 1658 -15 1715 c 1,23,-1
 248 1715 l 1,16,17
EndSplineSet
EndChar

StartChar: Eth
Encoding: 208 208 165
Width: 1364
GlyphClass: 2
Flags: W
LayerCount: 2
Fore
SplineSet
496 -25 m 0,0,1
 334 -25 334 -25 191 1 c 1,2,-1
 191 548 l 1,3,-1
 92 548 l 1,4,-1
 92 784 l 1,5,-1
 191 784 l 1,6,-1
 191 1339 l 1,7,8
 323 1355 323 1355 497.5 1355 c 128,-1,9
 672 1355 672 1355 813.5 1307.5 c 128,-1,10
 955 1260 955 1260 1050 1172 c 0,11,12
 1242 996 1242 996 1242 679 c 0,13,14
 1242 324 1242 324 1028 140 c 0,15,16
 836 -25 836 -25 496 -25 c 0,0,1
451 219 m 1,17,18
 516 207 516 207 581 207 c 128,-1,19
 646 207 646 207 721 232.5 c 128,-1,20
 796 258 796 258 851 312 c 0,21,22
 969 426 969 426 969 644 c 0,23,24
 969 1002 969 1002 708 1084 c 0,25,26
 622 1111 622 1111 509 1111 c 2,27,-1
 482 1111 l 2,28,29
 467 1111 467 1111 451 1110 c 1,30,-1
 451 784 l 1,31,-1
 751 784 l 1,32,-1
 751 548 l 1,33,-1
 451 548 l 1,34,-1
 451 219 l 1,17,18
EndSplineSet
EndChar

StartChar: Ntilde
Encoding: 209 209 166
Width: 1359
GlyphClass: 2
Flags: W
LayerCount: 2
Fore
SplineSet
181 0 m 1,0,1
 187 34 187 34 187 74 c 2,2,-1
 187 1330 l 1,3,-1
 387 1330 l 1,4,-1
 917 496 l 1,5,-1
 917 1262 l 2,6,7
 917 1317 917 1317 907 1330 c 1,8,-1
 1177 1330 l 1,9,10
 1172 1290 1172 1290 1172 1242 c 2,11,-1
 1172 0 l 1,12,-1
 964 0 l 1,13,-1
 442 801 l 1,14,-1
 442 0 l 1,15,-1
 181 0 l 1,0,1
516 1565 m 0,16,17
 422 1565 422 1565 349 1490 c 1,18,-1
 345 1491 l 1,19,-1
 341 1690 l 1,20,21
 409 1770 409 1770 526 1770 c 0,22,23
 618 1770 618 1770 697 1715.5 c 128,-1,24
 776 1661 776 1661 860 1661 c 0,25,26
 979 1661 979 1661 1016 1745 c 1,27,-1
 1018 1743 l 1,28,-1
 1008 1527 l 1,29,30
 991 1497 991 1497 947 1477.5 c 128,-1,31
 903 1458 903 1458 855 1458 c 128,-1,32
 807 1458 807 1458 777.5 1466 c 128,-1,33
 748 1474 748 1474 723 1486 c 128,-1,34
 698 1498 698 1498 676.5 1511.5 c 128,-1,35
 655 1525 655 1525 631 1537 c 0,36,37
 575 1565 575 1565 516 1565 c 0,16,17
EndSplineSet
EndChar

StartChar: Ograve
Encoding: 210 210 167
Width: 1535
GlyphClass: 2
Flags: W
LayerCount: 2
Fore
SplineSet
137.5 367 m 128,-1,1
 85 489 85 489 85 634.5 c 128,-1,2
 85 780 85 780 134 910 c 128,-1,3
 183 1040 183 1040 274 1139 c 128,-1,4
 365 1238 365 1238 494 1296.5 c 128,-1,5
 623 1355 623 1355 783 1355 c 0,6,7
 1059 1355 1059 1355 1248 1181 c 0,8,9
 1450 995 1450 995 1450 679 c 0,10,11
 1450 373 1450 373 1242 170 c 0,12,13
 1114 45 1114 45 937 -2 c 0,14,15
 850 -25 850 -25 733.5 -25 c 128,-1,16
 617 -25 617 -25 494.5 23 c 128,-1,17
 372 71 372 71 281 158 c 128,-1,0
 190 245 190 245 137.5 367 c 128,-1,1
363 648 m 0,18,19
 363 555 363 555 394 477 c 128,-1,20
 425 399 425 399 480 343 c 0,21,22
 597 225 597 225 781 225 c 0,23,24
 956 225 956 225 1062 338 c 1,25,26
 1170 455 1170 455 1170 657 c 0,27,28
 1170 847 1170 847 1067 974 c 0,29,30
 956 1110 956 1110 763 1110 c 0,31,32
 576 1110 576 1110 466 972 c 0,33,34
 363 843 363 843 363 648 c 0,18,19
523 1805 m 1,35,36
 693 1788 693 1788 843 1788 c 1,37,-1
 1012 1475 l 1,38,-1
 786 1475 l 1,39,-1
 524 1798 l 1,40,-1
 523 1805 l 1,35,36
EndSplineSet
EndChar

StartChar: Oacute
Encoding: 211 211 168
Width: 1535
GlyphClass: 2
Flags: W
LayerCount: 2
Fore
SplineSet
137.5 367 m 128,-1,1
 85 489 85 489 85 634.5 c 128,-1,2
 85 780 85 780 134 910 c 128,-1,3
 183 1040 183 1040 274 1139 c 128,-1,4
 365 1238 365 1238 494 1296.5 c 128,-1,5
 623 1355 623 1355 783 1355 c 0,6,7
 1059 1355 1059 1355 1248 1181 c 0,8,9
 1450 995 1450 995 1450 679 c 0,10,11
 1450 373 1450 373 1242 170 c 0,12,13
 1114 45 1114 45 937 -2 c 0,14,15
 850 -25 850 -25 733.5 -25 c 128,-1,16
 617 -25 617 -25 494.5 23 c 128,-1,17
 372 71 372 71 281 158 c 128,-1,0
 190 245 190 245 137.5 367 c 128,-1,1
363 648 m 0,18,19
 363 555 363 555 394 477 c 128,-1,20
 425 399 425 399 480 343 c 0,21,22
 597 225 597 225 781 225 c 0,23,24
 956 225 956 225 1062 338 c 1,25,26
 1170 455 1170 455 1170 657 c 0,27,28
 1170 847 1170 847 1067 974 c 0,29,30
 956 1110 956 1110 763 1110 c 0,31,32
 576 1110 576 1110 466 972 c 0,33,34
 363 843 363 843 363 648 c 0,18,19
692 1788 m 1,35,36
 842 1788 842 1788 1012 1805 c 1,37,-1
 1011 1798 l 1,38,-1
 749 1475 l 1,39,-1
 523 1475 l 1,40,-1
 692 1788 l 1,35,36
EndSplineSet
EndChar

StartChar: Ocircumflex
Encoding: 212 212 169
Width: 1535
GlyphClass: 2
Flags: W
LayerCount: 2
Fore
SplineSet
137.5 367 m 128,-1,1
 85 489 85 489 85 634.5 c 128,-1,2
 85 780 85 780 134 910 c 128,-1,3
 183 1040 183 1040 274 1139 c 128,-1,4
 365 1238 365 1238 494 1296.5 c 128,-1,5
 623 1355 623 1355 783 1355 c 0,6,7
 1059 1355 1059 1355 1248 1181 c 0,8,9
 1450 995 1450 995 1450 679 c 0,10,11
 1450 373 1450 373 1242 170 c 0,12,13
 1114 45 1114 45 937 -2 c 0,14,15
 850 -25 850 -25 733.5 -25 c 128,-1,16
 617 -25 617 -25 494.5 23 c 128,-1,17
 372 71 372 71 281 158 c 128,-1,0
 190 245 190 245 137.5 367 c 128,-1,1
363 648 m 0,18,19
 363 555 363 555 394 477 c 128,-1,20
 425 399 425 399 480 343 c 0,21,22
 597 225 597 225 781 225 c 0,23,24
 956 225 956 225 1062 338 c 1,25,26
 1170 455 1170 455 1170 657 c 0,27,28
 1170 847 1170 847 1067 974 c 0,29,30
 956 1110 956 1110 763 1110 c 0,31,32
 576 1110 576 1110 466 972 c 0,33,34
 363 843 363 843 363 648 c 0,18,19
666 1473 m 1,35,36
 451 1473 451 1473 403 1470 c 1,37,-1
 400 1473 l 1,38,-1
 642 1804 l 1,39,40
 666 1801 666 1801 708 1801 c 2,41,-1
 759 1801 l 1,42,-1
 880 1804 l 1,43,-1
 1135 1473 l 1,44,-1
 1131 1470 l 1,45,-1
 876 1473 l 1,46,-1
 763 1650 l 1,47,-1
 666 1473 l 1,35,36
EndSplineSet
EndChar

StartChar: Otilde
Encoding: 213 213 170
Width: 1535
GlyphClass: 2
Flags: W
LayerCount: 2
Fore
SplineSet
137.5 367 m 128,-1,1
 85 489 85 489 85 634.5 c 128,-1,2
 85 780 85 780 134 910 c 128,-1,3
 183 1040 183 1040 274 1139 c 128,-1,4
 365 1238 365 1238 494 1296.5 c 128,-1,5
 623 1355 623 1355 783 1355 c 0,6,7
 1059 1355 1059 1355 1248 1181 c 0,8,9
 1450 995 1450 995 1450 679 c 0,10,11
 1450 373 1450 373 1242 170 c 0,12,13
 1114 45 1114 45 937 -2 c 0,14,15
 850 -25 850 -25 733.5 -25 c 128,-1,16
 617 -25 617 -25 494.5 23 c 128,-1,17
 372 71 372 71 281 158 c 128,-1,0
 190 245 190 245 137.5 367 c 128,-1,1
363 648 m 0,18,19
 363 555 363 555 394 477 c 128,-1,20
 425 399 425 399 480 343 c 0,21,22
 597 225 597 225 781 225 c 0,23,24
 956 225 956 225 1062 338 c 1,25,26
 1170 455 1170 455 1170 657 c 0,27,28
 1170 847 1170 847 1067 974 c 0,29,30
 956 1110 956 1110 763 1110 c 0,31,32
 576 1110 576 1110 466 972 c 0,33,34
 363 843 363 843 363 648 c 0,18,19
604 1565 m 0,35,36
 510 1565 510 1565 437 1490 c 1,37,-1
 433 1491 l 1,38,-1
 429 1690 l 1,39,40
 497 1770 497 1770 614 1770 c 0,41,42
 706 1770 706 1770 785 1715.5 c 128,-1,43
 864 1661 864 1661 948 1661 c 0,44,45
 1067 1661 1067 1661 1104 1745 c 1,46,-1
 1106 1743 l 1,47,-1
 1096 1527 l 1,48,49
 1079 1497 1079 1497 1035 1477.5 c 128,-1,50
 991 1458 991 1458 943 1458 c 128,-1,51
 895 1458 895 1458 865.5 1466 c 128,-1,52
 836 1474 836 1474 811 1486 c 128,-1,53
 786 1498 786 1498 764.5 1511.5 c 128,-1,54
 743 1525 743 1525 719 1537 c 0,55,56
 663 1565 663 1565 604 1565 c 0,35,36
EndSplineSet
EndChar

StartChar: Odieresis
Encoding: 214 214 171
Width: 1535
GlyphClass: 2
Flags: W
LayerCount: 2
Fore
SplineSet
137.5 367 m 128,-1,1
 85 489 85 489 85 634.5 c 128,-1,2
 85 780 85 780 134 910 c 128,-1,3
 183 1040 183 1040 274 1139 c 128,-1,4
 365 1238 365 1238 494 1296.5 c 128,-1,5
 623 1355 623 1355 783 1355 c 0,6,7
 1059 1355 1059 1355 1248 1181 c 0,8,9
 1450 995 1450 995 1450 679 c 0,10,11
 1450 373 1450 373 1242 170 c 0,12,13
 1114 45 1114 45 937 -2 c 0,14,15
 850 -25 850 -25 733.5 -25 c 128,-1,16
 617 -25 617 -25 494.5 23 c 128,-1,17
 372 71 372 71 281 158 c 128,-1,0
 190 245 190 245 137.5 367 c 128,-1,1
363 648 m 0,18,19
 363 555 363 555 394 477 c 128,-1,20
 425 399 425 399 480 343 c 0,21,22
 597 225 597 225 781 225 c 0,23,24
 956 225 956 225 1062 338 c 1,25,26
 1170 455 1170 455 1170 657 c 0,27,28
 1170 847 1170 847 1067 974 c 0,29,30
 956 1110 956 1110 763 1110 c 0,31,32
 576 1110 576 1110 466 972 c 0,33,34
 363 843 363 843 363 648 c 0,18,19
1115 1715 m 1,35,36
 1111 1665 1111 1665 1111 1587.5 c 128,-1,37
 1111 1510 1111 1510 1115 1475 c 1,38,-1
 850 1475 l 1,39,40
 858 1537 858 1537 858 1597.5 c 128,-1,41
 858 1658 858 1658 852 1715 c 1,42,-1
 1115 1715 l 1,35,36
685 1715 m 1,43,44
 681 1665 681 1665 681 1587.5 c 128,-1,45
 681 1510 681 1510 685 1475 c 1,46,-1
 420 1475 l 1,47,48
 428 1537 428 1537 428 1597.5 c 128,-1,49
 428 1658 428 1658 422 1715 c 1,50,-1
 685 1715 l 1,43,44
EndSplineSet
EndChar

StartChar: multiply
Encoding: 215 215 172
Width: 1364
GlyphClass: 2
Flags: W
LayerCount: 2
Fore
SplineSet
271 384 m 1,0,1
 294 397 294 397 368 473 c 1,2,-1
 510 615 l 1,3,-1
 375 751 l 1,4,5
 301 827 301 827 278 840 c 1,6,-1
 450 1017 l 1,7,8
 488 972 488 972 535 926 c 2,9,-1
 678 783 l 1,10,-1
 820 925 l 1,11,12
 896 999 896 999 909 1022 c 1,13,-1
 1086 850 l 1,14,15
 1041 812 1041 812 995 765 c 2,16,-1
 845 615 l 1,17,-1
 1002 459 l 2,18,19
 1048 412 1048 412 1093 374 c 1,20,-1
 916 202 l 1,21,22
 903 225 903 225 827 299 c 1,23,-1
 678 448 l 1,24,-1
 528 298 l 2,25,26
 481 252 481 252 443 207 c 1,27,-1
 271 384 l 1,0,1
EndSplineSet
EndChar

StartChar: Oslash
Encoding: 216 216 173
Width: 1535
GlyphClass: 2
Flags: W
LayerCount: 2
Fore
SplineSet
730 -25 m 0,0,1
 610 -25 610 -25 482 28 c 1,2,-1
 366 -170 l 1,3,-1
 170 -170 l 1,4,-1
 335 112 l 1,5,6
 220 200 220 200 152.5 333 c 128,-1,7
 85 466 85 466 85 623 c 128,-1,8
 85 780 85 780 134 910 c 128,-1,9
 183 1040 183 1040 274 1139 c 128,-1,10
 365 1238 365 1238 494 1296.5 c 128,-1,11
 623 1355 623 1355 770 1355 c 128,-1,12
 917 1355 917 1355 1036 1310 c 1,13,-1
 1164 1530 l 1,14,-1
 1360 1530 l 1,15,-1
 1185 1231 l 1,16,17
 1450 1042 1450 1042 1450 679 c 0,18,19
 1450 373 1450 373 1242 170 c 0,20,21
 1043 -25 1043 -25 730 -25 c 0,0,1
905 1087 m 1,22,23
 839 1110 839 1110 752 1110 c 128,-1,24
 665 1110 665 1110 590.5 1072.5 c 128,-1,25
 516 1035 516 1035 466 972 c 0,26,27
 363 843 363 843 363 648 c 0,28,29
 363 467 363 467 474 350 c 1,30,-1
 905 1087 l 1,22,23
615 255 m 1,31,32
 696 225 696 225 781.5 225 c 128,-1,33
 867 225 867 225 938.5 254 c 128,-1,34
 1010 283 1010 283 1062 338 c 0,35,36
 1170 455 1170 455 1170 657 c 0,37,38
 1170 866 1170 866 1047 995 c 1,39,-1
 615 255 l 1,31,32
EndSplineSet
EndChar

StartChar: Ugrave
Encoding: 217 217 174
Width: 1368
GlyphClass: 2
Flags: W
LayerCount: 2
Fore
SplineSet
930 1335 m 1,0,1
 992 1330 992 1330 1033 1330 c 2,2,-1
 1116 1330 l 2,3,4
 1158 1330 1158 1330 1204 1338 c 1,5,-1
 1204 511 l 2,6,7
 1204 265 1204 265 1055 116 c 0,8,9
 914 -25 914 -25 701 -25 c 0,10,11
 468 -25 468 -25 324 96 c 0,12,13
 163 232 163 232 163 488 c 2,14,-1
 163 1335 l 1,15,16
 246 1330 246 1330 319.5 1330 c 128,-1,17
 393 1330 393 1330 441 1338 c 1,18,-1
 441 475 l 2,19,20
 441 349 441 349 518 279 c 1,21,22
 590 215 590 215 698 215 c 0,23,24
 858 215 858 215 911 379 c 0,25,26
 930 438 930 438 930 525 c 2,27,-1
 930 1335 l 1,0,1
439 1805 m 1,28,29
 609 1788 609 1788 759 1788 c 1,30,-1
 928 1475 l 1,31,-1
 702 1475 l 1,32,-1
 440 1798 l 1,33,-1
 439 1805 l 1,28,29
EndSplineSet
EndChar

StartChar: Uacute
Encoding: 218 218 175
Width: 1368
GlyphClass: 2
Flags: W
LayerCount: 2
Fore
SplineSet
930 1335 m 1,0,1
 992 1330 992 1330 1033 1330 c 2,2,-1
 1116 1330 l 2,3,4
 1158 1330 1158 1330 1204 1338 c 1,5,-1
 1204 511 l 2,6,7
 1204 265 1204 265 1055 116 c 0,8,9
 914 -25 914 -25 701 -25 c 0,10,11
 468 -25 468 -25 324 96 c 0,12,13
 163 232 163 232 163 488 c 2,14,-1
 163 1335 l 1,15,16
 246 1330 246 1330 319.5 1330 c 128,-1,17
 393 1330 393 1330 441 1338 c 1,18,-1
 441 475 l 2,19,20
 441 349 441 349 518 279 c 1,21,22
 590 215 590 215 698 215 c 0,23,24
 858 215 858 215 911 379 c 0,25,26
 930 438 930 438 930 525 c 2,27,-1
 930 1335 l 1,0,1
608 1788 m 1,28,29
 758 1788 758 1788 928 1805 c 1,30,-1
 927 1798 l 1,31,-1
 665 1475 l 1,32,-1
 439 1475 l 1,33,-1
 608 1788 l 1,28,29
EndSplineSet
EndChar

StartChar: Ucircumflex
Encoding: 219 219 176
Width: 1368
GlyphClass: 2
Flags: W
LayerCount: 2
Fore
SplineSet
930 1335 m 1,0,1
 992 1330 992 1330 1033 1330 c 2,2,-1
 1116 1330 l 2,3,4
 1158 1330 1158 1330 1204 1338 c 1,5,-1
 1204 511 l 2,6,7
 1204 265 1204 265 1055 116 c 0,8,9
 914 -25 914 -25 701 -25 c 0,10,11
 468 -25 468 -25 324 96 c 0,12,13
 163 232 163 232 163 488 c 2,14,-1
 163 1335 l 1,15,16
 246 1330 246 1330 319.5 1330 c 128,-1,17
 393 1330 393 1330 441 1338 c 1,18,-1
 441 475 l 2,19,20
 441 349 441 349 518 279 c 1,21,22
 590 215 590 215 698 215 c 0,23,24
 858 215 858 215 911 379 c 0,25,26
 930 438 930 438 930 525 c 2,27,-1
 930 1335 l 1,0,1
582 1473 m 1,28,29
 367 1473 367 1473 319 1470 c 1,30,-1
 316 1473 l 1,31,-1
 558 1804 l 1,32,33
 582 1801 582 1801 624 1801 c 2,34,-1
 675 1801 l 1,35,-1
 796 1804 l 1,36,-1
 1051 1473 l 1,37,-1
 1047 1470 l 1,38,-1
 792 1473 l 1,39,-1
 679 1650 l 1,40,-1
 582 1473 l 1,28,29
EndSplineSet
EndChar

StartChar: Udieresis
Encoding: 220 220 177
Width: 1368
GlyphClass: 2
Flags: W
LayerCount: 2
Fore
SplineSet
930 1335 m 1,0,1
 992 1330 992 1330 1033 1330 c 2,2,-1
 1116 1330 l 2,3,4
 1158 1330 1158 1330 1204 1338 c 1,5,-1
 1204 511 l 2,6,7
 1204 265 1204 265 1055 116 c 0,8,9
 914 -25 914 -25 701 -25 c 0,10,11
 468 -25 468 -25 324 96 c 0,12,13
 163 232 163 232 163 488 c 2,14,-1
 163 1335 l 1,15,16
 246 1330 246 1330 319.5 1330 c 128,-1,17
 393 1330 393 1330 441 1338 c 1,18,-1
 441 475 l 2,19,20
 441 349 441 349 518 279 c 1,21,22
 590 215 590 215 698 215 c 0,23,24
 858 215 858 215 911 379 c 0,25,26
 930 438 930 438 930 525 c 2,27,-1
 930 1335 l 1,0,1
1031 1715 m 1,28,29
 1027 1665 1027 1665 1027 1587.5 c 128,-1,30
 1027 1510 1027 1510 1031 1475 c 1,31,-1
 766 1475 l 1,32,33
 774 1537 774 1537 774 1597.5 c 128,-1,34
 774 1658 774 1658 768 1715 c 1,35,-1
 1031 1715 l 1,28,29
601 1715 m 1,36,37
 597 1665 597 1665 597 1587.5 c 128,-1,38
 597 1510 597 1510 601 1475 c 1,39,-1
 336 1475 l 1,40,41
 344 1537 344 1537 344 1597.5 c 128,-1,42
 344 1658 344 1658 338 1715 c 1,43,-1
 601 1715 l 1,36,37
EndSplineSet
EndChar

StartChar: Yacute
Encoding: 221 221 178
Width: 1193
GlyphClass: 2
Flags: W
LayerCount: 2
Fore
SplineSet
451 0 m 1,0,1
 464 39 464 39 464 182 c 2,2,-1
 464 460 l 1,3,4
 291 841 291 841 243 935.5 c 128,-1,5
 195 1030 195 1030 162 1085 c 0,6,7
 58 1261 58 1261 36.5 1287 c 128,-1,8
 15 1313 15 1313 -7 1330 c 1,9,-1
 338 1330 l 1,10,11
 349 1310 349 1310 368 1271 c 2,12,-1
 610 760 l 1,13,14
 627 802 627 802 650 854 c 1,15,16
 868 1323 868 1323 871 1330 c 1,17,-1
 1201 1330 l 1,18,19
 1150 1289 1150 1289 1076 1158 c 0,20,21
 1053 1119 1053 1119 1030 1069 c 2,22,-1
 804 598 l 1,23,24
 766 513 766 513 739 445 c 1,25,-1
 739 158 l 2,26,27
 739 58 739 58 751 0 c 1,28,-1
 451 0 l 1,0,1
521 1788 m 1,29,30
 671 1788 671 1788 841 1805 c 1,31,-1
 840 1798 l 1,32,-1
 578 1475 l 1,33,-1
 352 1475 l 1,34,-1
 521 1788 l 1,29,30
EndSplineSet
EndChar

StartChar: Thorn
Encoding: 222 222 179
Width: 1193
GlyphClass: 2
Flags: W
LayerCount: 2
Fore
SplineSet
738.5 223 m 128,-1,1
 631 192 631 192 541.5 192 c 128,-1,2
 452 192 452 192 427 195 c 1,3,-1
 427 0 l 1,4,-1
 172 0 l 1,5,-1
 172 1330 l 1,6,-1
 427 1330 l 1,7,-1
 427 1134 l 1,8,9
 736 1134 736 1134 908 1002 c 0,10,11
 1072 876 1072 876 1072 663 c 0,12,13
 1072 436 1072 436 920 314 c 0,14,0
 846 254 846 254 738.5 223 c 128,-1,1
628.5 883.5 m 128,-1,16
 571 904 571 904 516 904 c 128,-1,17
 461 904 461 904 427 900 c 1,18,-1
 427 424 l 1,19,20
 466 421 466 421 498 421 c 0,21,22
 644 421 644 421 725 478 c 128,-1,23
 806 535 806 535 806 642 c 0,24,25
 806 757 806 757 726 828 c 0,26,15
 686 863 686 863 628.5 883.5 c 128,-1,16
EndSplineSet
EndChar

StartChar: germandbls
Encoding: 223 223 180
Width: 1193
GlyphClass: 2
Flags: W
LayerCount: 2
Fore
SplineSet
774 213 m 0,0,1
 935 213 935 213 935 359 c 0,2,3
 935 451 935 451 745 546 c 1,4,5
 630 614 630 614 595 657 c 0,6,7
 537 727 537 727 537 791 c 128,-1,8
 537 855 537 855 558 901 c 128,-1,9
 579 947 579 947 615 986.5 c 128,-1,10
 651 1026 651 1026 665.5 1048 c 128,-1,11
 680 1070 680 1070 688 1088 c 0,12,13
 703 1120 703 1120 703 1144 c 128,-1,14
 703 1168 703 1168 694.5 1183 c 128,-1,15
 686 1198 686 1198 670 1210 c 0,16,17
 634 1236 634 1236 582.5 1236 c 128,-1,18
 531 1236 531 1236 493.5 1218.5 c 128,-1,19
 456 1201 456 1201 429 1156 c 0,20,21
 372 1063 372 1063 372 849 c 2,22,-1
 372 -45 l 2,23,24
 372 -197 372 -197 350 -262 c 0,25,26
 315 -366 315 -366 259 -407 c 1,27,-1
 58 -276 l 1,28,-1
 58 -271 l 1,29,30
 104 -240 104 -240 116 -125 c 0,31,32
 127 -25 127 -25 127 271 c 2,33,-1
 127 810 l 2,34,35
 127 1445 127 1445 602 1445 c 0,36,37
 750 1445 750 1445 850 1364 c 128,-1,38
 950 1283 950 1283 950 1162 c 0,39,40
 950 1080 950 1080 894 1006 c 0,41,42
 872 977 872 977 846 950.5 c 128,-1,43
 820 924 820 924 809 911 c 128,-1,44
 798 898 798 898 792 888 c 0,45,46
 781 868 781 868 781 853 c 128,-1,47
 781 838 781 838 789.5 824.5 c 128,-1,48
 798 811 798 811 820 792 c 0,49,50
 869 750 869 750 951 699.5 c 128,-1,51
 1033 649 1033 649 1074.5 608 c 128,-1,52
 1116 567 1116 567 1140 522 c 0,53,54
 1182 443 1182 443 1182 351.5 c 128,-1,55
 1182 260 1182 260 1158 200 c 128,-1,56
 1134 140 1134 140 1086 92 c 0,57,58
 979 -15 979 -15 795 -15 c 0,59,60
 630 -15 630 -15 547 40 c 1,61,-1
 537 290 l 1,62,-1
 541 295 l 1,63,64
 591 246 591 246 648 229.5 c 128,-1,65
 705 213 705 213 774 213 c 0,0,1
EndSplineSet
EndChar

StartChar: agrave
Encoding: 224 224 181
Width: 1193
GlyphClass: 2
Flags: W
LayerCount: 2
Fore
SplineSet
837 62 m 1,0,1
 695 -15 695 -15 580 -15 c 128,-1,2
 465 -15 465 -15 383 6.5 c 128,-1,3
 301 28 301 28 244 70 c 0,4,5
 128 155 128 155 128 316 c 0,6,7
 128 460 128 460 270 556 c 0,8,9
 424 660 424 660 688 660 c 1,10,-1
 728 659 l 2,11,12
 740 658 740 658 755 657.5 c 128,-1,13
 770 657 770 657 782 655 c 1,14,15
 774 815 774 815 644 842 c 0,16,17
 601 851 601 851 552.5 851 c 128,-1,18
 504 851 504 851 457.5 842.5 c 128,-1,19
 411 834 411 834 367 820 c 0,20,21
 270 789 270 789 228 749 c 1,22,-1
 225 751 l 1,23,-1
 195 972 l 1,24,25
 372 1065 372 1065 582 1065 c 0,26,27
 908 1065 908 1065 999 830 c 0,28,29
 1028 755 1028 755 1028 661 c 2,30,-1
 1028 299 l 2,31,32
 1028 183 1028 183 1110 141 c 1,33,-1
 929 -25 l 1,34,35
 872 5 872 5 837 62 c 1,0,1
783 475 m 1,36,37
 756 480 756 480 727 480 c 2,38,-1
 687 480 l 2,39,40
 466 480 466 480 406 382 c 0,41,42
 388 353 388 353 388 321 c 128,-1,43
 388 289 388 289 399.5 264.5 c 128,-1,44
 411 240 411 240 438 224 c 0,45,46
 490 194 490 194 592.5 194 c 128,-1,47
 695 194 695 194 784 243 c 1,48,49
 783 254 783 254 783 266 c 2,50,-1
 783 475 l 1,36,37
280 1520 m 1,51,52
 450 1503 450 1503 600 1503 c 1,53,-1
 769 1190 l 1,54,-1
 543 1190 l 1,55,-1
 281 1513 l 1,56,-1
 280 1520 l 1,51,52
EndSplineSet
EndChar

StartChar: aacute
Encoding: 225 225 182
Width: 1193
GlyphClass: 2
Flags: W
LayerCount: 2
Fore
SplineSet
837 62 m 1,0,1
 695 -15 695 -15 580 -15 c 128,-1,2
 465 -15 465 -15 383 6.5 c 128,-1,3
 301 28 301 28 244 70 c 0,4,5
 128 155 128 155 128 316 c 0,6,7
 128 460 128 460 270 556 c 0,8,9
 424 660 424 660 688 660 c 1,10,-1
 728 659 l 2,11,12
 740 658 740 658 755 657.5 c 128,-1,13
 770 657 770 657 782 655 c 1,14,15
 774 815 774 815 644 842 c 0,16,17
 601 851 601 851 552.5 851 c 128,-1,18
 504 851 504 851 457.5 842.5 c 128,-1,19
 411 834 411 834 367 820 c 0,20,21
 270 789 270 789 228 749 c 1,22,-1
 225 751 l 1,23,-1
 195 972 l 1,24,25
 372 1065 372 1065 582 1065 c 0,26,27
 908 1065 908 1065 999 830 c 0,28,29
 1028 755 1028 755 1028 661 c 2,30,-1
 1028 299 l 2,31,32
 1028 183 1028 183 1110 141 c 1,33,-1
 929 -25 l 1,34,35
 872 5 872 5 837 62 c 1,0,1
783 475 m 1,36,37
 756 480 756 480 727 480 c 2,38,-1
 687 480 l 2,39,40
 466 480 466 480 406 382 c 0,41,42
 388 353 388 353 388 321 c 128,-1,43
 388 289 388 289 399.5 264.5 c 128,-1,44
 411 240 411 240 438 224 c 0,45,46
 490 194 490 194 592.5 194 c 128,-1,47
 695 194 695 194 784 243 c 1,48,49
 783 254 783 254 783 266 c 2,50,-1
 783 475 l 1,36,37
569 1503 m 1,51,52
 719 1503 719 1503 889 1520 c 1,53,-1
 888 1513 l 1,54,-1
 626 1190 l 1,55,-1
 400 1190 l 1,56,-1
 569 1503 l 1,51,52
EndSplineSet
EndChar

StartChar: acircumflex
Encoding: 226 226 183
Width: 1193
GlyphClass: 2
Flags: W
LayerCount: 2
Fore
SplineSet
837 62 m 1,0,1
 695 -15 695 -15 580 -15 c 128,-1,2
 465 -15 465 -15 383 6.5 c 128,-1,3
 301 28 301 28 244 70 c 0,4,5
 128 155 128 155 128 316 c 0,6,7
 128 460 128 460 270 556 c 0,8,9
 424 660 424 660 688 660 c 1,10,-1
 728 659 l 2,11,12
 740 658 740 658 755 657.5 c 128,-1,13
 770 657 770 657 782 655 c 1,14,15
 774 815 774 815 644 842 c 0,16,17
 601 851 601 851 552.5 851 c 128,-1,18
 504 851 504 851 457.5 842.5 c 128,-1,19
 411 834 411 834 367 820 c 0,20,21
 270 789 270 789 228 749 c 1,22,-1
 225 751 l 1,23,-1
 195 972 l 1,24,25
 372 1065 372 1065 582 1065 c 0,26,27
 908 1065 908 1065 999 830 c 0,28,29
 1028 755 1028 755 1028 661 c 2,30,-1
 1028 299 l 2,31,32
 1028 183 1028 183 1110 141 c 1,33,-1
 929 -25 l 1,34,35
 872 5 872 5 837 62 c 1,0,1
783 475 m 1,36,37
 756 480 756 480 727 480 c 2,38,-1
 687 480 l 2,39,40
 466 480 466 480 406 382 c 0,41,42
 388 353 388 353 388 321 c 128,-1,43
 388 289 388 289 399.5 264.5 c 128,-1,44
 411 240 411 240 438 224 c 0,45,46
 490 194 490 194 592.5 194 c 128,-1,47
 695 194 695 194 784 243 c 1,48,49
 783 254 783 254 783 266 c 2,50,-1
 783 475 l 1,36,37
483 1188 m 1,51,52
 268 1188 268 1188 220 1185 c 1,53,-1
 217 1188 l 1,54,-1
 459 1519 l 1,55,56
 483 1516 483 1516 525 1516 c 2,57,-1
 576 1516 l 1,58,-1
 697 1519 l 1,59,-1
 952 1188 l 1,60,-1
 948 1185 l 1,61,-1
 693 1188 l 1,62,-1
 580 1365 l 1,63,-1
 483 1188 l 1,51,52
EndSplineSet
EndChar

StartChar: atilde
Encoding: 227 227 184
Width: 1193
GlyphClass: 2
Flags: W
LayerCount: 2
Fore
SplineSet
837 62 m 1,0,1
 695 -15 695 -15 580 -15 c 128,-1,2
 465 -15 465 -15 383 6.5 c 128,-1,3
 301 28 301 28 244 70 c 0,4,5
 128 155 128 155 128 316 c 0,6,7
 128 460 128 460 270 556 c 0,8,9
 424 660 424 660 688 660 c 1,10,-1
 728 659 l 2,11,12
 740 658 740 658 755 657.5 c 128,-1,13
 770 657 770 657 782 655 c 1,14,15
 774 815 774 815 644 842 c 0,16,17
 601 851 601 851 552.5 851 c 128,-1,18
 504 851 504 851 457.5 842.5 c 128,-1,19
 411 834 411 834 367 820 c 0,20,21
 270 789 270 789 228 749 c 1,22,-1
 225 751 l 1,23,-1
 195 972 l 1,24,25
 372 1065 372 1065 582 1065 c 0,26,27
 908 1065 908 1065 999 830 c 0,28,29
 1028 755 1028 755 1028 661 c 2,30,-1
 1028 299 l 2,31,32
 1028 183 1028 183 1110 141 c 1,33,-1
 929 -25 l 1,34,35
 872 5 872 5 837 62 c 1,0,1
783 475 m 1,36,37
 756 480 756 480 727 480 c 2,38,-1
 687 480 l 2,39,40
 466 480 466 480 406 382 c 0,41,42
 388 353 388 353 388 321 c 128,-1,43
 388 289 388 289 399.5 264.5 c 128,-1,44
 411 240 411 240 438 224 c 0,45,46
 490 194 490 194 592.5 194 c 128,-1,47
 695 194 695 194 784 243 c 1,48,49
 783 254 783 254 783 266 c 2,50,-1
 783 475 l 1,36,37
421 1280 m 0,51,52
 327 1280 327 1280 254 1205 c 1,53,-1
 250 1206 l 1,54,-1
 246 1405 l 1,55,56
 314 1485 314 1485 431 1485 c 0,57,58
 523 1485 523 1485 602 1430.5 c 128,-1,59
 681 1376 681 1376 765 1376 c 0,60,61
 884 1376 884 1376 921 1460 c 1,62,-1
 923 1458 l 1,63,-1
 913 1242 l 1,64,65
 896 1212 896 1212 852 1192.5 c 128,-1,66
 808 1173 808 1173 760 1173 c 128,-1,67
 712 1173 712 1173 682.5 1181 c 128,-1,68
 653 1189 653 1189 628 1201 c 128,-1,69
 603 1213 603 1213 581.5 1226.5 c 128,-1,70
 560 1240 560 1240 536 1252 c 0,71,72
 480 1280 480 1280 421 1280 c 0,51,52
EndSplineSet
EndChar

StartChar: adieresis
Encoding: 228 228 185
Width: 1193
GlyphClass: 2
Flags: W
LayerCount: 2
Fore
SplineSet
837 62 m 1,0,1
 695 -15 695 -15 580 -15 c 128,-1,2
 465 -15 465 -15 383 6.5 c 128,-1,3
 301 28 301 28 244 70 c 0,4,5
 128 155 128 155 128 316 c 0,6,7
 128 460 128 460 270 556 c 0,8,9
 424 660 424 660 688 660 c 1,10,-1
 728 659 l 2,11,12
 740 658 740 658 755 657.5 c 128,-1,13
 770 657 770 657 782 655 c 1,14,15
 774 815 774 815 644 842 c 0,16,17
 601 851 601 851 552.5 851 c 128,-1,18
 504 851 504 851 457.5 842.5 c 128,-1,19
 411 834 411 834 367 820 c 0,20,21
 270 789 270 789 228 749 c 1,22,-1
 225 751 l 1,23,-1
 195 972 l 1,24,25
 372 1065 372 1065 582 1065 c 0,26,27
 908 1065 908 1065 999 830 c 0,28,29
 1028 755 1028 755 1028 661 c 2,30,-1
 1028 299 l 2,31,32
 1028 183 1028 183 1110 141 c 1,33,-1
 929 -25 l 1,34,35
 872 5 872 5 837 62 c 1,0,1
783 475 m 1,36,37
 756 480 756 480 727 480 c 2,38,-1
 687 480 l 2,39,40
 466 480 466 480 406 382 c 0,41,42
 388 353 388 353 388 321 c 128,-1,43
 388 289 388 289 399.5 264.5 c 128,-1,44
 411 240 411 240 438 224 c 0,45,46
 490 194 490 194 592.5 194 c 128,-1,47
 695 194 695 194 784 243 c 1,48,49
 783 254 783 254 783 266 c 2,50,-1
 783 475 l 1,36,37
932 1430 m 1,51,52
 928 1380 928 1380 928 1302.5 c 128,-1,53
 928 1225 928 1225 932 1190 c 1,54,-1
 667 1190 l 1,55,56
 675 1252 675 1252 675 1312.5 c 128,-1,57
 675 1373 675 1373 669 1430 c 1,58,-1
 932 1430 l 1,51,52
502 1430 m 1,59,60
 498 1380 498 1380 498 1302.5 c 128,-1,61
 498 1225 498 1225 502 1190 c 1,62,-1
 237 1190 l 1,63,64
 245 1252 245 1252 245 1312.5 c 128,-1,65
 245 1373 245 1373 239 1430 c 1,66,-1
 502 1430 l 1,59,60
EndSplineSet
EndChar

StartChar: aring
Encoding: 229 229 186
Width: 1193
GlyphClass: 2
Flags: W
LayerCount: 2
Fore
SplineSet
837 62 m 1,0,1
 695 -15 695 -15 580 -15 c 128,-1,2
 465 -15 465 -15 383 6.5 c 128,-1,3
 301 28 301 28 244 70 c 0,4,5
 128 155 128 155 128 316 c 0,6,7
 128 460 128 460 270 556 c 0,8,9
 424 660 424 660 688 660 c 1,10,-1
 728 659 l 2,11,12
 740 658 740 658 755 657.5 c 128,-1,13
 770 657 770 657 782 655 c 1,14,15
 774 815 774 815 644 842 c 0,16,17
 601 851 601 851 552.5 851 c 128,-1,18
 504 851 504 851 457.5 842.5 c 128,-1,19
 411 834 411 834 367 820 c 0,20,21
 270 789 270 789 228 749 c 1,22,-1
 225 751 l 1,23,-1
 195 972 l 1,24,25
 372 1065 372 1065 582 1065 c 0,26,27
 908 1065 908 1065 999 830 c 0,28,29
 1028 755 1028 755 1028 661 c 2,30,-1
 1028 299 l 2,31,32
 1028 183 1028 183 1110 141 c 1,33,-1
 929 -25 l 1,34,35
 872 5 872 5 837 62 c 1,0,1
783 475 m 1,36,37
 756 480 756 480 727 480 c 2,38,-1
 687 480 l 2,39,40
 466 480 466 480 406 382 c 0,41,42
 388 353 388 353 388 321 c 128,-1,43
 388 289 388 289 399.5 264.5 c 128,-1,44
 411 240 411 240 438 224 c 0,45,46
 490 194 490 194 592.5 194 c 128,-1,47
 695 194 695 194 784 243 c 1,48,49
 783 254 783 254 783 266 c 2,50,-1
 783 475 l 1,36,37
578 1180 m 0,51,52
 517 1180 517 1180 467 1196 c 128,-1,53
 417 1212 417 1212 381 1242 c 0,54,55
 305 1305 305 1305 305 1414 c 0,56,57
 305 1521 305 1521 380 1588 c 0,58,59
 456 1656 456 1656 592 1656 c 0,60,61
 712 1656 712 1656 788 1587 c 0,62,63
 863 1520 863 1520 863 1419 c 0,64,65
 863 1309 863 1309 783 1244 c 0,66,67
 705 1180 705 1180 578 1180 c 0,51,52
532 1329 m 128,-1,69
 555 1321 555 1321 581.5 1321 c 128,-1,70
 608 1321 608 1321 629 1328.5 c 128,-1,71
 650 1336 650 1336 666 1350 c 0,72,73
 701 1379 701 1379 701 1408.5 c 128,-1,74
 701 1438 701 1438 693.5 1455.5 c 128,-1,75
 686 1473 686 1473 671 1488 c 0,76,77
 637 1520 637 1520 593.5 1520 c 128,-1,78
 550 1520 550 1520 528 1511 c 128,-1,79
 506 1502 506 1502 492 1488 c 0,80,81
 464 1460 464 1460 464 1430 c 128,-1,82
 464 1400 464 1400 471.5 1382 c 128,-1,83
 479 1364 479 1364 494 1350.5 c 128,-1,68
 509 1337 509 1337 532 1329 c 128,-1,69
EndSplineSet
EndChar

StartChar: ae
Encoding: 230 230 187
Width: 1877
GlyphClass: 2
Flags: W
LayerCount: 2
Fore
SplineSet
892 104 m 1,0,1
 738 -15 738 -15 523 -15 c 0,2,3
 340 -15 340 -15 231 84 c 0,4,5
 125 181 125 181 125 332 c 0,6,7
 125 497 125 497 274 608 c 0,8,9
 426 721 426 721 654 721 c 0,10,11
 684 721 684 721 701 718 c 1,12,13
 664 859 664 859 490 859 c 0,14,15
 373 859 373 859 274 776 c 0,16,17
 243 750 243 750 220 719 c 1,18,-1
 217 721 l 1,19,-1
 187 952 l 1,20,21
 330 1065 330 1065 541.5 1065 c 128,-1,22
 753 1065 753 1065 871 916 c 1,23,24
 1024 1065 1024 1065 1278 1065 c 0,25,26
 1480 1065 1480 1065 1618 930 c 0,27,28
 1757 795 1757 795 1757 582 c 0,29,30
 1757 524 1757 524 1745 476 c 1,31,32
 1634 446 1634 446 1328 446 c 0,33,34
 1234 446 1234 446 1161.5 446 c 128,-1,35
 1089 446 1089 446 1040.5 446.5 c 128,-1,36
 992 447 992 447 959 447 c 1,37,38
 985 339 985 339 1082 279.5 c 128,-1,39
 1179 220 1179 220 1355 220 c 128,-1,40
 1531 220 1531 220 1661 326 c 1,41,42
 1656 215 1656 215 1646 63 c 1,43,44
 1566 11 1566 11 1402 -9 c 0,45,46
 1352 -15 1352 -15 1304 -15 c 0,47,48
 1047 -15 1047 -15 892 104 c 1,0,1
978 666 m 1,49,50
 1005 665 1005 665 1042 664 c 1,51,-1
 1115 664 l 1,52,53
 1152 663 1152 663 1186 663 c 2,54,-1
 1240 663 l 2,55,56
 1296 663 1296 663 1352 664 c 2,57,-1
 1444 667 l 2,58,59
 1480 668 1480 668 1508 670 c 1,60,61
 1474 784 1474 784 1338 823 c 0,62,63
 1295 835 1295 835 1248.5 835 c 128,-1,64
 1202 835 1202 835 1161.5 823 c 128,-1,65
 1121 811 1121 811 1086 790 c 0,66,67
 1015 746 1015 746 978 666 c 1,49,50
765 271 m 1,68,69
 707 369 707 369 707 512 c 1,70,71
 687 515 687 515 639 515 c 128,-1,72
 591 515 591 515 537.5 503 c 128,-1,73
 484 491 484 491 446 470 c 0,74,75
 370 426 370 426 370 355 c 128,-1,76
 370 284 370 284 418.5 241.5 c 128,-1,77
 467 199 467 199 541 199 c 0,78,79
 679 199 679 199 765 271 c 1,68,69
EndSplineSet
EndChar

StartChar: ccedilla
Encoding: 231 231 188
Width: 1026
GlyphClass: 2
Flags: W
LayerCount: 2
Fore
SplineSet
632 -15 m 1,0,1
 640 -69 640 -69 640 -152 c 128,-1,2
 640 -235 640 -235 617.5 -290 c 128,-1,3
 595 -345 595 -345 566 -362 c 1,4,5
 507 -400 507 -400 351 -432 c 1,6,-1
 345 -426 l 1,7,8
 415 -327 415 -327 415 0 c 1,9,-1
 448 6 l 1,10,11
 283 50 283 50 184 182 c 0,12,13
 85 315 85 315 85 506 c 0,14,15
 85 747 85 747 232 902 c 0,16,17
 388 1065 388 1065 649 1065 c 0,18,19
 834 1065 834 1065 959 984 c 1,20,-1
 919 728 l 1,21,-1
 912 729 l 1,22,23
 864 787 864 787 811 805 c 0,24,25
 725 835 725 835 639 835 c 128,-1,26
 553 835 553 835 504 813 c 128,-1,27
 455 791 455 791 420 752 c 0,28,29
 350 672 350 672 350 540 c 0,30,31
 350 306 350 306 512 234 c 0,32,33
 568 210 568 210 630.5 210 c 128,-1,34
 693 210 693 210 739.5 221 c 128,-1,35
 786 232 786 232 824 251 c 0,36,37
 905 291 905 291 934 344 c 1,38,-1
 941 341 l 1,39,-1
 964 97 l 1,40,41
 856 -11 856 -11 632 -15 c 1,0,1
EndSplineSet
EndChar

StartChar: egrave
Encoding: 232 232 189
Width: 1197
GlyphClass: 2
Flags: W
LayerCount: 2
Fore
SplineSet
97 514 m 0,0,1
 97 631 97 631 137 731 c 128,-1,2
 177 831 177 831 250 906 c 0,3,4
 406 1065 406 1065 658 1065 c 0,5,6
 871 1065 871 1065 1000 924 c 1,7,8
 1127 788 1127 788 1127 582 c 0,9,10
 1127 503 1127 503 1115 474 c 1,11,12
 1015 446 1015 446 708 446 c 2,13,-1
 356 446 l 1,14,15
 382 339 382 339 477 279.5 c 128,-1,16
 572 220 572 220 724 220 c 0,17,18
 883 220 883 220 997 277 c 0,19,20
 1027 292 1027 292 1042 305 c 1,21,22
 1040 263 1040 263 1037 219 c 2,23,-1
 1026 63 l 1,24,25
 950 11 950 11 780 -9 c 0,26,27
 730 -15 730 -15 684 -15 c 0,28,29
 430 -15 430 -15 264 133 c 0,30,31
 97 282 97 282 97 514 c 0,0,1
861 640 m 1,32,33
 820 855 820 855 627 855 c 0,34,35
 475 855 475 855 396 724 c 0,36,37
 372 684 372 684 359 636 c 1,38,39
 383 635 383 635 418 634 c 1,40,-1
 492 634 l 1,41,42
 529 633 529 633 563 633 c 2,43,-1
 620 633 l 2,44,45
 671 633 671 633 720 634 c 2,46,-1
 802 637 l 2,47,48
 835 638 835 638 861 640 c 1,32,33
308 1520 m 1,49,50
 478 1503 478 1503 628 1503 c 1,51,-1
 797 1190 l 1,52,-1
 571 1190 l 1,53,-1
 309 1513 l 1,54,-1
 308 1520 l 1,49,50
EndSplineSet
EndChar

StartChar: eacute
Encoding: 233 233 190
Width: 1197
GlyphClass: 2
Flags: W
LayerCount: 2
Fore
SplineSet
97 514 m 0,0,1
 97 631 97 631 137 731 c 128,-1,2
 177 831 177 831 250 906 c 0,3,4
 406 1065 406 1065 658 1065 c 0,5,6
 871 1065 871 1065 1000 924 c 1,7,8
 1127 788 1127 788 1127 582 c 0,9,10
 1127 503 1127 503 1115 474 c 1,11,12
 1015 446 1015 446 708 446 c 2,13,-1
 356 446 l 1,14,15
 382 339 382 339 477 279.5 c 128,-1,16
 572 220 572 220 724 220 c 0,17,18
 883 220 883 220 997 277 c 0,19,20
 1027 292 1027 292 1042 305 c 1,21,22
 1040 263 1040 263 1037 219 c 2,23,-1
 1026 63 l 1,24,25
 950 11 950 11 780 -9 c 0,26,27
 730 -15 730 -15 684 -15 c 0,28,29
 430 -15 430 -15 264 133 c 0,30,31
 97 282 97 282 97 514 c 0,0,1
861 640 m 1,32,33
 820 855 820 855 627 855 c 0,34,35
 475 855 475 855 396 724 c 0,36,37
 372 684 372 684 359 636 c 1,38,39
 383 635 383 635 418 634 c 1,40,-1
 492 634 l 1,41,42
 529 633 529 633 563 633 c 2,43,-1
 620 633 l 2,44,45
 671 633 671 633 720 634 c 2,46,-1
 802 637 l 2,47,48
 835 638 835 638 861 640 c 1,32,33
597 1503 m 1,49,50
 747 1503 747 1503 917 1520 c 1,51,-1
 916 1513 l 1,52,-1
 654 1190 l 1,53,-1
 428 1190 l 1,54,-1
 597 1503 l 1,49,50
EndSplineSet
EndChar

StartChar: ecircumflex
Encoding: 234 234 191
Width: 1197
GlyphClass: 2
Flags: W
LayerCount: 2
Fore
SplineSet
97 514 m 0,0,1
 97 631 97 631 137 731 c 128,-1,2
 177 831 177 831 250 906 c 0,3,4
 406 1065 406 1065 658 1065 c 0,5,6
 871 1065 871 1065 1000 924 c 1,7,8
 1127 788 1127 788 1127 582 c 0,9,10
 1127 503 1127 503 1115 474 c 1,11,12
 1015 446 1015 446 708 446 c 2,13,-1
 356 446 l 1,14,15
 382 339 382 339 477 279.5 c 128,-1,16
 572 220 572 220 724 220 c 0,17,18
 883 220 883 220 997 277 c 0,19,20
 1027 292 1027 292 1042 305 c 1,21,22
 1040 263 1040 263 1037 219 c 2,23,-1
 1026 63 l 1,24,25
 950 11 950 11 780 -9 c 0,26,27
 730 -15 730 -15 684 -15 c 0,28,29
 430 -15 430 -15 264 133 c 0,30,31
 97 282 97 282 97 514 c 0,0,1
861 640 m 1,32,33
 820 855 820 855 627 855 c 0,34,35
 475 855 475 855 396 724 c 0,36,37
 372 684 372 684 359 636 c 1,38,39
 383 635 383 635 418 634 c 1,40,-1
 492 634 l 1,41,42
 529 633 529 633 563 633 c 2,43,-1
 620 633 l 2,44,45
 671 633 671 633 720 634 c 2,46,-1
 802 637 l 2,47,48
 835 638 835 638 861 640 c 1,32,33
511 1188 m 1,49,50
 296 1188 296 1188 248 1185 c 1,51,-1
 245 1188 l 1,52,-1
 487 1519 l 1,53,54
 511 1516 511 1516 553 1516 c 2,55,-1
 604 1516 l 1,56,-1
 725 1519 l 1,57,-1
 980 1188 l 1,58,-1
 976 1185 l 1,59,-1
 721 1188 l 1,60,-1
 608 1365 l 1,61,-1
 511 1188 l 1,49,50
EndSplineSet
EndChar

StartChar: edieresis
Encoding: 235 235 192
Width: 1197
GlyphClass: 2
Flags: W
LayerCount: 2
Fore
SplineSet
97 514 m 0,0,1
 97 631 97 631 137 731 c 128,-1,2
 177 831 177 831 250 906 c 0,3,4
 406 1065 406 1065 658 1065 c 0,5,6
 871 1065 871 1065 1000 924 c 1,7,8
 1127 788 1127 788 1127 582 c 0,9,10
 1127 503 1127 503 1115 474 c 1,11,12
 1015 446 1015 446 708 446 c 2,13,-1
 356 446 l 1,14,15
 382 339 382 339 477 279.5 c 128,-1,16
 572 220 572 220 724 220 c 0,17,18
 883 220 883 220 997 277 c 0,19,20
 1027 292 1027 292 1042 305 c 1,21,22
 1040 263 1040 263 1037 219 c 2,23,-1
 1026 63 l 1,24,25
 950 11 950 11 780 -9 c 0,26,27
 730 -15 730 -15 684 -15 c 0,28,29
 430 -15 430 -15 264 133 c 0,30,31
 97 282 97 282 97 514 c 0,0,1
861 640 m 1,32,33
 820 855 820 855 627 855 c 0,34,35
 475 855 475 855 396 724 c 0,36,37
 372 684 372 684 359 636 c 1,38,39
 383 635 383 635 418 634 c 1,40,-1
 492 634 l 1,41,42
 529 633 529 633 563 633 c 2,43,-1
 620 633 l 2,44,45
 671 633 671 633 720 634 c 2,46,-1
 802 637 l 2,47,48
 835 638 835 638 861 640 c 1,32,33
960 1430 m 1,49,50
 956 1380 956 1380 956 1302.5 c 128,-1,51
 956 1225 956 1225 960 1190 c 1,52,-1
 695 1190 l 1,53,54
 703 1252 703 1252 703 1312.5 c 128,-1,55
 703 1373 703 1373 697 1430 c 1,56,-1
 960 1430 l 1,49,50
530 1430 m 1,57,58
 526 1380 526 1380 526 1302.5 c 128,-1,59
 526 1225 526 1225 530 1190 c 1,60,-1
 265 1190 l 1,61,62
 273 1252 273 1252 273 1312.5 c 128,-1,63
 273 1373 273 1373 267 1430 c 1,64,-1
 530 1430 l 1,57,58
EndSplineSet
EndChar

StartChar: igrave
Encoding: 236 236 193
Width: 513
GlyphClass: 2
Flags: W
LayerCount: 2
Fore
SplineSet
378 112 m 2,0,1
 378 26 378 26 382 0 c 1,2,-1
 128 0 l 1,3,-1
 128 1045 l 1,4,-1
 378 1045 l 1,5,-1
 378 112 l 2,0,1
-61 1520 m 1,6,7
 109 1503 109 1503 259 1503 c 1,8,-1
 428 1190 l 1,9,-1
 202 1190 l 1,10,-1
 -60 1513 l 1,11,-1
 -61 1520 l 1,6,7
EndSplineSet
EndChar

StartChar: iacute
Encoding: 237 237 194
Width: 513
GlyphClass: 2
Flags: W
LayerCount: 2
Fore
SplineSet
378 112 m 2,0,1
 378 26 378 26 382 0 c 1,2,-1
 128 0 l 1,3,-1
 128 1045 l 1,4,-1
 378 1045 l 1,5,-1
 378 112 l 2,0,1
228 1503 m 1,6,7
 378 1503 378 1503 548 1520 c 1,8,-1
 547 1513 l 1,9,-1
 285 1190 l 1,10,-1
 59 1190 l 1,11,-1
 228 1503 l 1,6,7
EndSplineSet
EndChar

StartChar: icircumflex
Encoding: 238 238 195
Width: 513
GlyphClass: 2
Flags: W
LayerCount: 2
Fore
SplineSet
378 112 m 2,0,1
 378 26 378 26 382 0 c 1,2,-1
 128 0 l 1,3,-1
 128 1045 l 1,4,-1
 378 1045 l 1,5,-1
 378 112 l 2,0,1
142 1188 m 1,6,7
 -73 1188 -73 1188 -121 1185 c 1,8,-1
 -124 1188 l 1,9,-1
 118 1519 l 1,10,11
 142 1516 142 1516 184 1516 c 2,12,-1
 235 1516 l 1,13,-1
 356 1519 l 1,14,-1
 611 1188 l 1,15,-1
 607 1185 l 1,16,-1
 352 1188 l 1,17,-1
 239 1365 l 1,18,-1
 142 1188 l 1,6,7
EndSplineSet
EndChar

StartChar: idieresis
Encoding: 239 239 196
Width: 513
GlyphClass: 2
Flags: W
LayerCount: 2
Fore
SplineSet
378 112 m 2,0,1
 378 26 378 26 382 0 c 1,2,-1
 128 0 l 1,3,-1
 128 1045 l 1,4,-1
 378 1045 l 1,5,-1
 378 112 l 2,0,1
591 1430 m 1,6,7
 587 1380 587 1380 587 1302.5 c 128,-1,8
 587 1225 587 1225 591 1190 c 1,9,-1
 326 1190 l 1,10,11
 334 1252 334 1252 334 1312.5 c 128,-1,12
 334 1373 334 1373 328 1430 c 1,13,-1
 591 1430 l 1,6,7
161 1430 m 1,14,15
 157 1380 157 1380 157 1302.5 c 128,-1,16
 157 1225 157 1225 161 1190 c 1,17,-1
 -104 1190 l 1,18,19
 -96 1252 -96 1252 -96 1312.5 c 128,-1,20
 -96 1373 -96 1373 -102 1430 c 1,21,-1
 161 1430 l 1,14,15
EndSplineSet
EndChar

StartChar: eth
Encoding: 240 240 197
Width: 1193
GlyphClass: 2
Flags: W
LayerCount: 2
Fore
SplineSet
799 1162 m 1,0,1
 1074 839 1074 839 1074 504 c 0,2,3
 1074 279 1074 279 924 128 c 1,4,5
 780 -15 780 -15 575 -15 c 0,6,7
 368 -15 368 -15 228 121 c 0,8,9
 91 255 91 255 91 443 c 0,10,11
 91 666 91 666 240 788 c 0,12,13
 370 895 370 895 569 895 c 0,14,15
 641 895 641 895 725 865 c 1,16,17
 665 970 665 970 573 1077 c 1,18,-1
 266 961 l 1,19,-1
 209 1143 l 1,20,-1
 431 1223 l 1,21,22
 376 1274 376 1274 314 1326 c 1,23,-1
 181 1430 l 1,24,-1
 501 1430 l 1,25,26
 585 1371 585 1371 658 1306 c 1,27,-1
 897 1393 l 1,28,-1
 953 1220 l 1,29,-1
 799 1162 l 1,0,1
830 496 m 1,30,-1
 829 512 l 1,31,32
 787 597 787 597 726 631 c 128,-1,33
 665 665 665 665 599 665 c 128,-1,34
 533 665 533 665 492 652.5 c 128,-1,35
 451 640 451 640 420 616 c 0,36,37
 349 561 349 561 349 465 c 0,38,39
 349 366 349 366 419 294 c 0,40,41
 491 220 491 220 598 220 c 0,42,43
 691 220 691 220 755 284 c 1,44,45
 830 361 830 361 830 496 c 1,30,-1
EndSplineSet
EndChar

StartChar: ntilde
Encoding: 241 241 198
Width: 1197
GlyphClass: 2
Flags: W
LayerCount: 2
Fore
SplineSet
410 128 m 2,0,1
 410 40 410 40 418 0 c 1,2,-1
 167 0 l 1,3,-1
 167 1045 l 1,4,-1
 410 1045 l 1,5,-1
 410 956 l 1,6,7
 542 1065 542 1065 692 1065 c 0,8,9
 856 1065 856 1065 954 953.5 c 128,-1,10
 1052 842 1052 842 1052 660 c 2,11,-1
 1052 262 l 2,12,13
 1052 93 1052 93 1057 59 c 128,-1,14
 1062 25 1062 25 1070.5 15 c 128,-1,15
 1079 5 1079 5 1085 -3 c 1,16,-1
 1083 -7 l 1,17,18
 1002 0 1002 0 965 0 c 2,19,-1
 895 0 l 2,20,21
 863 0 863 0 809 -3 c 1,22,-1
 809 542 l 2,23,24
 809 835 809 835 631 835 c 0,25,26
 499 835 499 835 410 699 c 1,27,-1
 410 128 l 2,0,1
483 1280 m 0,28,29
 389 1280 389 1280 316 1205 c 1,30,-1
 312 1206 l 1,31,-1
 308 1405 l 1,32,33
 376 1485 376 1485 493 1485 c 0,34,35
 585 1485 585 1485 664 1430.5 c 128,-1,36
 743 1376 743 1376 827 1376 c 0,37,38
 946 1376 946 1376 983 1460 c 1,39,-1
 985 1458 l 1,40,-1
 975 1242 l 1,41,42
 958 1212 958 1212 914 1192.5 c 128,-1,43
 870 1173 870 1173 822 1173 c 128,-1,44
 774 1173 774 1173 744.5 1181 c 128,-1,45
 715 1189 715 1189 690 1201 c 128,-1,46
 665 1213 665 1213 643.5 1226.5 c 128,-1,47
 622 1240 622 1240 598 1252 c 0,48,49
 542 1280 542 1280 483 1280 c 0,28,29
EndSplineSet
EndChar

StartChar: ograve
Encoding: 242 242 199
Width: 1197
GlyphClass: 2
Flags: W
LayerCount: 2
Fore
SplineSet
71 517 m 0,0,1
 71 627 71 627 108.5 727.5 c 128,-1,2
 146 828 146 828 216 903 c 0,3,4
 369 1065 369 1065 613 1065 c 0,5,6
 856 1065 856 1065 999 912 c 0,7,8
 1136 766 1136 766 1136 533 c 256,9,10
 1136 300 1136 300 995 147 c 0,11,12
 846 -15 846 -15 600 -15 c 0,13,14
 346 -15 346 -15 202 144 c 0,15,16
 71 289 71 289 71 517 c 0,0,1
314 523 m 0,17,18
 314 460 314 460 335 401 c 128,-1,19
 356 342 356 342 395 300 c 0,20,21
 478 209 478 209 613 209 c 0,22,23
 738 209 738 209 810 298 c 0,24,25
 880 384 880 384 880 522 c 0,26,27
 880 662 880 662 808 748 c 0,28,29
 731 840 731 840 597 840 c 0,30,31
 461 840 461 840 384 742 c 0,32,33
 314 652 314 652 314 523 c 0,17,18
294 1520 m 1,34,35
 464 1503 464 1503 614 1503 c 1,36,-1
 783 1190 l 1,37,-1
 557 1190 l 1,38,-1
 295 1513 l 1,39,-1
 294 1520 l 1,34,35
EndSplineSet
EndChar

StartChar: oacute
Encoding: 243 243 200
Width: 1197
GlyphClass: 2
Flags: W
LayerCount: 2
Fore
SplineSet
71 517 m 0,0,1
 71 627 71 627 108.5 727.5 c 128,-1,2
 146 828 146 828 216 903 c 0,3,4
 369 1065 369 1065 613 1065 c 0,5,6
 856 1065 856 1065 999 912 c 0,7,8
 1136 766 1136 766 1136 533 c 256,9,10
 1136 300 1136 300 995 147 c 0,11,12
 846 -15 846 -15 600 -15 c 0,13,14
 346 -15 346 -15 202 144 c 0,15,16
 71 289 71 289 71 517 c 0,0,1
314 523 m 0,17,18
 314 460 314 460 335 401 c 128,-1,19
 356 342 356 342 395 300 c 0,20,21
 478 209 478 209 613 209 c 0,22,23
 738 209 738 209 810 298 c 0,24,25
 880 384 880 384 880 522 c 0,26,27
 880 662 880 662 808 748 c 0,28,29
 731 840 731 840 597 840 c 0,30,31
 461 840 461 840 384 742 c 0,32,33
 314 652 314 652 314 523 c 0,17,18
583 1503 m 1,34,35
 733 1503 733 1503 903 1520 c 1,36,-1
 902 1513 l 1,37,-1
 640 1190 l 1,38,-1
 414 1190 l 1,39,-1
 583 1503 l 1,34,35
EndSplineSet
EndChar

StartChar: ocircumflex
Encoding: 244 244 201
Width: 1197
GlyphClass: 2
Flags: W
LayerCount: 2
Fore
SplineSet
71 517 m 0,0,1
 71 627 71 627 108.5 727.5 c 128,-1,2
 146 828 146 828 216 903 c 0,3,4
 369 1065 369 1065 613 1065 c 0,5,6
 856 1065 856 1065 999 912 c 0,7,8
 1136 766 1136 766 1136 533 c 256,9,10
 1136 300 1136 300 995 147 c 0,11,12
 846 -15 846 -15 600 -15 c 0,13,14
 346 -15 346 -15 202 144 c 0,15,16
 71 289 71 289 71 517 c 0,0,1
314 523 m 0,17,18
 314 460 314 460 335 401 c 128,-1,19
 356 342 356 342 395 300 c 0,20,21
 478 209 478 209 613 209 c 0,22,23
 738 209 738 209 810 298 c 0,24,25
 880 384 880 384 880 522 c 0,26,27
 880 662 880 662 808 748 c 0,28,29
 731 840 731 840 597 840 c 0,30,31
 461 840 461 840 384 742 c 0,32,33
 314 652 314 652 314 523 c 0,17,18
497 1188 m 1,34,35
 282 1188 282 1188 234 1185 c 1,36,-1
 231 1188 l 1,37,-1
 473 1519 l 1,38,39
 497 1516 497 1516 539 1516 c 2,40,-1
 590 1516 l 1,41,-1
 711 1519 l 1,42,-1
 966 1188 l 1,43,-1
 962 1185 l 1,44,-1
 707 1188 l 1,45,-1
 594 1365 l 1,46,-1
 497 1188 l 1,34,35
EndSplineSet
EndChar

StartChar: otilde
Encoding: 245 245 202
Width: 1197
GlyphClass: 2
Flags: W
LayerCount: 2
Fore
SplineSet
71 517 m 0,0,1
 71 627 71 627 108.5 727.5 c 128,-1,2
 146 828 146 828 216 903 c 0,3,4
 369 1065 369 1065 613 1065 c 0,5,6
 856 1065 856 1065 999 912 c 0,7,8
 1136 766 1136 766 1136 533 c 256,9,10
 1136 300 1136 300 995 147 c 0,11,12
 846 -15 846 -15 600 -15 c 0,13,14
 346 -15 346 -15 202 144 c 0,15,16
 71 289 71 289 71 517 c 0,0,1
314 523 m 0,17,18
 314 460 314 460 335 401 c 128,-1,19
 356 342 356 342 395 300 c 0,20,21
 478 209 478 209 613 209 c 0,22,23
 738 209 738 209 810 298 c 0,24,25
 880 384 880 384 880 522 c 0,26,27
 880 662 880 662 808 748 c 0,28,29
 731 840 731 840 597 840 c 0,30,31
 461 840 461 840 384 742 c 0,32,33
 314 652 314 652 314 523 c 0,17,18
435 1280 m 0,34,35
 341 1280 341 1280 268 1205 c 1,36,-1
 264 1206 l 1,37,-1
 260 1405 l 1,38,39
 328 1485 328 1485 445 1485 c 0,40,41
 537 1485 537 1485 616 1430.5 c 128,-1,42
 695 1376 695 1376 779 1376 c 0,43,44
 898 1376 898 1376 935 1460 c 1,45,-1
 937 1458 l 1,46,-1
 927 1242 l 1,47,48
 910 1212 910 1212 866 1192.5 c 128,-1,49
 822 1173 822 1173 774 1173 c 128,-1,50
 726 1173 726 1173 696.5 1181 c 128,-1,51
 667 1189 667 1189 642 1201 c 128,-1,52
 617 1213 617 1213 595.5 1226.5 c 128,-1,53
 574 1240 574 1240 550 1252 c 0,54,55
 494 1280 494 1280 435 1280 c 0,34,35
EndSplineSet
EndChar

StartChar: odieresis
Encoding: 246 246 203
Width: 1197
GlyphClass: 2
Flags: W
LayerCount: 2
Fore
SplineSet
71 517 m 0,0,1
 71 627 71 627 108.5 727.5 c 128,-1,2
 146 828 146 828 216 903 c 0,3,4
 369 1065 369 1065 613 1065 c 0,5,6
 856 1065 856 1065 999 912 c 0,7,8
 1136 766 1136 766 1136 533 c 256,9,10
 1136 300 1136 300 995 147 c 0,11,12
 846 -15 846 -15 600 -15 c 0,13,14
 346 -15 346 -15 202 144 c 0,15,16
 71 289 71 289 71 517 c 0,0,1
314 523 m 0,17,18
 314 460 314 460 335 401 c 128,-1,19
 356 342 356 342 395 300 c 0,20,21
 478 209 478 209 613 209 c 0,22,23
 738 209 738 209 810 298 c 0,24,25
 880 384 880 384 880 522 c 0,26,27
 880 662 880 662 808 748 c 0,28,29
 731 840 731 840 597 840 c 0,30,31
 461 840 461 840 384 742 c 0,32,33
 314 652 314 652 314 523 c 0,17,18
946 1430 m 1,34,35
 942 1380 942 1380 942 1302.5 c 128,-1,36
 942 1225 942 1225 946 1190 c 1,37,-1
 681 1190 l 1,38,39
 689 1252 689 1252 689 1312.5 c 128,-1,40
 689 1373 689 1373 683 1430 c 1,41,-1
 946 1430 l 1,34,35
516 1430 m 1,42,43
 512 1380 512 1380 512 1302.5 c 128,-1,44
 512 1225 512 1225 516 1190 c 1,45,-1
 251 1190 l 1,46,47
 259 1252 259 1252 259 1312.5 c 128,-1,48
 259 1373 259 1373 253 1430 c 1,49,-1
 516 1430 l 1,42,43
EndSplineSet
EndChar

StartChar: divide
Encoding: 247 247 204
Width: 1364
GlyphClass: 2
Flags: W
LayerCount: 2
Fore
SplineSet
826 1044 m 2,0,1
 825 1026 825 1026 825 973.5 c 128,-1,2
 825 921 825 921 830 885 c 1,3,-1
 538 885 l 1,4,5
 547 946 547 946 547 993 c 128,-1,6
 547 1040 547 1040 546.5 1057.5 c 128,-1,7
 546 1075 546 1075 545 1092 c 128,-1,8
 544 1109 544 1109 542 1124 c 2,9,-1
 540 1149 l 1,10,-1
 830 1149 l 1,11,12
 827 1111 827 1111 827 1087 c 2,13,-1
 826 1044 l 2,0,1
351 500 m 2,14,15
 275 500 275 500 227 495 c 1,16,-1
 230 742 l 1,17,18
 252 736 252 736 362 736 c 2,19,-1
 1001 736 l 2,20,21
 1110 736 1110 736 1133 742 c 1,22,-1
 1136 495 l 1,23,24
 1088 500 1088 500 1012 500 c 2,25,-1
 351 500 l 2,14,15
826 256 m 2,26,27
 825 238 825 238 825 185.5 c 128,-1,28
 825 133 825 133 830 97 c 1,29,-1
 538 97 l 1,30,31
 547 158 547 158 547 205 c 128,-1,32
 547 252 547 252 546.5 269.5 c 128,-1,33
 546 287 546 287 545 304 c 128,-1,34
 544 321 544 321 542 336 c 2,35,-1
 540 361 l 1,36,-1
 830 361 l 1,37,38
 827 323 827 323 827 299 c 2,39,-1
 826 256 l 2,26,27
EndSplineSet
EndChar

StartChar: oslash
Encoding: 248 248 205
Width: 1197
GlyphClass: 2
Flags: W
LayerCount: 2
Fore
SplineSet
826.5 28.5 m 128,-1,1
 727 -15 727 -15 611 -15 c 128,-1,2
 495 -15 495 -15 401 15 c 1,3,-1
 299 -170 l 1,4,-1
 123 -170 l 1,5,-1
 264 87 l 1,6,7
 71 236 71 236 71 512 c 0,8,9
 71 748 71 748 216 903 c 1,10,11
 369 1065 369 1065 613 1065 c 0,12,13
 705 1065 705 1065 788 1040 c 1,14,-1
 871 1190 l 1,15,-1
 1047 1190 l 1,16,-1
 928 973 l 1,17,18
 1029 902 1029 902 1082.5 788 c 128,-1,19
 1136 674 1136 674 1136 547.5 c 128,-1,20
 1136 421 1136 421 1100 321.5 c 128,-1,21
 1064 222 1064 222 995 147 c 128,-1,0
 926 72 926 72 826.5 28.5 c 128,-1,1
673 831 m 1,22,23
 638 840 638 840 582 840 c 128,-1,24
 526 840 526 840 472.5 813 c 128,-1,25
 419 786 419 786 384 742 c 0,26,27
 314 652 314 652 314 529 c 0,28,29
 314 397 314 397 387 309 c 1,30,-1
 673 831 l 1,22,23
515 223 m 1,31,32
 562 209 562 209 619 209 c 128,-1,33
 676 209 676 209 726 232.5 c 128,-1,34
 776 256 776 256 810 298 c 0,35,36
 880 384 880 384 880 522 c 0,37,38
 880 664 880 664 805 751 c 1,39,-1
 515 223 l 1,31,32
EndSplineSet
EndChar

StartChar: ugrave
Encoding: 249 249 206
Width: 1193
GlyphClass: 2
Flags: W
LayerCount: 2
Fore
SplineSet
773 91 m 1,0,1
 645 -15 645 -15 494 -15 c 0,2,3
 332 -15 332 -15 240 94 c 1,4,5
 152 200 152 200 152 385 c 2,6,-1
 152 782 l 2,7,8
 152 982 152 982 143.5 1011.5 c 128,-1,9
 135 1041 135 1041 131 1049 c 1,10,11
 177 1045 177 1045 227 1045 c 2,12,-1
 310 1045 l 2,13,14
 343 1045 343 1045 397 1048 c 1,15,-1
 397 469 l 2,16,17
 397 263 397 263 509 230 c 0,18,19
 543 220 543 220 583 220 c 0,20,21
 701 220 701 220 773 306 c 1,22,-1
 773 1045 l 1,23,-1
 1021 1045 l 1,24,-1
 1021 128 l 2,25,26
 1021 40 1021 40 1029 0 c 1,27,-1
 773 0 l 1,28,-1
 773 91 l 1,0,1
266 1520 m 1,29,30
 436 1503 436 1503 586 1503 c 1,31,-1
 755 1190 l 1,32,-1
 529 1190 l 1,33,-1
 267 1513 l 1,34,-1
 266 1520 l 1,29,30
EndSplineSet
EndChar

StartChar: uacute
Encoding: 250 250 207
Width: 1193
GlyphClass: 2
Flags: W
LayerCount: 2
Fore
SplineSet
773 91 m 1,0,1
 645 -15 645 -15 494 -15 c 0,2,3
 332 -15 332 -15 240 94 c 1,4,5
 152 200 152 200 152 385 c 2,6,-1
 152 782 l 2,7,8
 152 982 152 982 143.5 1011.5 c 128,-1,9
 135 1041 135 1041 131 1049 c 1,10,11
 177 1045 177 1045 227 1045 c 2,12,-1
 310 1045 l 2,13,14
 343 1045 343 1045 397 1048 c 1,15,-1
 397 469 l 2,16,17
 397 263 397 263 509 230 c 0,18,19
 543 220 543 220 583 220 c 0,20,21
 701 220 701 220 773 306 c 1,22,-1
 773 1045 l 1,23,-1
 1021 1045 l 1,24,-1
 1021 128 l 2,25,26
 1021 40 1021 40 1029 0 c 1,27,-1
 773 0 l 1,28,-1
 773 91 l 1,0,1
555 1503 m 1,29,30
 705 1503 705 1503 875 1520 c 1,31,-1
 874 1513 l 1,32,-1
 612 1190 l 1,33,-1
 386 1190 l 1,34,-1
 555 1503 l 1,29,30
EndSplineSet
EndChar

StartChar: ucircumflex
Encoding: 251 251 208
Width: 1193
GlyphClass: 2
Flags: W
LayerCount: 2
Fore
SplineSet
773 91 m 1,0,1
 645 -15 645 -15 494 -15 c 0,2,3
 332 -15 332 -15 240 94 c 1,4,5
 152 200 152 200 152 385 c 2,6,-1
 152 782 l 2,7,8
 152 982 152 982 143.5 1011.5 c 128,-1,9
 135 1041 135 1041 131 1049 c 1,10,11
 177 1045 177 1045 227 1045 c 2,12,-1
 310 1045 l 2,13,14
 343 1045 343 1045 397 1048 c 1,15,-1
 397 469 l 2,16,17
 397 263 397 263 509 230 c 0,18,19
 543 220 543 220 583 220 c 0,20,21
 701 220 701 220 773 306 c 1,22,-1
 773 1045 l 1,23,-1
 1021 1045 l 1,24,-1
 1021 128 l 2,25,26
 1021 40 1021 40 1029 0 c 1,27,-1
 773 0 l 1,28,-1
 773 91 l 1,0,1
469 1188 m 1,29,30
 254 1188 254 1188 206 1185 c 1,31,-1
 203 1188 l 1,32,-1
 445 1519 l 1,33,34
 469 1516 469 1516 511 1516 c 2,35,-1
 562 1516 l 1,36,-1
 683 1519 l 1,37,-1
 938 1188 l 1,38,-1
 934 1185 l 1,39,-1
 679 1188 l 1,40,-1
 566 1365 l 1,41,-1
 469 1188 l 1,29,30
EndSplineSet
EndChar

StartChar: udieresis
Encoding: 252 252 209
Width: 1193
GlyphClass: 2
Flags: W
LayerCount: 2
Fore
SplineSet
773 91 m 1,0,1
 645 -15 645 -15 494 -15 c 0,2,3
 332 -15 332 -15 240 94 c 1,4,5
 152 200 152 200 152 385 c 2,6,-1
 152 782 l 2,7,8
 152 982 152 982 143.5 1011.5 c 128,-1,9
 135 1041 135 1041 131 1049 c 1,10,11
 177 1045 177 1045 227 1045 c 2,12,-1
 310 1045 l 2,13,14
 343 1045 343 1045 397 1048 c 1,15,-1
 397 469 l 2,16,17
 397 263 397 263 509 230 c 0,18,19
 543 220 543 220 583 220 c 0,20,21
 701 220 701 220 773 306 c 1,22,-1
 773 1045 l 1,23,-1
 1021 1045 l 1,24,-1
 1021 128 l 2,25,26
 1021 40 1021 40 1029 0 c 1,27,-1
 773 0 l 1,28,-1
 773 91 l 1,0,1
918 1430 m 1,29,30
 914 1380 914 1380 914 1302.5 c 128,-1,31
 914 1225 914 1225 918 1190 c 1,32,-1
 653 1190 l 1,33,34
 661 1252 661 1252 661 1312.5 c 128,-1,35
 661 1373 661 1373 655 1430 c 1,36,-1
 918 1430 l 1,29,30
488 1430 m 1,37,38
 484 1380 484 1380 484 1302.5 c 128,-1,39
 484 1225 484 1225 488 1190 c 1,40,-1
 223 1190 l 1,41,42
 231 1252 231 1252 231 1312.5 c 128,-1,43
 231 1373 231 1373 225 1430 c 1,44,-1
 488 1430 l 1,37,38
EndSplineSet
EndChar

StartChar: yacute
Encoding: 253 253 210
Width: 1025
GlyphClass: 2
Flags: W
LayerCount: 2
Fore
SplineSet
51 -348 m 1,0,-1
 117 -295 l 1,1,2
 266 -174 266 -174 364 62 c 2,3,-1
 410 173 l 1,4,-1
 27 1045 l 1,5,-1
 307 1045 l 1,6,-1
 547 441 l 1,7,-1
 770 1045 l 1,8,-1
 1058 1045 l 1,9,10
 1006 973 1006 973 931 777 c 1,11,-1
 781 406 l 1,12,13
 480 -302 480 -302 309 -438 c 1,14,-1
 51 -348 l 1,0,-1
554 1503 m 1,15,16
 704 1503 704 1503 874 1520 c 1,17,-1
 873 1513 l 1,18,-1
 611 1190 l 1,19,-1
 385 1190 l 1,20,-1
 554 1503 l 1,15,16
EndSplineSet
EndChar

StartChar: thorn
Encoding: 254 254 211
Width: 1193
GlyphClass: 2
Flags: W
LayerCount: 2
Fore
SplineSet
726 -2 m 0,0,1
 668 -18 668 -18 579 -18 c 128,-1,2
 490 -18 490 -18 407 19 c 1,3,-1
 407 -273 l 2,4,5
 407 -359 407 -359 411 -385 c 1,6,-1
 162 -385 l 1,7,-1
 162 1430 l 1,8,-1
 411 1430 l 1,9,10
 407 1404 407 1404 407 1318 c 2,11,-1
 407 1005 l 1,12,13
 519 1065 519 1065 629.5 1065 c 128,-1,14
 740 1065 740 1065 826.5 1033 c 128,-1,15
 913 1001 913 1001 980 936 c 1,16,17
 1125 792 1125 792 1125 536 c 0,18,19
 1125 283 1125 283 950 124 c 0,20,21
 849 32 849 32 726 -2 c 0,0,1
407 293 m 1,22,23
 488 220 488 220 594 220 c 0,24,25
 720 220 720 220 798 308 c 0,26,27
 880 399 880 399 880 552 c 0,28,29
 880 749 880 749 722 814 c 0,30,31
 671 835 671 835 617 835 c 128,-1,32
 563 835 563 835 505 811.5 c 128,-1,33
 447 788 447 788 407 746 c 1,34,-1
 407 293 l 1,22,23
EndSplineSet
EndChar

StartChar: ydieresis
Encoding: 255 255 212
Width: 1025
GlyphClass: 2
Flags: W
LayerCount: 2
Fore
SplineSet
51 -348 m 1,0,-1
 117 -295 l 1,1,2
 266 -174 266 -174 364 62 c 2,3,-1
 410 173 l 1,4,-1
 27 1045 l 1,5,-1
 307 1045 l 1,6,-1
 547 441 l 1,7,-1
 770 1045 l 1,8,-1
 1058 1045 l 1,9,10
 1006 973 1006 973 931 777 c 1,11,-1
 781 406 l 1,12,13
 480 -302 480 -302 309 -438 c 1,14,-1
 51 -348 l 1,0,-1
917 1430 m 1,15,16
 913 1380 913 1380 913 1302.5 c 128,-1,17
 913 1225 913 1225 917 1190 c 1,18,-1
 652 1190 l 1,19,20
 660 1252 660 1252 660 1312.5 c 128,-1,21
 660 1373 660 1373 654 1430 c 1,22,-1
 917 1430 l 1,15,16
487 1430 m 1,23,24
 483 1380 483 1380 483 1302.5 c 128,-1,25
 483 1225 483 1225 487 1190 c 1,26,-1
 222 1190 l 1,27,28
 230 1252 230 1252 230 1312.5 c 128,-1,29
 230 1373 230 1373 224 1430 c 1,30,-1
 487 1430 l 1,23,24
EndSplineSet
EndChar

StartChar: Amacron
Encoding: 256 256 213
Width: 1197
GlyphClass: 2
Flags: W
LayerCount: 2
Fore
SplineSet
269 -8 m 1,0,1
 183 0 183 0 68 0 c 2,2,-1
 -11 0 l 1,3,-1
 424 1219 l 2,4,5
 453 1301 453 1301 453 1314.5 c 128,-1,6
 453 1328 453 1328 452 1331 c 1,7,-1
 453 1333 l 1,8,9
 518 1330 518 1330 591 1330 c 0,10,11
 651 1330 651 1330 735 1332 c 1,12,-1
 736 1330 l 1,13,14
 734 1326 734 1326 734 1319 c 0,15,16
 734 1300 734 1300 764 1218 c 2,17,-1
 1208 -3 l 1,18,19
 1188 -2 1188 -2 1161 -2 c 1,20,21
 1161 -2 1161 -2 1109 0 c 0,22,23
 1084 0 1084 0 1064 0 c 2,24,-1
 909 0 l 1,25,-1
 815 288 l 1,26,-1
 363 288 l 1,27,-1
 269 -8 l 1,0,1
737 528 m 1,28,-1
 586 993 l 1,29,-1
 439 528 l 1,30,-1
 737 528 l 1,28,-1
942 1700 m 1,31,32
 938 1650 938 1650 938 1624 c 2,33,-1
 938 1590 l 2,34,35
 938 1582 938 1582 942 1530 c 1,36,-1
 267 1530 l 1,37,-1
 270 1556 l 1,38,39
 275 1589 275 1589 275 1616 c 128,-1,40
 275 1643 275 1643 269 1700 c 1,41,-1
 942 1700 l 1,31,32
EndSplineSet
EndChar

StartChar: amacron
Encoding: 257 257 214
Width: 1193
GlyphClass: 2
Flags: W
LayerCount: 2
Fore
SplineSet
837 62 m 1,0,1
 695 -15 695 -15 580 -15 c 128,-1,2
 465 -15 465 -15 383 6.5 c 128,-1,3
 301 28 301 28 244 70 c 0,4,5
 128 155 128 155 128 316 c 0,6,7
 128 460 128 460 270 556 c 0,8,9
 424 660 424 660 688 660 c 1,10,-1
 728 659 l 2,11,12
 740 658 740 658 755 657.5 c 128,-1,13
 770 657 770 657 782 655 c 1,14,15
 774 815 774 815 644 842 c 0,16,17
 601 851 601 851 552.5 851 c 128,-1,18
 504 851 504 851 457.5 842.5 c 128,-1,19
 411 834 411 834 367 820 c 0,20,21
 270 789 270 789 228 749 c 1,22,-1
 225 751 l 1,23,-1
 195 972 l 1,24,25
 372 1065 372 1065 582 1065 c 0,26,27
 908 1065 908 1065 999 830 c 0,28,29
 1028 755 1028 755 1028 661 c 2,30,-1
 1028 299 l 2,31,32
 1028 183 1028 183 1110 141 c 1,33,-1
 929 -25 l 1,34,35
 872 5 872 5 837 62 c 1,0,1
783 475 m 1,36,37
 756 480 756 480 727 480 c 2,38,-1
 687 480 l 2,39,40
 466 480 466 480 406 382 c 0,41,42
 388 353 388 353 388 321 c 128,-1,43
 388 289 388 289 399.5 264.5 c 128,-1,44
 411 240 411 240 438 224 c 0,45,46
 490 194 490 194 592.5 194 c 128,-1,47
 695 194 695 194 784 243 c 1,48,49
 783 254 783 254 783 266 c 2,50,-1
 783 475 l 1,36,37
922 1523 m 1,51,52
 918 1473 918 1473 918 1447 c 2,53,-1
 918 1413 l 2,54,55
 918 1405 918 1405 922 1353 c 1,56,-1
 247 1353 l 1,57,-1
 250 1379 l 1,58,59
 255 1412 255 1412 255 1439 c 128,-1,60
 255 1466 255 1466 249 1523 c 1,61,-1
 922 1523 l 1,51,52
EndSplineSet
EndChar

StartChar: Abreve
Encoding: 258 258 215
Width: 1197
GlyphClass: 2
Flags: W
LayerCount: 2
Fore
SplineSet
269 -8 m 1,0,1
 183 0 183 0 68 0 c 2,2,-1
 -11 0 l 1,3,-1
 424 1219 l 2,4,5
 453 1301 453 1301 453 1314.5 c 128,-1,6
 453 1328 453 1328 452 1331 c 1,7,-1
 453 1333 l 1,8,9
 518 1330 518 1330 591 1330 c 0,10,11
 651 1330 651 1330 735 1332 c 1,12,-1
 736 1330 l 1,13,14
 734 1326 734 1326 734 1319 c 0,15,16
 734 1300 734 1300 764 1218 c 2,17,-1
 1208 -3 l 1,18,19
 1188 -2 1188 -2 1161 -2 c 1,20,21
 1161 -2 1161 -2 1109 0 c 0,22,23
 1084 0 1084 0 1064 0 c 2,24,-1
 909 0 l 1,25,-1
 815 288 l 1,26,-1
 363 288 l 1,27,-1
 269 -8 l 1,0,1
737 528 m 1,28,-1
 586 993 l 1,29,-1
 439 528 l 1,30,-1
 737 528 l 1,28,-1
943 1806 m 1,31,32
 953 1796 953 1796 953 1738 c 128,-1,33
 953 1680 953 1680 932.5 1623.5 c 128,-1,34
 912 1567 912 1567 869 1522 c 0,35,36
 772 1421 772 1421 598 1421 c 256,37,38
 424 1421 424 1421 327 1522 c 0,39,40
 243 1610 243 1610 243 1737 c 0,41,42
 243 1796 243 1796 253 1806 c 1,43,-1
 386 1803 l 1,44,45
 396 1724 396 1724 423 1686 c 0,46,47
 482 1602 482 1602 598 1602 c 256,48,49
 714 1602 714 1602 769 1680 c 0,50,51
 800 1724 800 1724 810 1803 c 1,52,-1
 943 1806 l 1,31,32
EndSplineSet
EndChar

StartChar: abreve
Encoding: 259 259 216
Width: 1193
GlyphClass: 2
Flags: W
LayerCount: 2
Fore
SplineSet
837 62 m 1,0,1
 695 -15 695 -15 580 -15 c 128,-1,2
 465 -15 465 -15 383 6.5 c 128,-1,3
 301 28 301 28 244 70 c 0,4,5
 128 155 128 155 128 316 c 0,6,7
 128 460 128 460 270 556 c 0,8,9
 424 660 424 660 688 660 c 1,10,-1
 728 659 l 2,11,12
 740 658 740 658 755 657.5 c 128,-1,13
 770 657 770 657 782 655 c 1,14,15
 774 815 774 815 644 842 c 0,16,17
 601 851 601 851 552.5 851 c 128,-1,18
 504 851 504 851 457.5 842.5 c 128,-1,19
 411 834 411 834 367 820 c 0,20,21
 270 789 270 789 228 749 c 1,22,-1
 225 751 l 1,23,-1
 195 972 l 1,24,25
 372 1065 372 1065 582 1065 c 0,26,27
 908 1065 908 1065 999 830 c 0,28,29
 1028 755 1028 755 1028 661 c 2,30,-1
 1028 299 l 2,31,32
 1028 183 1028 183 1110 141 c 1,33,-1
 929 -25 l 1,34,35
 872 5 872 5 837 62 c 1,0,1
783 475 m 1,36,37
 756 480 756 480 727 480 c 2,38,-1
 687 480 l 2,39,40
 466 480 466 480 406 382 c 0,41,42
 388 353 388 353 388 321 c 128,-1,43
 388 289 388 289 399.5 264.5 c 128,-1,44
 411 240 411 240 438 224 c 0,45,46
 490 194 490 194 592.5 194 c 128,-1,47
 695 194 695 194 784 243 c 1,48,49
 783 254 783 254 783 266 c 2,50,-1
 783 475 l 1,36,37
929 1610 m 1,51,52
 939 1600 939 1600 939 1542 c 128,-1,53
 939 1484 939 1484 918.5 1427.5 c 128,-1,54
 898 1371 898 1371 855 1326 c 0,55,56
 758 1225 758 1225 584 1225 c 256,57,58
 410 1225 410 1225 313 1326 c 0,59,60
 229 1414 229 1414 229 1541 c 0,61,62
 229 1600 229 1600 239 1610 c 1,63,-1
 372 1607 l 1,64,65
 382 1528 382 1528 409 1490 c 0,66,67
 468 1406 468 1406 584 1406 c 256,68,69
 700 1406 700 1406 755 1484 c 0,70,71
 786 1528 786 1528 796 1607 c 1,72,-1
 929 1610 l 1,51,52
EndSplineSet
EndChar

StartChar: Aogonek
Encoding: 260 260 217
Width: 1197
GlyphClass: 2
Flags: W
LayerCount: 2
Fore
SplineSet
269 -8 m 1,0,1
 183 0 183 0 68 0 c 2,2,-1
 -11 0 l 1,3,-1
 424 1219 l 2,4,5
 453 1301 453 1301 453 1314.5 c 128,-1,6
 453 1328 453 1328 452 1331 c 1,7,-1
 453 1333 l 1,8,9
 518 1330 518 1330 591 1330 c 0,10,11
 651 1330 651 1330 735 1332 c 1,12,-1
 736 1330 l 1,13,14
 734 1326 734 1326 734 1319 c 0,15,16
 734 1300 734 1300 764 1218 c 2,17,-1
 1208 -3 l 1,18,19
 1100 -3 1100 -3 1022 -72 c 0,20,21
 949 -137 949 -137 949 -218 c 0,22,23
 949 -323 949 -323 1140 -323 c 0,24,25
 1177 -323 1177 -323 1199 -307 c 1,26,-1
 1201 -312 l 1,27,-1
 1097 -555 l 1,28,29
 831 -555 831 -555 738 -393 c 0,30,31
 704 -334 704 -334 704 -246 c 0,32,33
 704 -143 704 -143 796 -39 c 0,34,35
 834 3 834 3 895 42 c 1,36,-1
 815 288 l 1,37,-1
 363 288 l 1,38,-1
 269 -8 l 1,0,1
737 528 m 1,39,-1
 586 993 l 1,40,-1
 439 528 l 1,41,-1
 737 528 l 1,39,-1
EndSplineSet
EndChar

StartChar: aogonek
Encoding: 261 261 218
Width: 1193
GlyphClass: 2
Flags: W
LayerCount: 2
Fore
SplineSet
705 7 m 1,0,1
 628 -15 628 -15 546.5 -15 c 128,-1,2
 465 -15 465 -15 383 6.5 c 128,-1,3
 301 28 301 28 244 70 c 0,4,5
 128 155 128 155 128 316 c 0,6,7
 128 460 128 460 270 556 c 0,8,9
 424 660 424 660 688 660 c 1,10,-1
 728 659 l 2,11,12
 740 658 740 658 755 657.5 c 128,-1,13
 770 657 770 657 782 655 c 1,14,15
 774 815 774 815 644 842 c 0,16,17
 601 851 601 851 552.5 851 c 128,-1,18
 504 851 504 851 457.5 842.5 c 128,-1,19
 411 834 411 834 367 820 c 0,20,21
 270 789 270 789 228 749 c 1,22,-1
 225 751 l 1,23,-1
 195 972 l 1,24,25
 372 1065 372 1065 582 1065 c 0,26,27
 908 1065 908 1065 999 830 c 0,28,29
 1028 755 1028 755 1028 661 c 2,30,-1
 1028 299 l 2,31,32
 1028 183 1028 183 1110 141 c 1,33,-1
 929 -25 l 1,34,35
 872 5 872 5 837 62 c 1,36,37
 773 28 773 28 705 7 c 1,38,39
 750 52 750 52 814 92 c 1,40,-1
 1029 141 l 1,41,-1
 1110 141 l 1,42,-1
 968 11 l 2,43,44
 866 -83 866 -83 841.5 -132.5 c 128,-1,45
 817 -182 817 -182 817 -218 c 0,46,47
 817 -323 817 -323 1008 -323 c 0,48,49
 1045 -323 1045 -323 1067 -307 c 1,50,-1
 1069 -312 l 1,51,-1
 965 -555 l 1,52,53
 699 -555 699 -555 606 -393 c 0,54,55
 572 -334 572 -334 572 -246 c 0,56,57
 572 -173 572 -173 642 -68 c 0,58,59
 668 -30 668 -30 705 7 c 1,0,1
783 475 m 1,60,61
 756 480 756 480 727 480 c 2,62,-1
 687 480 l 2,63,64
 466 480 466 480 406 382 c 0,65,66
 388 353 388 353 388 321 c 128,-1,67
 388 289 388 289 399.5 264.5 c 128,-1,68
 411 240 411 240 438 224 c 0,69,70
 490 194 490 194 592.5 194 c 128,-1,71
 695 194 695 194 784 243 c 1,72,73
 783 254 783 254 783 266 c 2,74,-1
 783 475 l 1,60,61
EndSplineSet
EndChar

StartChar: Cacute
Encoding: 262 262 219
Width: 1188
GlyphClass: 2
Flags: W
LayerCount: 2
Fore
SplineSet
768 1355 m 0,0,1
 955 1355 955 1355 1087 1290 c 1,2,-1
 1087 984 l 1,3,-1
 1085 982 l 1,4,5
 1029 1068 1029 1068 849 1096 c 0,6,7
 796 1105 796 1105 715 1105 c 128,-1,8
 634 1105 634 1105 556 1074.5 c 128,-1,9
 478 1044 478 1044 428 988 c 0,10,11
 331 879 331 879 331 677 c 0,12,13
 331 442 331 442 454 327 c 0,14,15
 556 231 556 231 724 231 c 0,16,17
 914 231 914 231 1032 312 c 0,18,19
 1075 341 1075 341 1105 384 c 1,20,-1
 1108 382 l 1,21,-1
 1108 102 l 1,22,23
 955 -25 955 -25 696 -25 c 0,24,25
 391 -25 391 -25 218 169 c 0,26,27
 52 354 52 354 52 659 c 0,28,29
 52 982 52 982 234 1168 c 0,30,31
 418 1355 418 1355 768 1355 c 0,0,1
594 1788 m 1,32,33
 744 1788 744 1788 914 1805 c 1,34,-1
 913 1798 l 1,35,-1
 651 1475 l 1,36,-1
 425 1475 l 1,37,-1
 594 1788 l 1,32,33
EndSplineSet
EndChar

StartChar: cacute
Encoding: 263 263 220
Width: 1026
GlyphClass: 2
Flags: W
LayerCount: 2
Fore
SplineSet
964 97 m 1,0,1
 852 -15 852 -15 613 -15 c 0,2,3
 381 -15 381 -15 234 126 c 0,4,5
 85 269 85 269 85 506 c 0,6,7
 85 747 85 747 232 902 c 0,8,9
 388 1065 388 1065 649 1065 c 0,10,11
 834 1065 834 1065 959 984 c 1,12,-1
 919 728 l 1,13,-1
 912 729 l 1,14,15
 864 787 864 787 811 805 c 0,16,17
 725 835 725 835 639 835 c 128,-1,18
 553 835 553 835 504 813 c 128,-1,19
 455 791 455 791 420 752 c 0,20,21
 350 672 350 672 350 540 c 0,22,23
 350 306 350 306 512 234 c 0,24,25
 568 210 568 210 630.5 210 c 128,-1,26
 693 210 693 210 739.5 221 c 128,-1,27
 786 232 786 232 824 251 c 0,28,29
 905 291 905 291 934 344 c 1,30,-1
 941 341 l 1,31,-1
 964 97 l 1,0,1
572 1503 m 1,32,33
 722 1503 722 1503 892 1520 c 1,34,-1
 891 1513 l 1,35,-1
 629 1190 l 1,36,-1
 403 1190 l 1,37,-1
 572 1503 l 1,32,33
EndSplineSet
EndChar

StartChar: Ccircumflex
Encoding: 264 264 221
Width: 1188
GlyphClass: 2
Flags: W
LayerCount: 2
Fore
SplineSet
768 1355 m 0,0,1
 955 1355 955 1355 1087 1290 c 1,2,-1
 1087 984 l 1,3,-1
 1085 982 l 1,4,5
 1029 1068 1029 1068 849 1096 c 0,6,7
 796 1105 796 1105 715 1105 c 128,-1,8
 634 1105 634 1105 556 1074.5 c 128,-1,9
 478 1044 478 1044 428 988 c 0,10,11
 331 879 331 879 331 677 c 0,12,13
 331 442 331 442 454 327 c 0,14,15
 556 231 556 231 724 231 c 0,16,17
 914 231 914 231 1032 312 c 0,18,19
 1075 341 1075 341 1105 384 c 1,20,-1
 1108 382 l 1,21,-1
 1108 102 l 1,22,23
 955 -25 955 -25 696 -25 c 0,24,25
 391 -25 391 -25 218 169 c 0,26,27
 52 354 52 354 52 659 c 0,28,29
 52 982 52 982 234 1168 c 0,30,31
 418 1355 418 1355 768 1355 c 0,0,1
568 1473 m 1,32,33
 353 1473 353 1473 305 1470 c 1,34,-1
 302 1473 l 1,35,-1
 544 1804 l 1,36,37
 568 1801 568 1801 610 1801 c 2,38,-1
 661 1801 l 1,39,-1
 782 1804 l 1,40,-1
 1037 1473 l 1,41,-1
 1033 1470 l 1,42,-1
 778 1473 l 1,43,-1
 665 1650 l 1,44,-1
 568 1473 l 1,32,33
EndSplineSet
EndChar

StartChar: ccircumflex
Encoding: 265 265 222
Width: 1026
GlyphClass: 2
Flags: W
LayerCount: 2
Fore
SplineSet
964 97 m 1,0,1
 852 -15 852 -15 613 -15 c 0,2,3
 381 -15 381 -15 234 126 c 0,4,5
 85 269 85 269 85 506 c 0,6,7
 85 747 85 747 232 902 c 0,8,9
 388 1065 388 1065 649 1065 c 0,10,11
 834 1065 834 1065 959 984 c 1,12,-1
 919 728 l 1,13,-1
 912 729 l 1,14,15
 864 787 864 787 811 805 c 0,16,17
 725 835 725 835 639 835 c 128,-1,18
 553 835 553 835 504 813 c 128,-1,19
 455 791 455 791 420 752 c 0,20,21
 350 672 350 672 350 540 c 0,22,23
 350 306 350 306 512 234 c 0,24,25
 568 210 568 210 630.5 210 c 128,-1,26
 693 210 693 210 739.5 221 c 128,-1,27
 786 232 786 232 824 251 c 0,28,29
 905 291 905 291 934 344 c 1,30,-1
 941 341 l 1,31,-1
 964 97 l 1,0,1
486 1188 m 1,32,33
 271 1188 271 1188 223 1185 c 1,34,-1
 220 1188 l 1,35,-1
 462 1519 l 1,36,37
 486 1516 486 1516 528 1516 c 2,38,-1
 579 1516 l 1,39,-1
 700 1519 l 1,40,-1
 955 1188 l 1,41,-1
 951 1185 l 1,42,-1
 696 1188 l 1,43,-1
 583 1365 l 1,44,-1
 486 1188 l 1,32,33
EndSplineSet
EndChar

StartChar: Cdotaccent
Encoding: 266 266 223
Width: 1188
GlyphClass: 2
Flags: W
LayerCount: 2
Fore
SplineSet
768 1355 m 0,0,1
 955 1355 955 1355 1087 1290 c 1,2,-1
 1087 984 l 1,3,-1
 1085 982 l 1,4,5
 1029 1068 1029 1068 849 1096 c 0,6,7
 796 1105 796 1105 715 1105 c 128,-1,8
 634 1105 634 1105 556 1074.5 c 128,-1,9
 478 1044 478 1044 428 988 c 0,10,11
 331 879 331 879 331 677 c 0,12,13
 331 442 331 442 454 327 c 0,14,15
 556 231 556 231 724 231 c 0,16,17
 914 231 914 231 1032 312 c 0,18,19
 1075 341 1075 341 1105 384 c 1,20,-1
 1108 382 l 1,21,-1
 1108 102 l 1,22,23
 955 -25 955 -25 696 -25 c 0,24,25
 391 -25 391 -25 218 169 c 0,26,27
 52 354 52 354 52 659 c 0,28,29
 52 982 52 982 234 1168 c 0,30,31
 418 1355 418 1355 768 1355 c 0,0,1
499 1618 m 1,32,33
 564 1722 564 1722 648 1814 c 1,34,-1
 839 1663 l 1,35,36
 789 1599 789 1599 771 1575 c 2,37,-1
 736 1526 l 2,38,39
 719 1503 719 1503 700 1474 c 1,40,-1
 499 1618 l 1,32,33
EndSplineSet
EndChar

StartChar: cdotaccent
Encoding: 267 267 224
Width: 1026
GlyphClass: 2
Flags: W
LayerCount: 2
Fore
SplineSet
964 97 m 1,0,1
 852 -15 852 -15 613 -15 c 0,2,3
 381 -15 381 -15 234 126 c 0,4,5
 85 269 85 269 85 506 c 0,6,7
 85 747 85 747 232 902 c 0,8,9
 388 1065 388 1065 649 1065 c 0,10,11
 834 1065 834 1065 959 984 c 1,12,-1
 919 728 l 1,13,-1
 912 729 l 1,14,15
 864 787 864 787 811 805 c 0,16,17
 725 835 725 835 639 835 c 128,-1,18
 553 835 553 835 504 813 c 128,-1,19
 455 791 455 791 420 752 c 0,20,21
 350 672 350 672 350 540 c 0,22,23
 350 306 350 306 512 234 c 0,24,25
 568 210 568 210 630.5 210 c 128,-1,26
 693 210 693 210 739.5 221 c 128,-1,27
 786 232 786 232 824 251 c 0,28,29
 905 291 905 291 934 344 c 1,30,-1
 941 341 l 1,31,-1
 964 97 l 1,0,1
417 1336 m 1,32,33
 482 1440 482 1440 566 1532 c 1,34,-1
 757 1381 l 1,35,36
 707 1317 707 1317 689 1293 c 2,37,-1
 654 1244 l 2,38,39
 637 1221 637 1221 618 1192 c 1,40,-1
 417 1336 l 1,32,33
EndSplineSet
EndChar

StartChar: Ccaron
Encoding: 268 268 225
Width: 1188
GlyphClass: 2
Flags: W
LayerCount: 2
Fore
SplineSet
768 1355 m 0,0,1
 955 1355 955 1355 1087 1290 c 1,2,-1
 1087 984 l 1,3,-1
 1085 982 l 1,4,5
 1029 1068 1029 1068 849 1096 c 0,6,7
 796 1105 796 1105 715 1105 c 128,-1,8
 634 1105 634 1105 556 1074.5 c 128,-1,9
 478 1044 478 1044 428 988 c 0,10,11
 331 879 331 879 331 677 c 0,12,13
 331 442 331 442 454 327 c 0,14,15
 556 231 556 231 724 231 c 0,16,17
 914 231 914 231 1032 312 c 0,18,19
 1075 341 1075 341 1105 384 c 1,20,-1
 1108 382 l 1,21,-1
 1108 102 l 1,22,23
 955 -25 955 -25 696 -25 c 0,24,25
 391 -25 391 -25 218 169 c 0,26,27
 52 354 52 354 52 659 c 0,28,29
 52 982 52 982 234 1168 c 0,30,31
 418 1355 418 1355 768 1355 c 0,0,1
661 1369 m 1,32,-1
 610 1369 l 2,33,34
 568 1369 568 1369 544 1366 c 1,35,-1
 302 1697 l 1,36,-1
 305 1700 l 1,37,38
 353 1697 353 1697 568 1697 c 1,39,-1
 665 1520 l 1,40,-1
 778 1697 l 1,41,-1
 1033 1700 l 1,42,-1
 1037 1697 l 1,43,-1
 782 1366 l 1,44,-1
 661 1369 l 1,32,-1
EndSplineSet
EndChar

StartChar: ccaron
Encoding: 269 269 226
Width: 1026
GlyphClass: 2
Flags: W
LayerCount: 2
Fore
SplineSet
964 97 m 1,0,1
 852 -15 852 -15 613 -15 c 0,2,3
 381 -15 381 -15 234 126 c 0,4,5
 85 269 85 269 85 506 c 0,6,7
 85 747 85 747 232 902 c 0,8,9
 388 1065 388 1065 649 1065 c 0,10,11
 834 1065 834 1065 959 984 c 1,12,-1
 919 728 l 1,13,-1
 912 729 l 1,14,15
 864 787 864 787 811 805 c 0,16,17
 725 835 725 835 639 835 c 128,-1,18
 553 835 553 835 504 813 c 128,-1,19
 455 791 455 791 420 752 c 0,20,21
 350 672 350 672 350 540 c 0,22,23
 350 306 350 306 512 234 c 0,24,25
 568 210 568 210 630.5 210 c 128,-1,26
 693 210 693 210 739.5 221 c 128,-1,27
 786 232 786 232 824 251 c 0,28,29
 905 291 905 291 934 344 c 1,30,-1
 941 341 l 1,31,-1
 964 97 l 1,0,1
579 1188 m 1,32,-1
 528 1188 l 2,33,34
 486 1188 486 1188 462 1185 c 1,35,-1
 220 1516 l 1,36,-1
 223 1519 l 1,37,38
 271 1516 271 1516 486 1516 c 1,39,-1
 583 1339 l 1,40,-1
 696 1516 l 1,41,-1
 951 1519 l 1,42,-1
 955 1516 l 1,43,-1
 700 1185 l 1,44,-1
 579 1188 l 1,32,-1
EndSplineSet
EndChar

StartChar: Dcaron
Encoding: 270 270 227
Width: 1364
GlyphClass: 2
Flags: W
LayerCount: 2
Fore
SplineSet
496 -25 m 0,0,1
 334 -25 334 -25 191 1 c 1,2,-1
 191 1339 l 1,3,4
 323 1355 323 1355 497.5 1355 c 128,-1,5
 672 1355 672 1355 813.5 1307.5 c 128,-1,6
 955 1260 955 1260 1050 1172 c 0,7,8
 1242 996 1242 996 1242 679 c 0,9,10
 1242 324 1242 324 1028 140 c 0,11,12
 836 -25 836 -25 496 -25 c 0,0,1
451 219 m 1,13,14
 516 207 516 207 581 207 c 128,-1,15
 646 207 646 207 721 232.5 c 128,-1,16
 796 258 796 258 851 312 c 0,17,18
 969 426 969 426 969 644 c 0,19,20
 969 1002 969 1002 708 1084 c 0,21,22
 622 1111 622 1111 509 1111 c 2,23,-1
 482 1111 l 2,24,25
 467 1111 467 1111 451 1110 c 1,26,-1
 451 219 l 1,13,14
712 1369 m 1,27,-1
 661 1369 l 2,28,29
 619 1369 619 1369 595 1366 c 1,30,-1
 353 1697 l 1,31,-1
 356 1700 l 1,32,33
 404 1697 404 1697 619 1697 c 1,34,-1
 716 1520 l 1,35,-1
 829 1697 l 1,36,-1
 1084 1700 l 1,37,-1
 1088 1697 l 1,38,-1
 833 1366 l 1,39,-1
 712 1369 l 1,27,-1
EndSplineSet
EndChar

StartChar: dcaron
Encoding: 271 271 228
Width: 1427
GlyphClass: 2
Flags: W
LayerCount: 2
Fore
SplineSet
864 56 m 1,0,1
 737 -15 737 -15 610 -15 c 128,-1,2
 483 -15 483 -15 388 25 c 128,-1,3
 293 65 293 65 226 135 c 0,4,5
 88 279 88 279 88 509 c 0,6,7
 88 747 88 747 248 905 c 0,8,9
 409 1065 409 1065 660 1065 c 0,10,11
 737 1065 737 1065 811 1045 c 1,12,-1
 811 1490 l 1,13,-1
 1056 1490 l 1,14,-1
 1056 421 l 2,15,16
 1056 288 1056 288 1068.5 247 c 128,-1,17
 1081 206 1081 206 1096.5 187 c 128,-1,18
 1112 168 1112 168 1136 151 c 1,19,-1
 948 -15 l 1,20,21
 896 13 896 13 864 56 c 1,0,1
657 215 m 0,22,23
 741 215 741 215 811 247 c 1,24,-1
 811 801 l 1,25,26
 741 830 741 830 659 830 c 128,-1,27
 577 830 577 830 518.5 808 c 128,-1,28
 460 786 460 786 418 747 c 0,29,30
 330 665 330 665 330 534 c 0,31,32
 330 391 330 391 410 306 c 0,33,34
 496 215 496 215 657 215 c 0,22,23
1417 1445 m 1,35,36
 1428 1340 1428 1340 1428 1286.5 c 128,-1,37
 1428 1233 1428 1233 1424.5 1183 c 128,-1,38
 1421 1133 1421 1133 1415 1093 c 0,39,40
 1400 1007 1400 1007 1379 993 c 0,41,42
 1354 977 1354 977 1295 966 c 1,43,-1
 1184 943 l 1,44,-1
 1178 949 l 1,45,46
 1194 977 1194 977 1194 1129 c 2,47,-1
 1194 1228 l 2,48,49
 1194 1330 1194 1330 1188 1405 c 1,50,-1
 1417 1445 l 1,35,36
EndSplineSet
EndChar

StartChar: Dcroat
Encoding: 272 272 229
Width: 1364
GlyphClass: 2
Flags: W
LayerCount: 2
Fore
SplineSet
496 -25 m 0,0,1
 334 -25 334 -25 191 1 c 1,2,-1
 191 548 l 1,3,-1
 92 548 l 1,4,-1
 92 784 l 1,5,-1
 191 784 l 1,6,-1
 191 1339 l 1,7,8
 323 1355 323 1355 497.5 1355 c 128,-1,9
 672 1355 672 1355 813.5 1307.5 c 128,-1,10
 955 1260 955 1260 1050 1172 c 0,11,12
 1242 996 1242 996 1242 679 c 0,13,14
 1242 324 1242 324 1028 140 c 0,15,16
 836 -25 836 -25 496 -25 c 0,0,1
451 219 m 1,17,18
 516 207 516 207 581 207 c 128,-1,19
 646 207 646 207 721 232.5 c 128,-1,20
 796 258 796 258 851 312 c 0,21,22
 969 426 969 426 969 644 c 0,23,24
 969 1002 969 1002 708 1084 c 0,25,26
 622 1111 622 1111 509 1111 c 2,27,-1
 482 1111 l 2,28,29
 467 1111 467 1111 451 1110 c 1,30,-1
 451 784 l 1,31,-1
 751 784 l 1,32,-1
 751 548 l 1,33,-1
 451 548 l 1,34,-1
 451 219 l 1,17,18
EndSplineSet
EndChar

StartChar: dcroat
Encoding: 273 273 230
Width: 1242
GlyphClass: 2
Flags: W
LayerCount: 2
Fore
SplineSet
864 56 m 1,0,1
 737 -15 737 -15 610 -15 c 128,-1,2
 483 -15 483 -15 388 25 c 128,-1,3
 293 65 293 65 226 135 c 0,4,5
 88 279 88 279 88 509 c 0,6,7
 88 747 88 747 248 905 c 0,8,9
 409 1065 409 1065 660 1065 c 0,10,11
 737 1065 737 1065 811 1045 c 1,12,-1
 811 1171 l 1,13,-1
 739 1171 l 2,14,15
 663 1171 663 1171 615 1166 c 1,16,-1
 618 1353 l 1,17,18
 640 1347 640 1347 750 1347 c 2,19,-1
 811 1347 l 1,20,-1
 811 1490 l 1,21,-1
 1056 1490 l 1,22,-1
 1056 1347 l 1,23,24
 1150 1347 1150 1347 1171 1353 c 1,25,-1
 1174 1166 l 1,26,27
 1127 1171 1127 1171 1056 1171 c 1,28,-1
 1056 421 l 2,29,30
 1056 288 1056 288 1068.5 247 c 128,-1,31
 1081 206 1081 206 1096.5 187 c 128,-1,32
 1112 168 1112 168 1136 151 c 1,33,-1
 948 -15 l 1,34,35
 896 13 896 13 864 56 c 1,0,1
657 215 m 0,36,37
 741 215 741 215 811 247 c 1,38,-1
 811 801 l 1,39,40
 741 830 741 830 659 830 c 128,-1,41
 577 830 577 830 518.5 808 c 128,-1,42
 460 786 460 786 418 747 c 0,43,44
 330 665 330 665 330 534 c 0,45,46
 330 391 330 391 410 306 c 0,47,48
 496 215 496 215 657 215 c 0,36,37
EndSplineSet
EndChar

StartChar: Emacron
Encoding: 274 274 231
Width: 1026
GlyphClass: 2
Flags: W
LayerCount: 2
Fore
SplineSet
841 240 m 2,0,1
 903 240 903 240 927 252 c 1,2,-1
 931 251 l 1,3,-1
 921 0 l 1,4,-1
 172 0 l 1,5,-1
 172 1337 l 1,6,7
 199 1335 199 1335 232 1334 c 2,8,-1
 302 1332 l 2,9,10
 372 1330 372 1330 454 1330 c 0,11,12
 683 1330 683 1330 907 1338 c 1,13,14
 896 1250 896 1250 896 1103 c 0,15,16
 896 1087 896 1087 898 1079 c 1,17,-1
 896 1076 l 1,18,19
 844 1091 844 1091 748 1091 c 2,20,-1
 433 1091 l 1,21,-1
 433 836 l 1,22,-1
 670 836 l 2,23,24
 780 836 780 836 802 842 c 1,25,-1
 805 595 l 1,26,27
 757 600 757 600 681 600 c 2,28,-1
 433 600 l 1,29,-1
 433 240 l 1,30,-1
 841 240 l 2,0,1
880 1700 m 1,31,32
 876 1650 876 1650 876 1624 c 2,33,-1
 876 1590 l 2,34,35
 876 1582 876 1582 880 1530 c 1,36,-1
 205 1530 l 1,37,-1
 208 1556 l 1,38,39
 213 1589 213 1589 213 1616 c 128,-1,40
 213 1643 213 1643 207 1700 c 1,41,-1
 880 1700 l 1,31,32
EndSplineSet
EndChar

StartChar: emacron
Encoding: 275 275 232
Width: 1197
GlyphClass: 2
Flags: W
LayerCount: 2
Fore
SplineSet
97 514 m 0,0,1
 97 631 97 631 137 731 c 128,-1,2
 177 831 177 831 250 906 c 0,3,4
 406 1065 406 1065 658 1065 c 0,5,6
 871 1065 871 1065 1000 924 c 1,7,8
 1127 788 1127 788 1127 582 c 0,9,10
 1127 503 1127 503 1115 474 c 1,11,12
 1015 446 1015 446 708 446 c 2,13,-1
 356 446 l 1,14,15
 382 339 382 339 477 279.5 c 128,-1,16
 572 220 572 220 724 220 c 0,17,18
 883 220 883 220 997 277 c 0,19,20
 1027 292 1027 292 1042 305 c 1,21,22
 1040 263 1040 263 1037 219 c 2,23,-1
 1026 63 l 1,24,25
 950 11 950 11 780 -9 c 0,26,27
 730 -15 730 -15 684 -15 c 0,28,29
 430 -15 430 -15 264 133 c 0,30,31
 97 282 97 282 97 514 c 0,0,1
861 640 m 1,32,33
 820 855 820 855 627 855 c 0,34,35
 475 855 475 855 396 724 c 0,36,37
 372 684 372 684 359 636 c 1,38,39
 383 635 383 635 418 634 c 1,40,-1
 492 634 l 1,41,42
 529 633 529 633 563 633 c 2,43,-1
 620 633 l 2,44,45
 671 633 671 633 720 634 c 2,46,-1
 802 637 l 2,47,48
 835 638 835 638 861 640 c 1,32,33
950 1523 m 1,49,50
 946 1473 946 1473 946 1447 c 2,51,-1
 946 1413 l 2,52,53
 946 1405 946 1405 950 1353 c 1,54,-1
 275 1353 l 1,55,-1
 278 1379 l 1,56,57
 283 1412 283 1412 283 1439 c 128,-1,58
 283 1466 283 1466 277 1523 c 1,59,-1
 950 1523 l 1,49,50
EndSplineSet
EndChar

StartChar: Ebreve
Encoding: 276 276 233
Width: 1026
GlyphClass: 2
Flags: W
LayerCount: 2
Fore
SplineSet
841 240 m 2,0,1
 903 240 903 240 927 252 c 1,2,-1
 931 251 l 1,3,-1
 921 0 l 1,4,-1
 172 0 l 1,5,-1
 172 1337 l 1,6,7
 199 1335 199 1335 232 1334 c 2,8,-1
 302 1332 l 2,9,10
 372 1330 372 1330 454 1330 c 0,11,12
 683 1330 683 1330 907 1338 c 1,13,14
 896 1250 896 1250 896 1103 c 0,15,16
 896 1087 896 1087 898 1079 c 1,17,-1
 896 1076 l 1,18,19
 844 1091 844 1091 748 1091 c 2,20,-1
 433 1091 l 1,21,-1
 433 836 l 1,22,-1
 670 836 l 2,23,24
 780 836 780 836 802 842 c 1,25,-1
 805 595 l 1,26,27
 757 600 757 600 681 600 c 2,28,-1
 433 600 l 1,29,-1
 433 240 l 1,30,-1
 841 240 l 2,0,1
881 1806 m 1,31,32
 891 1796 891 1796 891 1738 c 128,-1,33
 891 1680 891 1680 870.5 1623.5 c 128,-1,34
 850 1567 850 1567 807 1522 c 0,35,36
 710 1421 710 1421 536 1421 c 256,37,38
 362 1421 362 1421 265 1522 c 0,39,40
 181 1610 181 1610 181 1737 c 0,41,42
 181 1796 181 1796 191 1806 c 1,43,-1
 324 1803 l 1,44,45
 334 1724 334 1724 361 1686 c 0,46,47
 420 1602 420 1602 536 1602 c 256,48,49
 652 1602 652 1602 707 1680 c 0,50,51
 738 1724 738 1724 748 1803 c 1,52,-1
 881 1806 l 1,31,32
EndSplineSet
EndChar

StartChar: ebreve
Encoding: 277 277 234
Width: 1197
GlyphClass: 2
Flags: W
LayerCount: 2
Fore
SplineSet
97 514 m 0,0,1
 97 631 97 631 137 731 c 128,-1,2
 177 831 177 831 250 906 c 0,3,4
 406 1065 406 1065 658 1065 c 0,5,6
 871 1065 871 1065 1000 924 c 1,7,8
 1127 788 1127 788 1127 582 c 0,9,10
 1127 503 1127 503 1115 474 c 1,11,12
 1015 446 1015 446 708 446 c 2,13,-1
 356 446 l 1,14,15
 382 339 382 339 477 279.5 c 128,-1,16
 572 220 572 220 724 220 c 0,17,18
 883 220 883 220 997 277 c 0,19,20
 1027 292 1027 292 1042 305 c 1,21,22
 1040 263 1040 263 1037 219 c 2,23,-1
 1026 63 l 1,24,25
 950 11 950 11 780 -9 c 0,26,27
 730 -15 730 -15 684 -15 c 0,28,29
 430 -15 430 -15 264 133 c 0,30,31
 97 282 97 282 97 514 c 0,0,1
861 640 m 1,32,33
 820 855 820 855 627 855 c 0,34,35
 475 855 475 855 396 724 c 0,36,37
 372 684 372 684 359 636 c 1,38,39
 383 635 383 635 418 634 c 1,40,-1
 492 634 l 1,41,42
 529 633 529 633 563 633 c 2,43,-1
 620 633 l 2,44,45
 671 633 671 633 720 634 c 2,46,-1
 802 637 l 2,47,48
 835 638 835 638 861 640 c 1,32,33
957 1610 m 1,49,50
 967 1600 967 1600 967 1542 c 128,-1,51
 967 1484 967 1484 946.5 1427.5 c 128,-1,52
 926 1371 926 1371 883 1326 c 0,53,54
 786 1225 786 1225 612 1225 c 256,55,56
 438 1225 438 1225 341 1326 c 0,57,58
 257 1414 257 1414 257 1541 c 0,59,60
 257 1600 257 1600 267 1610 c 1,61,-1
 400 1607 l 1,62,63
 410 1528 410 1528 437 1490 c 0,64,65
 496 1406 496 1406 612 1406 c 256,66,67
 728 1406 728 1406 783 1484 c 0,68,69
 814 1528 814 1528 824 1607 c 1,70,-1
 957 1610 l 1,49,50
EndSplineSet
EndChar

StartChar: Edotaccent
Encoding: 278 278 235
Width: 1026
GlyphClass: 2
Flags: W
LayerCount: 2
Fore
SplineSet
841 240 m 2,0,1
 903 240 903 240 927 252 c 1,2,-1
 931 251 l 1,3,-1
 921 0 l 1,4,-1
 172 0 l 1,5,-1
 172 1337 l 1,6,7
 199 1335 199 1335 232 1334 c 2,8,-1
 302 1332 l 2,9,10
 372 1330 372 1330 454 1330 c 0,11,12
 683 1330 683 1330 907 1338 c 1,13,14
 896 1250 896 1250 896 1103 c 0,15,16
 896 1087 896 1087 898 1079 c 1,17,-1
 896 1076 l 1,18,19
 844 1091 844 1091 748 1091 c 2,20,-1
 433 1091 l 1,21,-1
 433 836 l 1,22,-1
 670 836 l 2,23,24
 780 836 780 836 802 842 c 1,25,-1
 805 595 l 1,26,27
 757 600 757 600 681 600 c 2,28,-1
 433 600 l 1,29,-1
 433 240 l 1,30,-1
 841 240 l 2,0,1
366 1618 m 1,31,32
 431 1722 431 1722 515 1814 c 1,33,-1
 706 1663 l 1,34,35
 656 1599 656 1599 638 1575 c 2,36,-1
 603 1526 l 2,37,38
 586 1503 586 1503 567 1474 c 1,39,-1
 366 1618 l 1,31,32
EndSplineSet
EndChar

StartChar: edotaccent
Encoding: 279 279 236
Width: 1197
GlyphClass: 2
Flags: W
LayerCount: 2
Fore
SplineSet
97 514 m 0,0,1
 97 631 97 631 137 731 c 128,-1,2
 177 831 177 831 250 906 c 0,3,4
 406 1065 406 1065 658 1065 c 0,5,6
 871 1065 871 1065 1000 924 c 1,7,8
 1127 788 1127 788 1127 582 c 0,9,10
 1127 503 1127 503 1115 474 c 1,11,12
 1015 446 1015 446 708 446 c 2,13,-1
 356 446 l 1,14,15
 382 339 382 339 477 279.5 c 128,-1,16
 572 220 572 220 724 220 c 0,17,18
 883 220 883 220 997 277 c 0,19,20
 1027 292 1027 292 1042 305 c 1,21,22
 1040 263 1040 263 1037 219 c 2,23,-1
 1026 63 l 1,24,25
 950 11 950 11 780 -9 c 0,26,27
 730 -15 730 -15 684 -15 c 0,28,29
 430 -15 430 -15 264 133 c 0,30,31
 97 282 97 282 97 514 c 0,0,1
861 640 m 1,32,33
 820 855 820 855 627 855 c 0,34,35
 475 855 475 855 396 724 c 0,36,37
 372 684 372 684 359 636 c 1,38,39
 383 635 383 635 418 634 c 1,40,-1
 492 634 l 1,41,42
 529 633 529 633 563 633 c 2,43,-1
 620 633 l 2,44,45
 671 633 671 633 720 634 c 2,46,-1
 802 637 l 2,47,48
 835 638 835 638 861 640 c 1,32,33
442 1336 m 1,49,50
 507 1440 507 1440 591 1532 c 1,51,-1
 782 1381 l 1,52,53
 732 1317 732 1317 714 1293 c 2,54,-1
 679 1244 l 2,55,56
 662 1221 662 1221 643 1192 c 1,57,-1
 442 1336 l 1,49,50
EndSplineSet
EndChar

StartChar: Eogonek
Encoding: 280 280 237
Width: 1026
GlyphClass: 2
Flags: W
LayerCount: 2
Fore
SplineSet
863 -320 m 0,0,1
 900 -320 900 -320 922 -304 c 1,2,-1
 924 -309 l 1,3,-1
 820 -552 l 1,4,5
 554 -552 554 -552 461 -390 c 0,6,7
 427 -331 427 -331 427 -243 c 0,8,9
 427 -161 427 -161 490 -71 c 0,10,11
 516 -35 516 -35 557 0 c 1,12,-1
 172 0 l 1,13,-1
 172 1337 l 1,14,15
 199 1335 199 1335 232 1334 c 2,16,-1
 302 1332 l 2,17,18
 372 1330 372 1330 454 1330 c 0,19,20
 683 1330 683 1330 907 1338 c 1,21,22
 896 1250 896 1250 896 1103 c 0,23,24
 896 1087 896 1087 898 1079 c 1,25,-1
 896 1076 l 1,26,27
 844 1091 844 1091 748 1091 c 2,28,-1
 433 1091 l 1,29,-1
 433 836 l 1,30,-1
 670 836 l 2,31,32
 780 836 780 836 802 842 c 1,33,-1
 805 595 l 1,34,35
 757 600 757 600 681 600 c 2,36,-1
 433 600 l 1,37,-1
 433 240 l 1,38,-1
 841 240 l 2,39,40
 903 240 903 240 927 252 c 1,41,-1
 931 251 l 1,42,-1
 921 14 l 1,43,-1
 931 0 l 1,44,-1
 920 0 l 1,45,46
 816 -4 816 -4 742 -72 c 0,47,48
 672 -137 672 -137 672 -215 c 0,49,50
 672 -320 672 -320 863 -320 c 0,0,1
EndSplineSet
EndChar

StartChar: eogonek
Encoding: 281 281 238
Width: 1197
GlyphClass: 2
Flags: W
LayerCount: 2
Fore
SplineSet
542 -256 m 0,0,1
 542 -138 542 -138 672 -15 c 1,2,3
 423 -11 423 -11 261 136 c 0,4,5
 97 285 97 285 97 516 c 0,6,7
 97 749 97 749 250 906 c 0,8,9
 406 1065 406 1065 658 1065 c 0,10,11
 871 1065 871 1065 1000 924 c 1,12,13
 1127 788 1127 788 1127 582 c 0,14,15
 1127 503 1127 503 1115 474 c 1,16,17
 1015 446 1015 446 708 446 c 2,18,-1
 356 446 l 1,19,20
 382 339 382 339 477 279.5 c 128,-1,21
 572 220 572 220 724 220 c 0,22,23
 883 220 883 220 997 277 c 0,24,25
 1027 292 1027 292 1042 305 c 1,26,27
 1040 263 1040 263 1037 219 c 2,28,-1
 1026 63 l 1,29,-1
 1008 52 l 2,30,31
 885 -23 885 -23 822 -112 c 0,32,33
 777 -175 777 -175 777 -210 c 128,-1,34
 777 -245 777 -245 793.5 -266 c 128,-1,35
 810 -287 810 -287 836 -300 c 0,36,37
 883 -323 883 -323 939 -323 c 128,-1,38
 995 -323 995 -323 1017 -307 c 1,39,-1
 1019 -312 l 1,40,-1
 915 -555 l 1,41,42
 542 -555 542 -555 542 -256 c 0,0,1
861 640 m 1,43,44
 820 855 820 855 627 855 c 0,45,46
 475 855 475 855 396 724 c 0,47,48
 372 684 372 684 359 636 c 1,49,50
 383 635 383 635 418 634 c 1,51,-1
 492 634 l 1,52,53
 529 633 529 633 563 633 c 2,54,-1
 620 633 l 2,55,56
 671 633 671 633 720 634 c 2,57,-1
 802 637 l 2,58,59
 835 638 835 638 861 640 c 1,43,44
EndSplineSet
EndChar

StartChar: Ecaron
Encoding: 282 282 239
Width: 1026
GlyphClass: 2
Flags: W
LayerCount: 2
Fore
SplineSet
841 240 m 2,0,1
 903 240 903 240 927 252 c 1,2,-1
 931 251 l 1,3,-1
 921 0 l 1,4,-1
 172 0 l 1,5,-1
 172 1337 l 1,6,7
 199 1335 199 1335 232 1334 c 2,8,-1
 302 1332 l 2,9,10
 372 1330 372 1330 454 1330 c 0,11,12
 683 1330 683 1330 907 1338 c 1,13,14
 896 1250 896 1250 896 1103 c 0,15,16
 896 1087 896 1087 898 1079 c 1,17,-1
 896 1076 l 1,18,19
 844 1091 844 1091 748 1091 c 2,20,-1
 433 1091 l 1,21,-1
 433 836 l 1,22,-1
 670 836 l 2,23,24
 780 836 780 836 802 842 c 1,25,-1
 805 595 l 1,26,27
 757 600 757 600 681 600 c 2,28,-1
 433 600 l 1,29,-1
 433 240 l 1,30,-1
 841 240 l 2,0,1
528 1369 m 1,31,-1
 477 1369 l 2,32,33
 435 1369 435 1369 411 1366 c 1,34,-1
 169 1697 l 1,35,-1
 172 1700 l 1,36,37
 220 1697 220 1697 435 1697 c 1,38,-1
 532 1520 l 1,39,-1
 645 1697 l 1,40,-1
 900 1700 l 1,41,-1
 904 1697 l 1,42,-1
 649 1366 l 1,43,-1
 528 1369 l 1,31,-1
EndSplineSet
EndChar

StartChar: ecaron
Encoding: 283 283 240
Width: 1197
GlyphClass: 2
Flags: W
LayerCount: 2
Fore
SplineSet
97 514 m 0,0,1
 97 631 97 631 137 731 c 128,-1,2
 177 831 177 831 250 906 c 0,3,4
 406 1065 406 1065 658 1065 c 0,5,6
 871 1065 871 1065 1000 924 c 1,7,8
 1127 788 1127 788 1127 582 c 0,9,10
 1127 503 1127 503 1115 474 c 1,11,12
 1015 446 1015 446 708 446 c 2,13,-1
 356 446 l 1,14,15
 382 339 382 339 477 279.5 c 128,-1,16
 572 220 572 220 724 220 c 0,17,18
 883 220 883 220 997 277 c 0,19,20
 1027 292 1027 292 1042 305 c 1,21,22
 1040 263 1040 263 1037 219 c 2,23,-1
 1026 63 l 1,24,25
 950 11 950 11 780 -9 c 0,26,27
 730 -15 730 -15 684 -15 c 0,28,29
 430 -15 430 -15 264 133 c 0,30,31
 97 282 97 282 97 514 c 0,0,1
861 640 m 1,32,33
 820 855 820 855 627 855 c 0,34,35
 475 855 475 855 396 724 c 0,36,37
 372 684 372 684 359 636 c 1,38,39
 383 635 383 635 418 634 c 1,40,-1
 492 634 l 1,41,42
 529 633 529 633 563 633 c 2,43,-1
 620 633 l 2,44,45
 671 633 671 633 720 634 c 2,46,-1
 802 637 l 2,47,48
 835 638 835 638 861 640 c 1,32,33
604 1188 m 1,49,-1
 553 1188 l 2,50,51
 511 1188 511 1188 487 1185 c 1,52,-1
 245 1516 l 1,53,-1
 248 1519 l 1,54,55
 296 1516 296 1516 511 1516 c 1,56,-1
 608 1339 l 1,57,-1
 721 1516 l 1,58,-1
 976 1519 l 1,59,-1
 980 1516 l 1,60,-1
 725 1185 l 1,61,-1
 604 1188 l 1,49,-1
EndSplineSet
EndChar

